<svg xmlns="http://www.w3.org/2000/svg" xmlns:xlink="http://www.w3.org/1999/xlink" width="150" zoomAndPan="magnify" viewBox="0 0 112.5 112.499997" height="150" preserveAspectRatio="xMidYMid meet" version="1.0"><defs><clipPath id="816a882fb6"><path d="M 10.78125 0 L 101.128906 0 L 101.128906 112 L 10.78125 112 Z M 10.78125 0 " clip-rule="nonzero"/></clipPath></defs><g clip-path="url(#816a882fb6)"><path fill="#000000" d="M 25.140625 107.289062 C 24.957031 107.34375 24.769531 107.386719 24.605469 107.457031 C 23.75 107.871094 22.855469 108.164062 21.917969 108.339844 C 21.804688 108.339844 21.699219 108.382812 21.589844 108.382812 C 21.214844 108.382812 21.109375 108.167969 21.253906 107.8125 C 21.53125 107.179688 21.996094 106.746094 22.648438 106.511719 C 23.1875 106.292969 23.691406 106.035156 24.207031 105.78125 C 24.707031 105.496094 25.246094 105.316406 25.816406 105.246094 C 26.308594 105.183594 26.753906 105.003906 27.148438 104.707031 C 27.316406 104.613281 27.433594 104.476562 27.492188 104.296875 C 27.550781 104.113281 27.542969 103.9375 27.460938 103.761719 C 27.15625 103.597656 26.828125 103.527344 26.480469 103.554688 C 26.132812 103.582031 25.820312 103.703125 25.542969 103.914062 C 25.382812 104.03125 25.230469 104.15625 25.085938 104.292969 C 24.75 104.632812 24.34375 104.835938 23.867188 104.902344 C 23.054688 105.015625 22.277344 105.25 21.53125 105.597656 C 20.421875 106.082031 19.296875 106.550781 18.148438 106.9375 C 17.59375 107.089844 17.027344 107.15625 16.453125 107.140625 C 16.117188 107.121094 15.808594 107.027344 15.523438 106.855469 C 15.4375 106.8125 15.371094 106.753906 15.320312 106.671875 C 15.265625 106.59375 15.238281 106.507812 15.230469 106.414062 C 15.222656 106.320312 15.242188 106.230469 15.28125 106.144531 C 15.320312 106.0625 15.382812 105.992188 15.457031 105.9375 C 15.636719 105.808594 15.835938 105.71875 16.046875 105.664062 C 16.402344 105.554688 16.761719 105.46875 17.15625 105.367188 C 17.09375 104.933594 17.21875 104.5625 17.535156 104.257812 C 17.890625 103.914062 18.300781 104.257812 18.710938 104.160156 C 18.722656 104.050781 18.722656 103.945312 18.710938 103.835938 C 18.664062 103.636719 18.660156 103.4375 18.707031 103.238281 C 18.75 103.039062 18.839844 102.859375 18.96875 102.699219 C 19.097656 102.542969 19.257812 102.421875 19.445312 102.335938 C 19.632812 102.253906 19.828125 102.21875 20.035156 102.226562 C 20.371094 102.230469 20.667969 102.125 20.925781 101.910156 C 21.570312 101.441406 22.222656 100.988281 22.886719 100.550781 C 23.300781 100.273438 23.761719 100.109375 24.261719 100.066406 C 24.65625 100.03125 25.046875 99.949219 25.425781 99.824219 C 25.804688 99.742188 26.050781 99.511719 26.15625 99.136719 C 26.050781 98.921875 25.867188 98.949219 25.6875 98.972656 C 24.375 99.128906 23.15625 99.558594 22.03125 100.261719 C 21.476562 100.585938 20.886719 100.820312 20.257812 100.964844 C 19.449219 101.171875 18.648438 101.5 17.871094 101.726562 C 17.644531 101.828125 17.414062 101.859375 17.171875 101.828125 C 16.75 101.710938 16.34375 101.746094 15.945312 101.929688 C 15.800781 101.984375 15.652344 102.007812 15.496094 101.988281 C 15.210938 101.964844 15.070312 101.742188 15.066406 101.351562 C 15.066406 100.8125 15.066406 100.25 15.066406 99.664062 C 14.398438 99.679688 13.753906 99.8125 13.136719 100.066406 C 12.875 100.1875 12.609375 100.285156 12.332031 100.367188 C 12.140625 100.425781 11.898438 100.421875 11.796875 100.207031 C 11.738281 100.039062 11.75 99.878906 11.832031 99.722656 C 12.140625 99.078125 12.621094 98.605469 13.265625 98.304688 C 13.570312 98.167969 13.847656 97.988281 14.097656 97.769531 C 14.503906 97.425781 14.46875 97.117188 14.046875 96.808594 C 13.9375 96.730469 13.820312 96.667969 13.71875 96.585938 C 13.289062 96.242188 13.273438 95.921875 13.71875 95.554688 C 14.292969 95.042969 14.960938 94.710938 15.714844 94.558594 C 16.0625 94.5 16.402344 94.398438 16.726562 94.261719 C 17.550781 93.882812 18.410156 93.601562 19.304688 93.421875 C 19.675781 93.347656 19.933594 93.21875 20.007812 92.773438 C 20.113281 92.144531 20.601562 91.839844 21.179688 91.625 C 21.609375 91.464844 22.015625 91.238281 22.429688 91.035156 C 22.542969 90.964844 22.648438 90.886719 22.746094 90.796875 C 22.140625 90.53125 21.554688 90.566406 20.984375 90.898438 C 20.359375 91.316406 19.671875 91.53125 18.921875 91.550781 C 18.417969 91.550781 17.914062 91.503906 17.417969 91.410156 C 16.636719 91.226562 15.847656 91.1875 15.050781 91.300781 C 14.722656 91.351562 14.40625 91.433594 14.097656 91.554688 C 13.667969 91.753906 13.21875 91.84375 12.746094 91.824219 C 12.566406 91.828125 12.386719 91.839844 12.207031 91.867188 C 11.96875 91.890625 11.726562 91.890625 11.484375 91.867188 C 11.375 91.863281 11.269531 91.832031 11.171875 91.777344 C 11.078125 91.726562 10.996094 91.652344 10.9375 91.558594 C 10.875 91.46875 10.835938 91.367188 10.824219 91.257812 C 10.8125 91.148438 10.824219 91.042969 10.859375 90.9375 C 10.917969 90.636719 10.984375 90.332031 11.023438 90.023438 C 11.148438 89.363281 11.402344 88.757812 11.789062 88.207031 C 11.875 88.085938 11.984375 88 12.125 87.949219 C 12.261719 87.898438 12.40625 87.894531 12.546875 87.933594 C 12.765625 87.976562 12.984375 87.992188 13.207031 87.984375 C 13.675781 87.988281 14.058594 87.808594 14.355469 87.445312 C 14.535156 87.15625 14.792969 87.03125 15.128906 87.066406 C 15.789062 87.019531 16.328125 87.253906 16.742188 87.769531 C 16.824219 87.851562 16.910156 87.925781 17.003906 87.992188 C 17.367188 87.8125 17.671875 87.5625 17.914062 87.238281 C 18.417969 86.699219 18.660156 86.699219 19.160156 87.238281 C 19.191406 87.265625 19.222656 87.296875 19.25 87.332031 C 19.351562 87.488281 19.476562 87.617188 19.628906 87.722656 C 19.777344 87.828125 19.941406 87.90625 20.117188 87.953125 C 20.296875 87.996094 20.476562 88.011719 20.660156 87.988281 C 20.839844 87.96875 21.015625 87.917969 21.179688 87.832031 C 21.605469 87.730469 22.042969 87.691406 22.484375 87.710938 C 22.761719 87.710938 23.058594 87.773438 23.308594 87.605469 C 23.308594 86.957031 23.1875 86.824219 22.617188 86.671875 C 21.828125 86.464844 21.652344 85.785156 22.242188 85.203125 C 22.390625 85.054688 22.574219 84.9375 22.863281 84.707031 C 22.476562 84.707031 22.226562 84.707031 21.972656 84.707031 C 21.722656 84.71875 21.488281 84.664062 21.273438 84.539062 C 21.054688 84.414062 20.890625 84.242188 20.773438 84.019531 C 20.65625 83.832031 20.628906 83.632812 20.6875 83.417969 C 20.746094 83.203125 20.875 83.046875 21.070312 82.945312 C 22.152344 82.480469 23.28125 82.214844 24.460938 82.152344 C 24.804688 82.1875 25.148438 82.261719 25.457031 82.316406 C 25.777344 81.949219 25.925781 81.519531 25.898438 81.035156 C 25.878906 80.84375 25.894531 80.65625 25.953125 80.472656 C 26.011719 80.292969 26.105469 80.128906 26.234375 79.984375 C 26.359375 79.84375 26.511719 79.730469 26.6875 79.652344 C 26.859375 79.574219 27.042969 79.535156 27.234375 79.535156 C 27.542969 79.492188 27.851562 79.472656 28.160156 79.472656 C 29.820312 79.453125 31.46875 79.3125 33.105469 79.042969 C 33.726562 78.929688 34.335938 78.957031 34.941406 79.128906 C 35.226562 79.203125 35.5 79.179688 35.769531 79.0625 C 36.53125 78.714844 37.273438 78.328125 37.992188 77.898438 C 38.335938 77.636719 38.722656 77.527344 39.152344 77.5625 C 39.503906 77.574219 39.851562 77.535156 40.195312 77.453125 C 40.542969 77.390625 40.886719 77.3125 41.230469 77.238281 C 41.746094 77.097656 42.238281 77.144531 42.714844 77.382812 C 42.914062 77.488281 42.929688 77.460938 43.15625 77.1875 C 42.316406 76.472656 41.402344 76.042969 40.277344 76.398438 C 40.101562 76.453125 39.929688 76.457031 39.753906 76.402344 C 39.578125 76.351562 39.433594 76.253906 39.320312 76.113281 C 39.078125 75.921875 38.902344 75.683594 38.796875 75.390625 C 38.695312 75.101562 38.675781 74.804688 38.738281 74.503906 C 38.832031 74.117188 38.867188 73.71875 38.945312 73.332031 C 38.980469 73.117188 39.105469 72.90625 38.890625 72.648438 C 38.769531 72.710938 38.664062 72.792969 38.566406 72.886719 C 38.5 73.003906 38.460938 73.128906 38.457031 73.261719 C 38.402344 73.859375 38.179688 74.378906 37.777344 74.824219 C 37.636719 75.023438 37.542969 75.246094 37.5 75.484375 C 37.386719 75.949219 37.160156 76.347656 36.824219 76.683594 C 36.011719 77.570312 35.011719 78.078125 33.820312 78.207031 C 33.121094 78.300781 32.429688 78.429688 31.742188 78.59375 C 31.296875 78.714844 30.867188 78.664062 30.457031 78.449219 C 29.976562 78.183594 29.46875 77.949219 28.992188 77.683594 C 28.664062 77.488281 28.328125 77.472656 27.980469 77.632812 C 27.339844 77.917969 26.667969 78.171875 26.011719 78.417969 C 25.851562 78.492188 25.699219 78.578125 25.554688 78.679688 C 24.96875 79.050781 24.339844 79.3125 23.664062 79.460938 C 23.578125 79.480469 23.492188 79.488281 23.40625 79.488281 C 22.757812 79.488281 22.507812 79.171875 22.742188 78.5625 C 22.941406 78.058594 23.253906 77.636719 23.679688 77.296875 C 23.945312 77.097656 24.199219 76.886719 24.441406 76.660156 C 25.03125 76.015625 25.71875 75.511719 26.511719 75.140625 C 26.800781 74.980469 27.0625 74.78125 27.296875 74.539062 C 27.550781 74.304688 27.855469 74.207031 28.203125 74.25 C 28.953125 74.328125 29.621094 74.125 30.199219 73.636719 C 30.152344 73.535156 30.097656 73.4375 30.035156 73.34375 C 29.929688 73.21875 29.878906 73.074219 29.878906 72.914062 C 29.878906 72.75 29.929688 72.609375 30.035156 72.484375 C 30.324219 72.082031 30.503906 71.636719 30.570312 71.144531 C 30.667969 70.746094 30.890625 70.441406 31.242188 70.226562 C 31.480469 70.042969 31.648438 69.8125 31.746094 69.527344 C 31.84375 69.242188 31.855469 68.957031 31.78125 68.664062 C 31.558594 68.707031 31.375 68.765625 31.1875 68.789062 C 30.824219 68.828125 30.59375 68.53125 30.808594 68.25 C 31.097656 67.804688 31.289062 67.320312 31.375 66.796875 C 31.570312 65.972656 31.988281 65.28125 32.628906 64.726562 C 33.132812 64.253906 33.535156 63.703125 33.835938 63.078125 C 34.007812 62.785156 34.21875 62.519531 34.464844 62.285156 C 34.753906 61.988281 34.941406 61.984375 35.296875 62.199219 C 35.613281 62.398438 35.921875 62.617188 36.214844 62.847656 C 36.472656 63.089844 36.78125 63.203125 37.132812 63.183594 C 37.132812 63.144531 37.132812 63.105469 37.101562 63.097656 C 36.890625 62.992188 36.597656 62.988281 36.566406 62.683594 C 36.53125 62.375 36.832031 62.253906 37.042969 62.113281 C 37.441406 61.800781 37.882812 61.726562 38.363281 61.894531 C 38.464844 61.945312 38.570312 61.960938 38.679688 61.945312 C 38.828125 61.910156 38.949219 61.835938 39.046875 61.714844 C 39.085938 61.585938 39.058594 61.46875 38.972656 61.367188 C 38.8125 61.234375 38.71875 61.066406 38.683594 60.863281 C 38.648438 60.660156 38.683594 60.46875 38.789062 60.292969 C 38.878906 60 38.953125 59.699219 39.003906 59.394531 C 38.828125 59.355469 38.648438 59.332031 38.464844 59.335938 C 37.929688 59.433594 37.425781 59.546875 36.914062 59.683594 C 36.101562 59.90625 35.300781 60.167969 34.496094 60.371094 C 34.042969 60.46875 33.585938 60.535156 33.121094 60.578125 C 32.707031 60.601562 32.332031 60.496094 31.988281 60.265625 C 31.367188 59.929688 30.726562 59.886719 30.066406 60.136719 L 29.8125 60.210938 C 29.3125 60.328125 29.0625 60.175781 29.082031 59.675781 C 29.113281 59.515625 29.085938 59.367188 29 59.230469 C 28.917969 59.09375 28.796875 59.003906 28.644531 58.960938 C 28.523438 58.902344 28.414062 58.832031 28.316406 58.738281 C 28.21875 58.671875 28.140625 58.585938 28.078125 58.484375 C 28.015625 58.386719 27.976562 58.277344 27.960938 58.15625 C 27.945312 58.039062 27.957031 57.925781 27.988281 57.8125 C 28.023438 57.699219 28.078125 57.59375 28.152344 57.503906 C 28.34375 57.210938 28.546875 56.917969 28.722656 56.613281 C 28.800781 56.453125 28.855469 56.289062 28.890625 56.113281 C 29.003906 55.691406 28.953125 55.578125 28.546875 55.511719 C 28.394531 55.480469 28.246094 55.464844 28.0625 55.4375 C 27.820312 55.863281 27.601562 56.285156 27.347656 56.695312 C 27.238281 56.882812 27.097656 57.050781 26.929688 57.195312 C 26.554688 57.492188 26.394531 57.488281 26.027344 57.144531 C 25.875 56.992188 25.695312 56.949219 25.492188 57.011719 C 25.285156 57.085938 25.070312 57.136719 24.851562 57.160156 C 24.609375 57.175781 24.375 57.140625 24.148438 57.046875 C 24.046875 57.011719 23.960938 56.953125 23.886719 56.871094 C 23.816406 56.789062 23.769531 56.695312 23.746094 56.589844 C 23.722656 56.484375 23.726562 56.378906 23.757812 56.277344 C 23.789062 56.171875 23.84375 56.082031 23.921875 56.007812 C 24.082031 55.828125 24.257812 55.671875 24.460938 55.539062 C 24.8125 55.308594 25.183594 55.113281 25.535156 54.890625 C 25.714844 54.777344 25.878906 54.636719 26.027344 54.53125 C 25.972656 54.175781 25.769531 54.160156 25.578125 54.246094 C 25.25 54.378906 24.9375 54.539062 24.621094 54.707031 C 24.464844 54.792969 24.316406 54.882812 24.175781 54.984375 C 24.054688 55.078125 23.921875 55.121094 23.769531 55.113281 C 23.621094 55.105469 23.492188 55.054688 23.378906 54.953125 C 23.261719 54.851562 23.132812 54.761719 23 54.683594 C 22.589844 54.414062 22.171875 54.394531 21.742188 54.632812 C 21.066406 55.019531 20.371094 54.78125 19.691406 54.605469 C 19.605469 54.578125 19.527344 54.535156 19.460938 54.476562 C 19.132812 54.234375 19.089844 54.007812 19.339844 53.691406 C 19.644531 53.328125 20.019531 53.0625 20.464844 52.898438 C 20.808594 52.75 21.144531 52.589844 21.480469 52.417969 C 21.589844 52.347656 21.691406 52.261719 21.78125 52.160156 C 21.5 51.941406 21.1875 51.796875 20.839844 51.730469 C 20.335938 51.566406 19.847656 51.363281 19.378906 51.121094 C 18.777344 50.777344 18.765625 50.285156 19.296875 49.835938 C 19.453125 49.691406 19.632812 49.597656 19.835938 49.546875 C 20.609375 49.320312 21.363281 49.363281 22.105469 49.675781 C 22.347656 49.796875 22.578125 49.992188 22.886719 49.917969 C 22.949219 49.652344 22.773438 49.582031 22.621094 49.503906 C 22.417969 49.417969 22.222656 49.3125 22.035156 49.191406 C 21.554688 48.820312 21.613281 48.347656 22.175781 48.117188 C 22.480469 47.972656 22.800781 47.910156 23.136719 47.929688 C 23.476562 47.945312 23.785156 48.046875 24.074219 48.222656 C 24.515625 48.480469 24.988281 48.660156 25.492188 48.761719 C 26.007812 48.878906 26.53125 48.953125 27.058594 48.980469 C 27.492188 49.015625 27.503906 48.980469 27.621094 48.445312 C 27.273438 48.347656 26.914062 48.25 26.546875 48.144531 C 26.261719 48.0625 25.984375 48.082031 25.710938 48.199219 C 25.082031 48.445312 24.675781 48.144531 24.710938 47.457031 C 24.75 47.058594 24.8125 46.667969 24.898438 46.28125 C 24.96875 45.9375 24.996094 45.625 24.652344 45.394531 C 24.40625 45.234375 24.433594 45.003906 24.507812 44.746094 C 24.667969 44.3125 24.960938 44.011719 25.386719 43.835938 C 26.667969 43.183594 28.019531 42.972656 29.4375 43.207031 L 29.976562 43.285156 C 30.15625 42.746094 30.351562 42.160156 30.511719 41.601562 C 30.546875 41.511719 30.539062 41.425781 30.488281 41.34375 C 30.4375 41.261719 30.367188 41.210938 30.269531 41.199219 C 29.929688 41.117188 29.652344 40.9375 29.4375 40.664062 C 29.371094 40.574219 29.28125 40.519531 29.167969 40.5 C 28.535156 40.5 27.878906 40.363281 27.300781 40.722656 C 26.574219 41.101562 25.804688 41.25 24.992188 41.171875 C 24.390625 41.171875 24.195312 40.765625 24.453125 40.210938 C 24.613281 39.847656 24.753906 39.476562 24.925781 39.136719 C 24.976562 38.941406 25.09375 38.796875 25.277344 38.707031 C 25.457031 38.617188 25.640625 38.609375 25.828125 38.6875 L 26.414062 38.800781 C 26.453125 38.800781 26.496094 38.773438 26.589844 38.738281 C 26.640625 38.199219 26.492188 37.71875 26.140625 37.304688 C 25.515625 36.527344 25.5 36.230469 26.011719 35.339844 C 26.140625 35.113281 26.265625 34.871094 26.382812 34.636719 C 26.421875 34.542969 26.457031 34.449219 26.484375 34.351562 C 26.050781 34.316406 25.660156 34.425781 25.308594 34.679688 C 25.035156 34.824219 24.769531 34.996094 24.503906 35.136719 C 24.34375 35.214844 24.175781 35.261719 23.996094 35.277344 C 23.835938 35.300781 23.699219 35.257812 23.578125 35.148438 C 23.460938 35.035156 23.410156 34.898438 23.421875 34.738281 C 23.425781 34.429688 23.484375 34.128906 23.601562 33.839844 C 23.925781 33.042969 24.144531 32.210938 24.253906 31.355469 C 24.265625 31.195312 24.265625 31.035156 24.253906 30.878906 C 24.128906 30.960938 24.007812 31.054688 23.894531 31.15625 C 23.761719 31.300781 23.652344 31.480469 23.515625 31.613281 C 23 32.089844 22.746094 32.683594 22.75 33.386719 C 22.726562 33.738281 22.632812 34.074219 22.464844 34.390625 C 22.261719 34.792969 21.871094 34.78125 21.652344 34.390625 C 21.421875 34.054688 21.375 33.695312 21.511719 33.316406 C 21.578125 33.105469 21.667969 32.902344 21.785156 32.714844 C 22.238281 32.023438 22.433594 31.265625 22.359375 30.441406 C 22.332031 30.03125 22.429688 29.65625 22.648438 29.308594 C 22.78125 29.082031 22.960938 28.910156 23.191406 28.785156 C 23.421875 28.65625 23.664062 28.601562 23.925781 28.613281 C 24.1875 28.621094 24.425781 28.699219 24.644531 28.84375 C 24.863281 28.984375 25.027344 29.175781 25.140625 29.410156 C 25.226562 29.5625 25.300781 29.71875 25.382812 29.882812 L 26.945312 29.011719 C 26.953125 28.953125 26.953125 28.894531 26.945312 28.835938 C 26.757812 28.222656 26.8125 27.890625 27.148438 27.640625 C 27.382812 27.441406 27.648438 27.332031 27.953125 27.320312 C 28.257812 27.304688 28.535156 27.386719 28.78125 27.5625 C 29.015625 27.730469 29.265625 27.851562 29.539062 27.929688 C 30.117188 28.167969 30.71875 28.28125 31.34375 28.261719 C 31.570312 28.277344 31.769531 28.355469 31.945312 28.496094 C 32.785156 29.011719 33.679688 29.140625 34.632812 28.878906 C 35.128906 28.8125 35.597656 28.894531 36.039062 29.128906 C 36.480469 29.363281 36.8125 29.703125 37.039062 30.152344 C 37.164062 30.503906 37.261719 30.859375 37.328125 31.226562 C 37.375 31.417969 37.390625 31.617188 37.433594 31.8125 C 37.453125 31.941406 37.515625 32.046875 37.617188 32.128906 C 37.722656 32.210938 37.839844 32.246094 37.972656 32.230469 C 38.089844 32.238281 38.191406 32.203125 38.285156 32.132812 C 38.375 32.058594 38.429688 31.964844 38.449219 31.847656 C 38.515625 31.589844 38.59375 31.3125 38.660156 31.085938 C 38.777344 30.636719 39 30.25 39.324219 29.921875 C 39.652344 29.589844 40.042969 29.367188 40.492188 29.25 C 40.632812 29.199219 40.78125 29.175781 40.929688 29.183594 C 41.082031 29.1875 41.226562 29.222656 41.363281 29.285156 C 41.503906 29.351562 41.625 29.4375 41.726562 29.546875 C 41.828125 29.660156 41.910156 29.785156 41.960938 29.925781 C 42.058594 30.148438 42.125 30.382812 42.21875 30.664062 C 42.910156 30.785156 43.609375 30.820312 44.308594 30.773438 C 44.898438 30.714844 45.496094 30.683594 46.09375 30.683594 C 46.378906 30.664062 46.640625 30.734375 46.875 30.894531 C 47.109375 31.058594 47.269531 31.273438 47.355469 31.546875 C 47.535156 32 47.871094 32.261719 48.351562 32.328125 C 48.4375 32.238281 48.472656 32.132812 48.460938 32.011719 C 48.453125 31.894531 48.398438 31.796875 48.304688 31.71875 C 47.960938 31.429688 47.6875 31.144531 47.914062 30.644531 C 48.101562 30.226562 48.425781 29.992188 48.886719 29.941406 C 48.914062 29.929688 48.945312 29.914062 48.972656 29.894531 C 49.175781 29.535156 48.792969 28.996094 49.277344 28.609375 L 48.648438 28.609375 C 48.496094 28.625 48.339844 28.625 48.1875 28.609375 C 48.113281 28.605469 48.046875 28.578125 47.984375 28.539062 C 47.921875 28.496094 47.875 28.441406 47.84375 28.375 C 47.808594 28.308594 47.792969 28.242188 47.796875 28.167969 C 47.800781 28.09375 47.820312 28.023438 47.859375 27.960938 C 48.058594 27.496094 48.40625 27.214844 48.902344 27.113281 C 49.089844 27.078125 49.28125 27.058594 49.46875 27.046875 C 49.753906 26.375 50.1875 25.816406 50.769531 25.371094 C 51.039062 25.082031 51.359375 24.871094 51.734375 24.742188 C 52.105469 24.609375 52.488281 24.574219 52.878906 24.632812 C 53.289062 24.695312 53.679688 24.640625 54.050781 24.464844 C 54.0625 24.40625 54.0625 24.351562 54.050781 24.292969 C 53.671875 23.605469 53.902344 23 54.675781 22.875 C 55.074219 22.800781 55.414062 22.625 55.699219 22.335938 C 56.101562 21.953125 56.246094 21.488281 56.136719 20.941406 C 56.085938 20.585938 55.855469 20.46875 55.5 20.597656 C 55.277344 20.683594 55.070312 20.816406 54.851562 20.925781 C 54.632812 21.03125 54.410156 21.125 54.1875 21.210938 C 53.878906 21.328125 53.617188 21.261719 53.402344 21.011719 C 53.273438 20.886719 53.160156 20.75 53.058594 20.601562 C 52.957031 20.4375 52.816406 20.320312 52.636719 20.246094 C 52.457031 20.175781 52.273438 20.164062 52.085938 20.214844 L 49.820312 20.699219 C 49.492188 20.769531 49.167969 20.84375 48.84375 20.882812 C 48.109375 20.988281 47.410156 20.886719 46.734375 20.582031 C 46.0625 20.28125 45.523438 19.820312 45.121094 19.203125 C 45.046875 19.089844 44.980469 18.976562 44.921875 18.859375 C 44.84375 18.757812 44.789062 18.648438 44.761719 18.527344 C 44.730469 18.402344 44.730469 18.28125 44.753906 18.15625 C 44.777344 18.035156 44.828125 17.921875 44.902344 17.820312 C 44.972656 17.71875 45.066406 17.636719 45.175781 17.574219 C 45.90625 16.972656 46.734375 16.578125 47.664062 16.398438 C 48.277344 16.277344 48.890625 16.277344 49.503906 16.398438 C 50.140625 16.453125 50.777344 16.453125 51.414062 16.398438 C 51.320312 16.265625 51.210938 16.144531 51.09375 16.03125 C 50.9375 15.914062 50.753906 15.828125 50.59375 15.710938 C 50.417969 15.621094 50.296875 15.484375 50.234375 15.296875 C 50.171875 15.109375 50.1875 14.925781 50.277344 14.75 C 50.367188 14.542969 50.515625 14.394531 50.722656 14.300781 C 50.925781 14.207031 51.132812 14.191406 51.351562 14.253906 C 51.605469 14.347656 51.855469 14.453125 52.097656 14.578125 C 52.359375 14.296875 52.539062 13.972656 52.640625 13.601562 C 52.722656 13.386719 52.746094 13.167969 52.703125 12.945312 C 52.660156 12.71875 52.5625 12.523438 52.40625 12.355469 C 52.246094 12.175781 52.066406 12.015625 51.871094 11.875 C 51.660156 11.75 51.5 11.578125 51.382812 11.363281 C 51.269531 11.144531 51.222656 10.914062 51.242188 10.667969 C 51.257812 10.425781 51.339844 10.203125 51.480469 10.003906 C 51.625 9.804688 51.8125 9.660156 52.039062 9.566406 C 52.285156 9.433594 52.574219 9.347656 52.828125 9.226562 C 53.363281 8.988281 53.492188 8.691406 53.289062 8.152344 C 53.183594 7.914062 53.050781 7.683594 52.898438 7.472656 C 52.8125 7.34375 52.675781 7.246094 52.578125 7.128906 C 52.304688 6.789062 52.3125 6.589844 52.65625 6.285156 C 53.503906 5.546875 54.488281 5.144531 55.609375 5.078125 C 56.050781 5.078125 56.488281 5.117188 56.925781 5.1875 C 57.246094 5.226562 57.570312 5.285156 57.949219 5.34375 C 57.949219 5.085938 57.949219 4.898438 57.992188 4.707031 C 58.023438 4.421875 58.140625 4.179688 58.339844 3.980469 C 58.542969 3.777344 58.785156 3.660156 59.066406 3.632812 C 59.332031 3.539062 59.59375 3.546875 59.851562 3.65625 C 60.113281 3.769531 60.296875 3.953125 60.410156 4.210938 C 60.578125 4.5625 60.820312 4.847656 61.136719 5.070312 C 61.34375 4.636719 61.59375 4.277344 61.378906 3.765625 C 61.277344 3.386719 61.363281 3.058594 61.636719 2.777344 C 61.761719 2.574219 61.941406 2.503906 62.171875 2.5625 C 62.40625 2.59375 62.539062 2.726562 62.5625 2.960938 C 62.601562 3.316406 62.617188 3.675781 62.613281 4.035156 C 62.613281 4.25 62.582031 4.46875 62.554688 4.734375 C 62.800781 4.707031 63.003906 4.667969 63.214844 4.664062 C 63.351562 4.652344 63.476562 4.6875 63.585938 4.769531 C 63.695312 4.851562 63.761719 4.960938 63.789062 5.097656 C 63.859375 5.441406 63.90625 5.796875 63.976562 6.140625 C 64.046875 6.484375 64.164062 6.617188 64.539062 6.617188 C 64.917969 6.617188 65.113281 6.484375 65.179688 6.160156 C 65.253906 5.957031 65.261719 5.75 65.210938 5.542969 C 65.160156 5.332031 65.054688 5.152344 64.894531 5.007812 C 64.539062 4.714844 64.164062 4.453125 63.765625 4.21875 C 63.316406 3.953125 63.230469 3.679688 63.441406 3.25 C 63.691406 2.820312 64.039062 2.5 64.484375 2.28125 C 64.933594 2.066406 65.402344 1.992188 65.894531 2.058594 C 66.042969 2.058594 66.179688 2.09375 66.3125 2.164062 C 66.441406 2.238281 66.546875 2.335938 66.625 2.460938 C 66.707031 2.585938 66.753906 2.722656 66.765625 2.867188 C 66.773438 3.015625 66.75 3.160156 66.6875 3.292969 C 66.609375 3.566406 66.472656 3.832031 66.386719 4.097656 C 66.289062 4.371094 66.210938 4.648438 66.152344 4.929688 C 66.097656 5.226562 66.203125 5.449219 66.457031 5.601562 C 66.695312 5.765625 66.871094 5.976562 66.992188 6.238281 C 67.113281 6.5 67.160156 6.773438 67.132812 7.058594 C 67.101562 7.34375 67.003906 7.601562 66.835938 7.835938 C 66.664062 8.066406 66.449219 8.238281 66.183594 8.351562 C 65.671875 8.617188 65.566406 8.804688 65.648438 9.347656 C 65.683594 9.773438 65.8125 10.171875 66.039062 10.539062 C 66.277344 10.328125 66.496094 10.09375 66.6875 9.839844 C 67.132812 9.105469 67.570312 8.359375 67.957031 7.589844 C 68.203125 7.078125 68.203125 6.5625 67.957031 6.046875 C 67.6875 5.441406 67.417969 4.839844 67.085938 4.261719 C 66.863281 3.859375 66.796875 3.433594 66.882812 2.980469 C 66.984375 2.304688 67.417969 2.074219 68.074219 2.3125 L 68.386719 2.417969 C 68.425781 2.421875 68.46875 2.421875 68.507812 2.417969 C 68.59375 2.289062 68.699219 2.121094 68.808594 1.972656 C 68.867188 1.847656 68.953125 1.746094 69.0625 1.660156 C 69.171875 1.578125 69.292969 1.527344 69.425781 1.503906 C 69.5625 1.480469 69.695312 1.492188 69.824219 1.535156 C 69.957031 1.578125 70.066406 1.648438 70.164062 1.746094 C 70.285156 1.839844 70.410156 1.929688 70.539062 2.011719 C 70.539062 2.011719 70.621094 2.011719 70.710938 2.011719 C 70.703125 1.890625 70.679688 1.773438 70.640625 1.660156 C 70.582031 1.519531 70.46875 1.402344 70.398438 1.261719 C 70.324219 1.121094 70.296875 0.972656 70.3125 0.816406 C 70.332031 0.65625 70.394531 0.519531 70.5 0.398438 C 70.613281 0.277344 70.75 0.207031 70.910156 0.183594 C 71.074219 0.164062 71.222656 0.199219 71.359375 0.285156 C 71.664062 0.46875 71.941406 0.6875 72.1875 0.941406 C 72.613281 1.390625 73 1.875 73.402344 2.347656 L 73.832031 2.847656 C 73.941406 2.996094 74.082031 3.097656 74.257812 3.152344 C 74.433594 3.210938 74.609375 3.207031 74.78125 3.148438 C 74.972656 3.09375 75.167969 3.058594 75.367188 3.035156 C 75.636719 2.996094 75.894531 3.03125 76.148438 3.136719 C 76.398438 3.238281 76.601562 3.402344 76.765625 3.621094 C 76.863281 3.722656 76.933594 3.839844 76.980469 3.972656 C 77.027344 4.105469 77.042969 4.246094 77.03125 4.382812 C 77.015625 4.523438 76.976562 4.65625 76.90625 4.78125 C 76.835938 4.902344 76.742188 5.003906 76.628906 5.085938 C 76.304688 5.332031 75.945312 5.507812 75.554688 5.625 C 74.585938 5.945312 73.777344 6.503906 73.140625 7.300781 C 72.8125 7.6875 72.511719 8.09375 72.210938 8.476562 C 72.496094 8.976562 72.539062 9.011719 72.917969 8.882812 C 73.414062 8.703125 73.910156 8.703125 74.40625 8.882812 C 74.871094 9.089844 75.304688 9.039062 75.710938 8.734375 C 75.777344 8.4375 75.691406 8.195312 75.457031 8.003906 C 75.011719 7.527344 75.210938 7.019531 75.398438 6.519531 C 75.464844 6.300781 75.59375 6.121094 75.785156 5.992188 C 75.972656 5.859375 76.183594 5.796875 76.414062 5.8125 C 76.925781 5.796875 77.425781 5.851562 77.917969 5.980469 C 78.785156 6.207031 79.621094 6.121094 80.425781 5.722656 C 80.796875 5.527344 81.15625 5.308594 81.5 5.070312 C 81.882812 4.84375 82.277344 4.640625 82.6875 4.46875 C 83.320312 4.210938 83.972656 3.988281 84.625 3.792969 C 85.503906 3.519531 86.335938 3.621094 87.125 4.09375 C 87.441406 4.296875 87.742188 4.519531 88.03125 4.757812 C 88.164062 4.890625 88.320312 4.960938 88.503906 4.972656 C 88.6875 4.988281 88.855469 4.941406 89.003906 4.835938 L 89.234375 4.707031 C 89.609375 4.496094 89.992188 4.472656 90.390625 4.628906 C 90.894531 4.839844 91.285156 5.175781 91.570312 5.640625 C 91.855469 6.109375 91.976562 6.613281 91.929688 7.15625 C 91.835938 7.5625 91.707031 7.960938 91.542969 8.347656 C 91.4375 8.632812 91.285156 8.882812 91.167969 9.191406 C 91.097656 9.324219 91.074219 9.46875 91.097656 9.621094 C 91.121094 9.769531 91.1875 9.898438 91.296875 10.007812 C 91.480469 10.007812 91.714844 10.007812 91.957031 10.007812 C 92.140625 10 92.316406 10.015625 92.496094 10.054688 C 92.652344 10.09375 92.769531 10.1875 92.84375 10.332031 C 92.917969 10.476562 92.925781 10.625 92.867188 10.773438 C 92.839844 10.835938 92.816406 10.898438 92.785156 10.957031 C 92.398438 11.753906 92.445312 11.84375 93.257812 12.25 C 93.53125 12.390625 93.777344 12.570312 93.992188 12.789062 C 95.007812 13.796875 95.664062 15 95.964844 16.398438 C 95.964844 16.476562 96.011719 16.546875 96.054688 16.699219 C 96.28125 16.40625 96.46875 16.089844 96.613281 15.75 C 96.757812 15.480469 96.882812 15.125 97.253906 15.164062 C 97.625 15.199219 97.6875 15.613281 97.753906 15.929688 C 97.929688 17.101562 97.753906 18.21875 97.214844 19.277344 C 97.113281 19.480469 96.96875 19.644531 96.78125 19.769531 C 96.246094 20.222656 95.632812 20.507812 94.945312 20.625 C 94.628906 20.675781 94.359375 20.8125 94.136719 21.039062 C 93.910156 21.261719 93.773438 21.53125 93.71875 21.84375 C 93.871094 21.945312 94.035156 21.992188 94.21875 21.976562 C 94.398438 21.960938 94.554688 21.890625 94.6875 21.761719 C 95.332031 21.332031 95.957031 20.882812 96.59375 20.441406 C 96.738281 20.339844 96.871094 20.222656 97.023438 20.128906 C 97.296875 19.941406 97.597656 19.855469 97.929688 19.871094 C 98.261719 19.890625 98.554688 20.003906 98.8125 20.214844 C 99.167969 20.472656 99.449219 20.792969 99.660156 21.179688 C 99.875 21.5625 99.992188 21.976562 100.019531 22.414062 C 100.03125 22.59375 100.03125 22.769531 100.019531 22.949219 C 99.984375 23.496094 100.101562 24.007812 100.378906 24.480469 C 100.722656 25.183594 100.925781 25.925781 100.984375 26.703125 C 101.042969 27.117188 101.15625 27.519531 101.199219 27.9375 C 101.25 28.332031 101.25 28.722656 101.199219 29.117188 C 101.179688 29.304688 101.09375 29.460938 100.945312 29.582031 C 100.796875 29.703125 100.628906 29.757812 100.4375 29.742188 C 100.246094 29.730469 100.085938 29.652344 99.960938 29.507812 C 99.832031 29.367188 99.769531 29.199219 99.777344 29.007812 C 99.84375 28.195312 99.59375 27.492188 99.03125 26.902344 C 98.757812 26.539062 98.597656 26.132812 98.558594 25.679688 C 98.507812 25.304688 98.4375 24.9375 98.34375 24.570312 C 98.296875 24.425781 98.199219 24.324219 98.054688 24.277344 C 97.898438 24.273438 97.765625 24.328125 97.65625 24.441406 C 97.464844 24.644531 97.425781 24.871094 97.542969 25.125 C 97.652344 25.53125 97.8125 25.917969 98.027344 26.28125 C 98.234375 26.601562 98.351562 26.953125 98.378906 27.335938 C 98.402344 27.71875 98.332031 28.082031 98.167969 28.429688 C 98.035156 28.78125 97.921875 29.136719 97.832031 29.503906 C 97.8125 29.679688 97.8125 29.859375 97.832031 30.039062 C 98.089844 29.910156 98.257812 29.820312 98.433594 29.738281 C 98.589844 29.652344 98.753906 29.589844 98.921875 29.546875 C 99.507812 29.441406 99.804688 29.683594 99.824219 30.28125 C 99.84375 31.125 99.621094 31.898438 99.152344 32.601562 C 99.058594 32.78125 98.917969 32.917969 98.738281 33.015625 C 98.5625 33.113281 98.371094 33.15625 98.167969 33.136719 C 97.195312 33.078125 96.226562 33.050781 95.253906 32.992188 C 94.75 32.960938 94.566406 33.105469 94.589844 33.632812 C 94.589844 33.894531 94.648438 34.167969 94.675781 34.421875 C 94.703125 34.675781 94.722656 34.90625 94.746094 35.148438 C 94.796875 35.5 94.730469 35.832031 94.546875 36.140625 C 94.367188 36.449219 94.105469 36.667969 93.773438 36.796875 C 93.417969 36.9375 93.117188 37.152344 92.871094 37.445312 C 92.625 37.738281 92.460938 38.070312 92.382812 38.445312 C 92.203125 39.195312 91.582031 39.589844 90.96875 39.941406 C 90.824219 40.019531 90.671875 40.035156 90.515625 39.992188 C 90.355469 39.945312 90.234375 39.855469 90.152344 39.710938 C 90.050781 39.566406 89.96875 39.410156 89.90625 39.246094 C 89.773438 38.859375 89.558594 38.527344 89.261719 38.25 C 88.964844 37.972656 88.617188 37.785156 88.226562 37.683594 C 88.175781 37.695312 88.132812 37.71875 88.09375 37.75 C 88.058594 37.785156 88.03125 37.828125 88.015625 37.875 C 88 37.925781 88 37.972656 88.007812 38.023438 C 88.019531 38.074219 88.042969 38.117188 88.074219 38.15625 C 88.28125 38.480469 88.554688 38.726562 88.894531 38.902344 C 89.140625 39.023438 89.328125 39.210938 89.453125 39.453125 C 89.578125 39.699219 89.621094 39.957031 89.578125 40.226562 C 89.554688 40.457031 89.449219 40.632812 89.261719 40.765625 C 88.636719 41.195312 87.960938 41.296875 87.238281 41.070312 C 87.050781 40.996094 86.894531 40.882812 86.769531 40.726562 C 86.566406 40.535156 86.378906 40.320312 86.152344 40.078125 C 86.019531 40.171875 85.898438 40.28125 85.792969 40.40625 C 85.453125 40.917969 85.289062 41.484375 85.308594 42.101562 C 85.292969 42.375 85.371094 42.613281 85.546875 42.820312 C 85.722656 43.027344 85.945312 43.144531 86.214844 43.175781 C 86.65625 43.21875 87 43.421875 87.257812 43.777344 C 87.5625 44.097656 87.714844 44.476562 87.71875 44.917969 C 87.730469 45.203125 87.773438 45.484375 87.847656 45.757812 C 88.019531 46.363281 88.039062 46.976562 87.914062 47.589844 C 87.839844 48.027344 87.824219 48.46875 87.859375 48.910156 C 87.894531 49.367188 88.074219 49.757812 88.398438 50.082031 C 88.730469 50.433594 89.085938 50.769531 89.402344 51.128906 C 89.566406 51.3125 89.691406 51.515625 89.777344 51.746094 C 89.964844 52.332031 90.109375 52.933594 90.261719 53.535156 C 90.351562 53.921875 90.25 54.246094 89.953125 54.507812 C 89.65625 54.804688 89.523438 55.164062 89.546875 55.582031 C 89.558594 55.933594 89.484375 56.261719 89.320312 56.574219 C 89.15625 56.882812 88.929688 57.132812 88.632812 57.324219 C 88.394531 57.453125 88.210938 57.636719 88.082031 57.875 C 87.953125 58.117188 87.902344 58.371094 87.929688 58.644531 C 87.929688 58.929688 87.929688 59.210938 87.929688 59.503906 C 88.058594 59.570312 88.195312 59.625 88.332031 59.667969 C 88.691406 59.75 88.988281 59.933594 89.214844 60.222656 C 89.445312 60.511719 89.554688 60.839844 89.550781 61.210938 C 89.617188 61.851562 89.660156 62.488281 89.765625 63.117188 C 89.933594 64.03125 90.167969 64.933594 90.332031 65.84375 C 90.40625 66.34375 90.453125 66.847656 90.464844 67.355469 C 90.496094 67.972656 90.464844 68.601562 90.539062 69.207031 C 90.710938 70.414062 90.488281 71.539062 89.875 72.589844 C 89.527344 73.039062 89.414062 73.539062 89.535156 74.089844 C 89.558594 74.246094 89.539062 74.398438 89.472656 74.539062 C 89.277344 75.351562 88.902344 76.070312 88.34375 76.6875 C 88.070312 76.972656 87.933594 77.308594 87.929688 77.703125 C 87.890625 78.203125 87.773438 78.703125 87.6875 79.203125 C 87.601562 79.703125 87.511719 80.152344 87.433594 80.632812 C 87.386719 81.035156 87.457031 81.417969 87.648438 81.78125 C 87.761719 82.042969 87.824219 82.3125 87.835938 82.597656 C 87.847656 82.878906 87.8125 83.15625 87.722656 83.425781 C 87.632812 83.695312 87.5 83.941406 87.320312 84.160156 C 87.140625 84.382812 86.929688 84.5625 86.683594 84.707031 C 86.589844 84.765625 86.488281 84.8125 86.382812 84.847656 C 85.613281 85.128906 85.074219 85.652344 84.773438 86.414062 C 84.6875 86.570312 84.625 86.738281 84.546875 86.894531 C 84.304688 87.355469 84.007812 87.761719 83.40625 87.757812 C 83.140625 87.78125 82.882812 87.835938 82.632812 87.925781 C 82.300781 88.011719 82.242188 88.058594 81.988281 88.460938 C 82.238281 88.777344 82.546875 89.007812 82.917969 89.160156 C 83.523438 89.371094 83.929688 89.777344 84.136719 90.382812 C 84.292969 90.777344 84.445312 91.167969 84.582031 91.566406 C 84.703125 91.875 84.679688 92.171875 84.515625 92.457031 C 84.445312 92.601562 84.339844 92.710938 84.199219 92.789062 C 84.054688 92.863281 83.90625 92.886719 83.746094 92.859375 C 83.417969 92.804688 83.097656 92.722656 82.785156 92.617188 C 82.277344 92.386719 81.796875 92.429688 81.339844 92.746094 C 81.183594 92.828125 81.023438 92.894531 80.855469 92.953125 C 80.636719 93.089844 80.394531 93.160156 80.136719 93.167969 C 79.875 93.175781 79.632812 93.113281 79.40625 92.988281 C 79.199219 92.902344 78.984375 92.851562 78.761719 92.839844 C 78.3125 92.78125 77.910156 92.621094 77.546875 92.351562 L 77.496094 92.3125 C 76.539062 91.644531 75.757812 92.140625 75.496094 93.199219 C 75.433594 93.683594 75.195312 94.0625 74.789062 94.332031 C 74.652344 94.410156 74.511719 94.460938 74.359375 94.488281 C 74.195312 94.535156 74.050781 94.496094 73.933594 94.375 C 73.8125 94.257812 73.773438 94.113281 73.820312 93.949219 C 73.832031 93.792969 73.875 93.648438 73.949219 93.507812 C 74.296875 92.960938 74.335938 92.390625 74.066406 91.800781 C 73.929688 91.480469 73.847656 91.136719 73.722656 90.804688 C 73.722656 90.734375 73.613281 90.675781 73.507812 90.5625 C 73.421875 90.691406 73.351562 90.824219 73.292969 90.96875 C 73.082031 91.6875 73.09375 92.40625 73.332031 93.117188 C 73.519531 93.65625 73.445312 93.773438 72.917969 93.933594 C 72.6875 94.007812 72.449219 94.0625 72.210938 94.101562 C 71.566406 94.1875 71.273438 93.976562 71.136719 93.335938 L 71.082031 93.117188 C 70.898438 93.0625 70.714844 93.070312 70.535156 93.132812 C 70.355469 93.199219 70.210938 93.3125 70.105469 93.472656 C 69.804688 93.832031 69.421875 94.019531 68.957031 94.035156 C 68.578125 94.070312 68.207031 94.128906 67.839844 94.207031 C 67.390625 94.320312 66.957031 94.273438 66.542969 94.074219 C 66.089844 93.886719 65.617188 93.796875 65.125 93.804688 C 64.875 93.792969 64.65625 93.867188 64.464844 94.023438 C 64.019531 94.40625 63.511719 94.65625 62.933594 94.773438 C 62.726562 94.835938 62.503906 94.867188 62.296875 94.933594 C 61.859375 95.066406 61.796875 95.179688 61.914062 95.605469 C 62 95.925781 62.109375 96.238281 62.210938 96.554688 C 62.253906 96.675781 62.28125 96.796875 62.296875 96.925781 C 62.308594 97.050781 62.304688 97.179688 62.289062 97.304688 C 62.269531 97.429688 62.238281 97.550781 62.1875 97.671875 C 62.140625 97.789062 62.078125 97.898438 62 98 C 61.921875 98.101562 61.835938 98.195312 61.738281 98.273438 C 61.636719 98.355469 61.53125 98.421875 61.414062 98.472656 C 61.296875 98.527344 61.179688 98.566406 61.050781 98.589844 C 60.925781 98.613281 60.800781 98.621094 60.671875 98.613281 C 60.390625 98.613281 60.097656 98.613281 59.820312 98.613281 C 59.339844 98.65625 58.90625 98.53125 58.523438 98.234375 C 57.011719 98.648438 57.261719 98.488281 56.808594 99.71875 C 56.855469 99.792969 56.917969 99.875 56.972656 99.96875 C 57.050781 100.085938 57.097656 100.214844 57.117188 100.351562 C 57.132812 100.492188 57.117188 100.628906 57.070312 100.757812 C 57.019531 100.890625 56.945312 101.003906 56.84375 101.097656 C 56.738281 101.195312 56.621094 101.261719 56.484375 101.296875 C 56.230469 101.382812 55.976562 101.449219 55.714844 101.507812 L 54.96875 101.683594 C 54.921875 101.742188 54.882812 101.773438 54.875 101.8125 C 54.804688 102.152344 54.636719 102.425781 54.363281 102.636719 C 54.089844 102.847656 53.777344 102.945312 53.433594 102.925781 C 52.6875 102.988281 51.957031 103.191406 51.222656 103.3125 C 50.894531 103.367188 50.566406 103.386719 50.234375 103.371094 C 50.023438 103.378906 49.839844 103.320312 49.671875 103.191406 C 49.507812 103.0625 49.40625 102.898438 49.363281 102.695312 C 49.34375 102.480469 49.398438 102.285156 49.527344 102.113281 C 49.65625 101.941406 49.828125 101.835938 50.039062 101.796875 C 50.347656 101.679688 50.664062 101.578125 50.984375 101.496094 C 51.550781 101.335938 51.601562 101.257812 51.640625 100.59375 C 51.339844 100.488281 51.042969 100.496094 50.75 100.621094 C 50.398438 100.691406 50.066406 100.808594 49.71875 100.867188 C 49.503906 100.941406 49.296875 100.925781 49.09375 100.820312 C 48.894531 100.714844 48.765625 100.550781 48.707031 100.332031 C 48.589844 100.039062 48.378906 99.871094 48.070312 99.820312 C 47.8125 99.765625 47.53125 99.730469 47.285156 99.695312 C 47.203125 99.6875 47.121094 99.6875 47.039062 99.695312 C 46.898438 100.101562 46.90625 100.507812 47.050781 100.910156 C 47.199219 101.3125 47.457031 101.625 47.820312 101.84375 C 47.957031 101.921875 48.105469 101.96875 48.242188 102.050781 C 48.441406 102.144531 48.59375 102.292969 48.691406 102.496094 C 48.792969 102.695312 48.820312 102.902344 48.777344 103.125 C 48.535156 104.550781 47.945312 105.269531 46.566406 105.304688 C 45.996094 105.277344 45.457031 105.394531 44.953125 105.664062 C 44.945312 105.714844 44.945312 105.765625 44.953125 105.820312 C 45.066406 106.707031 44.796875 107.097656 43.9375 107.269531 C 43.71875 107.304688 43.5 107.320312 43.277344 107.316406 C 42.734375 107.304688 42.214844 107.398438 41.710938 107.601562 C 41.746094 107.730469 41.785156 107.828125 41.8125 107.933594 C 41.855469 108.027344 41.871094 108.128906 41.863281 108.230469 C 41.859375 108.332031 41.828125 108.425781 41.773438 108.515625 C 41.71875 108.601562 41.648438 108.671875 41.5625 108.722656 C 41.472656 108.777344 41.378906 108.804688 41.273438 108.8125 C 40.757812 108.964844 40.265625 108.914062 39.796875 108.648438 C 39.648438 108.574219 39.496094 108.507812 39.335938 108.457031 C 39.300781 108.972656 39.054688 109.355469 38.601562 109.605469 C 38.0625 109.847656 37.746094 109.375 37.289062 109.234375 C 37.207031 109.300781 37.128906 109.371094 37.054688 109.449219 C 36.898438 109.679688 36.683594 109.824219 36.410156 109.882812 C 36.136719 109.941406 35.882812 109.898438 35.644531 109.75 C 35.492188 109.675781 35.355469 109.558594 35.199219 109.464844 C 34.890625 109.277344 34.75 109.304688 34.546875 109.617188 C 34.394531 109.882812 34.230469 110.140625 34.050781 110.390625 C 33.886719 110.65625 33.65625 110.835938 33.359375 110.925781 C 33.058594 111.019531 32.769531 111 32.484375 110.875 C 32.101562 110.710938 31.902344 110.792969 31.71875 111.164062 C 31.570312 111.5 31.308594 111.675781 30.941406 111.699219 C 30.683594 111.761719 30.425781 111.808594 30.164062 111.84375 C 29.921875 111.871094 29.6875 111.84375 29.460938 111.769531 C 29.285156 111.726562 29.160156 111.625 29.078125 111.46875 C 28.996094 111.308594 28.988281 111.144531 29.054688 110.980469 C 29.109375 110.71875 29.203125 110.445312 29.238281 110.207031 C 29.277344 110.015625 29.25 109.832031 29.160156 109.65625 C 29.074219 109.484375 28.9375 109.355469 28.761719 109.273438 C 28.578125 109.167969 28.382812 109.140625 28.179688 109.183594 C 27.972656 109.230469 27.808594 109.335938 27.6875 109.507812 C 27.300781 109.964844 26.808594 110.21875 26.214844 110.273438 C 25.964844 110.332031 25.734375 110.296875 25.515625 110.160156 C 25.371094 110.042969 25.207031 109.96875 25.023438 109.925781 C 24.84375 109.886719 24.664062 109.890625 24.480469 109.929688 C 24.300781 109.972656 24.136719 110.050781 23.992188 110.167969 C 23.847656 110.285156 23.734375 110.425781 23.652344 110.59375 C 23.359375 110.972656 22.988281 111.238281 22.535156 111.394531 C 22.273438 111.511719 22.003906 111.609375 21.730469 111.695312 C 21.453125 111.816406 21.203125 111.773438 20.980469 111.570312 C 20.753906 111.367188 20.6875 111.125 20.78125 110.835938 C 20.945312 110.015625 21.316406 109.507812 22.105469 109.386719 C 22.300781 109.351562 22.492188 109.292969 22.6875 109.246094 C 23.085938 109.179688 23.371094 108.964844 23.539062 108.597656 C 23.695312 108.355469 23.894531 108.160156 24.136719 108.011719 C 24.464844 107.746094 24.804688 107.511719 25.140625 107.265625 L 25.140625 107.238281 Z M 25.140625 107.289062 " fill-opacity="1" fill-rule="nonzero"/></g><path fill="#000000" d="M 31.152344 111.234375 C 31.546875 110.492188 31.867188 110.320312 32.476562 110.480469 C 32.742188 110.59375 33.011719 110.597656 33.28125 110.492188 C 33.550781 110.390625 33.746094 110.207031 33.867188 109.945312 C 33.996094 109.734375 34.089844 109.503906 34.226562 109.308594 C 34.277344 109.222656 34.34375 109.148438 34.425781 109.085938 C 34.507812 109.027344 34.601562 108.984375 34.699219 108.964844 C 34.800781 108.941406 34.898438 108.945312 35 108.964844 C 35.097656 108.988281 35.1875 109.027344 35.269531 109.089844 C 35.441406 109.1875 35.597656 109.320312 35.773438 109.40625 C 35.917969 109.503906 36.078125 109.535156 36.246094 109.5 C 36.417969 109.46875 36.550781 109.382812 36.652344 109.242188 C 37.070312 108.792969 37.1875 108.769531 37.726562 109.042969 C 37.800781 109.085938 37.871094 109.144531 37.949219 109.179688 C 38.273438 109.335938 38.433594 109.304688 38.621094 109.015625 C 38.71875 108.84375 38.800781 108.664062 38.867188 108.476562 C 39.007812 108.148438 39.148438 108.058594 39.476562 108.140625 C 39.660156 108.203125 39.839844 108.277344 40.011719 108.371094 C 40.488281 108.582031 40.945312 108.550781 41.386719 108.277344 C 41.371094 108.171875 41.34375 108.070312 41.308594 107.96875 C 41.054688 107.429688 41.097656 107.265625 41.675781 107.144531 C 42.257812 107.027344 42.75 107.011719 43.289062 106.941406 C 43.53125 106.929688 43.765625 106.890625 43.996094 106.824219 C 44.085938 106.808594 44.167969 106.777344 44.246094 106.726562 C 44.320312 106.671875 44.378906 106.609375 44.425781 106.53125 C 44.46875 106.449219 44.496094 106.367188 44.503906 106.277344 C 44.511719 106.183594 44.496094 106.097656 44.464844 106.011719 C 44.359375 105.425781 44.582031 105.261719 45.035156 105.148438 C 45.546875 105.023438 46.070312 104.945312 46.597656 104.90625 C 46.949219 104.902344 47.269531 104.796875 47.550781 104.582031 C 47.835938 104.371094 48.027344 104.09375 48.128906 103.757812 C 48.40625 102.953125 48.414062 102.585938 47.558594 102.238281 C 47.144531 102 46.832031 101.664062 46.628906 101.226562 C 46.425781 100.792969 46.367188 100.339844 46.453125 99.867188 C 46.511719 99.589844 46.640625 99.332031 46.945312 99.332031 C 47.449219 99.371094 47.949219 99.449219 48.4375 99.566406 C 48.835938 99.652344 48.917969 100.050781 49.089844 100.351562 C 49.089844 100.390625 49.160156 100.410156 49.195312 100.441406 C 49.53125 100.566406 49.835938 100.382812 50.15625 100.332031 C 50.589844 100.238281 51.023438 100.175781 51.464844 100.136719 C 51.601562 100.109375 51.730469 100.140625 51.84375 100.226562 C 51.957031 100.316406 52.019531 100.429688 52.03125 100.570312 C 52.058594 100.855469 51.996094 101.117188 51.84375 101.355469 C 51.691406 101.59375 51.480469 101.757812 51.210938 101.851562 C 50.980469 101.925781 50.738281 101.96875 50.511719 102.050781 C 50.324219 102.101562 50.144531 102.179688 49.976562 102.28125 C 49.835938 102.34375 49.769531 102.457031 49.785156 102.609375 C 49.796875 102.765625 49.878906 102.863281 50.027344 102.902344 C 50.148438 102.960938 50.277344 102.988281 50.410156 102.996094 C 50.675781 102.984375 50.9375 102.960938 51.199219 102.917969 C 51.960938 102.800781 52.71875 102.625 53.488281 102.554688 C 53.988281 102.503906 54.339844 102.351562 54.453125 101.839844 C 54.484375 101.683594 54.558594 101.550781 54.675781 101.441406 C 54.792969 101.335938 54.933594 101.277344 55.09375 101.265625 C 55.507812 101.1875 55.917969 101.089844 56.316406 100.976562 C 56.671875 100.871094 56.855469 100.511719 56.679688 100.269531 C 56.300781 99.816406 56.488281 99.402344 56.679688 98.972656 C 56.773438 98.765625 56.902344 98.585938 57.066406 98.429688 C 57.226562 98.277344 57.414062 98.15625 57.621094 98.070312 C 57.832031 97.984375 58.046875 97.941406 58.273438 97.941406 C 58.5 97.9375 58.71875 97.976562 58.929688 98.058594 C 59.324219 98.214844 59.738281 98.273438 60.164062 98.230469 C 60.382812 98.230469 60.605469 98.191406 60.824219 98.183594 C 61.003906 98.1875 61.175781 98.152344 61.335938 98.074219 C 61.496094 97.992188 61.628906 97.878906 61.734375 97.734375 C 61.839844 97.585938 61.902344 97.425781 61.925781 97.246094 C 61.949219 97.066406 61.929688 96.894531 61.867188 96.726562 C 61.753906 96.34375 61.613281 95.976562 61.515625 95.589844 C 61.472656 95.488281 61.453125 95.382812 61.457031 95.273438 C 61.460938 95.164062 61.488281 95.0625 61.542969 94.96875 C 61.59375 94.871094 61.664062 94.792969 61.757812 94.730469 C 61.847656 94.667969 61.945312 94.632812 62.054688 94.617188 C 62.429688 94.488281 62.816406 94.386719 63.199219 94.277344 C 63.597656 94.203125 63.945312 94.023438 64.234375 93.742188 C 64.480469 93.480469 64.78125 93.371094 65.136719 93.414062 C 65.691406 93.414062 66.230469 93.511719 66.746094 93.707031 C 67.035156 93.824219 67.335938 93.867188 67.644531 93.835938 C 68.128906 93.804688 68.605469 93.691406 69.085938 93.628906 C 69.378906 93.589844 69.628906 93.464844 69.835938 93.25 C 70.054688 93.035156 70.308594 92.867188 70.59375 92.753906 C 71.195312 92.527344 71.4375 92.6875 71.574219 93.289062 C 71.65625 93.648438 71.757812 93.746094 72.113281 93.703125 C 72.46875 93.660156 72.710938 93.585938 73.046875 93.515625 C 72.984375 93.285156 72.941406 93.117188 72.898438 92.976562 C 72.714844 92.207031 72.746094 91.445312 72.988281 90.691406 C 73.042969 90.414062 73.210938 90.257812 73.488281 90.21875 C 73.613281 90.195312 73.730469 90.214844 73.84375 90.277344 C 73.953125 90.339844 74.03125 90.433594 74.078125 90.550781 C 74.546875 91.566406 74.96875 92.585938 74.367188 93.703125 C 74.335938 93.828125 74.324219 93.957031 74.335938 94.085938 C 74.539062 94.050781 74.710938 93.957031 74.851562 93.800781 C 74.992188 93.648438 75.066406 93.46875 75.082031 93.261719 C 75.152344 92.792969 75.359375 92.394531 75.707031 92.066406 C 75.867188 91.84375 76.082031 91.695312 76.347656 91.625 C 76.613281 91.554688 76.871094 91.574219 77.125 91.6875 C 77.335938 91.753906 77.53125 91.851562 77.714844 91.972656 C 78.054688 92.230469 78.4375 92.386719 78.863281 92.441406 C 79.089844 92.449219 79.304688 92.5 79.507812 92.589844 C 79.953125 92.835938 80.390625 92.820312 80.820312 92.546875 C 80.945312 92.507812 81.066406 92.457031 81.183594 92.394531 C 81.46875 92.210938 81.78125 92.113281 82.121094 92.09375 C 82.460938 92.074219 82.78125 92.140625 83.085938 92.289062 C 83.292969 92.375 83.503906 92.429688 83.722656 92.457031 C 83.8125 92.472656 83.898438 92.464844 83.984375 92.433594 C 84.070312 92.40625 84.140625 92.355469 84.199219 92.285156 C 84.257812 92.21875 84.292969 92.140625 84.308594 92.050781 C 84.324219 91.960938 84.320312 91.875 84.289062 91.792969 C 84.164062 91.386719 83.992188 91.007812 83.847656 90.609375 C 83.65625 90.078125 83.296875 89.707031 82.773438 89.492188 C 82.476562 89.34375 82.207031 89.15625 81.960938 88.929688 C 81.484375 88.519531 81.511719 88.160156 82.027344 87.816406 C 82.191406 87.703125 82.371094 87.617188 82.5625 87.558594 C 82.988281 87.433594 83.417969 87.34375 83.902344 87.230469 C 84.050781 87.003906 84.183594 86.765625 84.300781 86.523438 C 84.675781 85.515625 85.363281 84.8125 86.363281 84.410156 C 86.59375 84.3125 86.796875 84.171875 86.96875 83.988281 C 87.144531 83.804688 87.273438 83.59375 87.363281 83.355469 C 87.449219 83.121094 87.488281 82.875 87.476562 82.621094 C 87.464844 82.371094 87.402344 82.128906 87.289062 81.902344 C 87.089844 81.523438 87.007812 81.121094 87.050781 80.695312 C 87.109375 80.210938 87.183594 79.734375 87.269531 79.261719 C 87.394531 78.859375 87.480469 78.449219 87.527344 78.03125 C 87.542969 77.300781 87.800781 76.664062 88.292969 76.125 C 88.925781 75.429688 89.199219 74.617188 89.117188 73.679688 C 89.105469 73.4375 89.148438 73.203125 89.246094 72.976562 C 89.347656 72.730469 89.464844 72.496094 89.605469 72.269531 C 90.117188 71.351562 90.292969 70.371094 90.140625 69.332031 C 90.0625 68.761719 90.03125 68.1875 90.050781 67.613281 C 90.078125 66.902344 90.011719 66.199219 89.847656 65.507812 C 89.472656 64.097656 89.234375 62.664062 89.132812 61.210938 C 89.152344 60.929688 89.070312 60.679688 88.894531 60.460938 C 88.714844 60.246094 88.488281 60.117188 88.207031 60.078125 C 87.886719 60.027344 87.675781 59.847656 87.570312 59.539062 C 87.433594 59.101562 87.429688 58.65625 87.558594 58.214844 C 87.6875 57.773438 87.925781 57.402344 88.277344 57.101562 C 88.566406 56.925781 88.789062 56.6875 88.949219 56.386719 C 89.105469 56.085938 89.171875 55.765625 89.152344 55.425781 C 89.125 55.027344 89.253906 54.6875 89.539062 54.410156 C 89.703125 54.269531 89.808594 54.089844 89.855469 53.878906 C 89.902344 53.664062 89.882812 53.460938 89.792969 53.261719 C 89.734375 53.09375 89.710938 52.917969 89.667969 52.726562 C 89.578125 52.097656 89.304688 51.558594 88.851562 51.113281 C 88.601562 50.90625 88.398438 50.636719 88.160156 50.40625 C 87.8125 50.078125 87.585938 49.679688 87.476562 49.210938 C 87.347656 48.644531 87.347656 48.074219 87.476562 47.503906 C 87.589844 47.09375 87.605469 46.679688 87.53125 46.257812 C 87.429688 45.765625 87.359375 45.261719 87.289062 44.761719 C 87.269531 44.453125 87.148438 44.1875 86.933594 43.96875 C 86.71875 43.746094 86.457031 43.621094 86.152344 43.589844 C 85.800781 43.539062 85.503906 43.382812 85.261719 43.121094 C 85.019531 42.863281 84.886719 42.554688 84.863281 42.199219 C 84.835938 41.515625 85 40.882812 85.355469 40.296875 C 85.796875 39.597656 86.199219 39.566406 86.757812 40.191406 L 86.800781 40.238281 C 87.011719 40.457031 87.179688 40.773438 87.519531 40.773438 C 87.96875 40.839844 88.402344 40.785156 88.820312 40.613281 C 89.0625 40.515625 89.171875 40.335938 89.152344 40.078125 C 89.167969 39.894531 89.128906 39.726562 89.039062 39.566406 C 88.945312 39.410156 88.820312 39.292969 88.65625 39.210938 C 88.226562 39 87.894531 38.683594 87.65625 38.265625 C 87.53125 38.042969 87.441406 37.800781 87.65625 37.589844 C 87.847656 37.320312 88.101562 37.226562 88.421875 37.3125 C 88.9375 37.425781 89.359375 37.6875 89.691406 38.101562 C 89.902344 38.414062 90.078125 38.738281 90.265625 39.0625 L 90.625 39.664062 C 91.292969 39.253906 91.882812 38.902344 92.054688 38.128906 C 92.117188 37.769531 92.261719 37.449219 92.496094 37.171875 C 92.726562 36.890625 93.007812 36.683594 93.347656 36.554688 C 93.527344 36.503906 93.6875 36.421875 93.832031 36.304688 C 93.980469 36.191406 94.097656 36.054688 94.1875 35.890625 C 94.277344 35.730469 94.335938 35.558594 94.355469 35.375 C 94.378906 35.191406 94.363281 35.007812 94.316406 34.828125 C 94.316406 34.65625 94.257812 34.480469 94.234375 34.292969 C 94.207031 34.03125 94.164062 33.757812 94.160156 33.5 C 94.144531 33.363281 94.160156 33.230469 94.207031 33.105469 C 94.253906 32.976562 94.328125 32.867188 94.425781 32.773438 C 94.523438 32.679688 94.640625 32.613281 94.769531 32.574219 C 94.898438 32.535156 95.03125 32.527344 95.164062 32.546875 C 96.066406 32.589844 96.972656 32.605469 97.847656 32.699219 C 98.082031 32.742188 98.304688 32.703125 98.507812 32.582031 C 98.714844 32.460938 98.851562 32.285156 98.921875 32.058594 C 99.09375 31.605469 99.234375 31.140625 99.347656 30.667969 C 99.375 30.441406 99.375 30.214844 99.347656 29.984375 C 99.027344 29.851562 98.738281 29.898438 98.472656 30.121094 C 98.1875 30.292969 97.871094 30.515625 97.558594 30.265625 C 97.246094 30.011719 97.300781 29.632812 97.402344 29.28125 C 97.503906 28.933594 97.644531 28.476562 97.796875 28.085938 C 98.027344 27.554688 97.984375 27.050781 97.671875 26.566406 C 97.46875 26.222656 97.300781 25.867188 97.171875 25.492188 C 97.082031 25.214844 97.046875 24.933594 97.066406 24.648438 C 97.09375 24.417969 97.191406 24.226562 97.367188 24.074219 C 97.539062 23.921875 97.742188 23.84375 97.972656 23.847656 C 98.382812 23.847656 98.605469 24.03125 98.730469 24.527344 C 98.800781 24.785156 98.847656 25.046875 98.875 25.3125 C 98.9375 26.019531 99.207031 26.636719 99.6875 27.160156 C 100.007812 27.503906 100.152344 27.910156 100.117188 28.378906 C 100.117188 28.558594 100.117188 28.734375 100.117188 28.917969 C 100.117188 29.097656 100.203125 29.335938 100.433594 29.339844 C 100.664062 29.347656 100.769531 29.132812 100.769531 28.921875 C 100.777344 28.613281 100.761719 28.308594 100.722656 28.003906 C 100.664062 27.570312 100.589844 27.128906 100.503906 26.699219 C 100.425781 26.132812 100.289062 25.578125 100.097656 25.039062 C 99.714844 24.277344 99.523438 23.46875 99.523438 22.617188 C 99.558594 22.007812 99.382812 21.472656 98.988281 21.007812 C 98.230469 20.125 97.597656 20.054688 96.726562 20.785156 C 96.125 21.289062 95.496094 21.757812 94.839844 22.191406 C 94.660156 22.332031 94.457031 22.410156 94.226562 22.429688 C 94 22.445312 93.785156 22.398438 93.585938 22.289062 C 93.507812 22.261719 93.445312 22.222656 93.386719 22.164062 C 93.332031 22.105469 93.292969 22.039062 93.269531 21.964844 C 93.246094 21.886719 93.242188 21.808594 93.253906 21.730469 C 93.269531 21.652344 93.300781 21.578125 93.347656 21.515625 C 93.75 20.871094 94.164062 20.234375 95.054688 20.222656 C 95.167969 20.21875 95.277344 20.195312 95.378906 20.148438 C 95.964844 19.890625 96.601562 19.65625 96.894531 19.039062 C 97.234375 18.363281 97.410156 17.648438 97.429688 16.890625 C 97.441406 16.46875 97.378906 16.054688 97.238281 15.65625 C 97.144531 15.78125 97.058594 15.910156 96.980469 16.042969 C 96.816406 16.359375 96.671875 16.675781 96.515625 17 C 96.421875 17.199219 96.335938 17.441406 96.066406 17.414062 C 95.796875 17.386719 95.742188 17.164062 95.691406 16.933594 C 95.582031 16.484375 95.441406 16.042969 95.320312 15.59375 C 95.15625 15.007812 94.871094 14.492188 94.460938 14.046875 C 94.308594 13.882812 94.167969 13.714844 94.035156 13.535156 C 93.726562 13.089844 93.328125 12.753906 92.839844 12.519531 C 92.109375 12.175781 91.972656 11.671875 92.359375 10.957031 C 92.425781 10.832031 92.472656 10.699219 92.570312 10.472656 L 91.640625 10.472656 C 91 10.472656 90.675781 10.164062 90.71875 9.550781 C 90.75 9.308594 90.8125 9.074219 90.910156 8.851562 C 91.023438 8.566406 91.210938 8.316406 91.300781 8.015625 C 91.445312 7.621094 91.53125 7.214844 91.558594 6.796875 C 91.558594 6.058594 91.023438 5.597656 90.484375 5.183594 C 90.273438 5.046875 90.042969 4.988281 89.792969 5.003906 C 89.542969 5.019531 89.320312 5.109375 89.128906 5.269531 C 88.925781 5.402344 88.703125 5.457031 88.464844 5.4375 C 88.222656 5.417969 88.015625 5.324219 87.839844 5.15625 C 87.601562 4.957031 87.351562 4.769531 87.097656 4.621094 C 86.46875 4.152344 85.773438 4.011719 85.011719 4.199219 C 84.097656 4.460938 83.199219 4.78125 82.328125 5.164062 C 81.9375 5.371094 81.566406 5.609375 81.210938 5.871094 C 80.710938 6.214844 80.164062 6.433594 79.566406 6.535156 C 78.96875 6.632812 78.378906 6.601562 77.796875 6.441406 C 77.34375 6.339844 76.882812 6.300781 76.421875 6.328125 C 76.21875 6.34375 76.050781 6.429688 75.914062 6.582031 C 75.738281 6.777344 75.648438 7.003906 75.640625 7.269531 C 75.632812 7.53125 75.710938 7.765625 75.878906 7.972656 C 75.960938 8.074219 76.027344 8.1875 76.082031 8.308594 C 76.144531 8.40625 76.179688 8.511719 76.191406 8.628906 C 76.203125 8.742188 76.183594 8.855469 76.140625 8.960938 C 76.097656 9.066406 76.03125 9.160156 75.941406 9.234375 C 75.855469 9.308594 75.753906 9.359375 75.640625 9.382812 C 75.257812 9.542969 74.867188 9.558594 74.472656 9.433594 C 73.957031 9.230469 73.441406 9.230469 72.925781 9.433594 C 72.75 9.503906 72.574219 9.507812 72.398438 9.441406 C 72.222656 9.378906 72.089844 9.265625 72 9.097656 C 71.886719 8.953125 71.835938 8.785156 71.851562 8.601562 C 71.863281 8.414062 71.9375 8.257812 72.070312 8.128906 C 72.375 7.691406 72.707031 7.28125 73.070312 6.890625 C 73.714844 6.164062 74.503906 5.652344 75.433594 5.355469 C 75.710938 5.277344 75.96875 5.160156 76.210938 5 C 76.457031 4.886719 76.585938 4.691406 76.601562 4.421875 C 76.617188 4.148438 76.511719 3.941406 76.28125 3.796875 C 76.03125 3.582031 75.742188 3.496094 75.414062 3.546875 C 75.21875 3.574219 75.023438 3.613281 74.832031 3.667969 C 74.601562 3.738281 74.371094 3.734375 74.144531 3.660156 C 73.917969 3.589844 73.730469 3.457031 73.585938 3.265625 C 73.203125 2.832031 72.84375 2.386719 72.460938 1.960938 C 72.152344 1.617188 71.824219 1.285156 71.484375 0.96875 C 71.3125 0.808594 71.121094 0.628906 70.839844 0.730469 C 70.722656 1.074219 70.726562 1.070312 70.839844 1.316406 C 70.957031 1.503906 71.046875 1.703125 71.109375 1.914062 C 71.167969 2.089844 71.132812 2.246094 71.003906 2.382812 C 70.875 2.515625 70.71875 2.558594 70.539062 2.503906 C 70.328125 2.445312 70.132812 2.347656 69.960938 2.214844 C 69.535156 1.925781 69.421875 1.933594 69.09375 2.355469 C 69.050781 2.40625 69.023438 2.472656 68.988281 2.527344 C 68.648438 2.976562 68.519531 3.015625 67.972656 2.835938 L 67.503906 2.703125 C 67.34375 2.921875 67.257812 3.167969 67.246094 3.441406 C 67.234375 3.714844 67.300781 3.96875 67.445312 4.199219 C 67.753906 4.785156 68.054688 5.382812 68.316406 5.988281 C 68.605469 6.585938 68.617188 7.1875 68.359375 7.792969 C 67.980469 8.71875 67.492188 9.582031 66.886719 10.378906 C 66.742188 10.578125 66.574219 10.753906 66.382812 10.914062 C 66.328125 10.972656 66.261719 11.015625 66.183594 11.039062 C 66.109375 11.0625 66.03125 11.066406 65.949219 11.050781 C 65.871094 11.03125 65.804688 10.996094 65.742188 10.945312 C 65.683594 10.890625 65.640625 10.824219 65.613281 10.746094 C 65.480469 10.46875 65.382812 10.179688 65.320312 9.878906 C 65.082031 8.917969 65.226562 8.589844 66.078125 8.089844 C 66.117188 8.070312 66.152344 8.046875 66.1875 8.019531 C 66.726562 7.65625 67.011719 6.441406 66.238281 6.039062 C 66.0625 5.953125 65.929688 5.824219 65.84375 5.648438 C 65.753906 5.472656 65.726562 5.289062 65.765625 5.097656 C 65.800781 4.703125 65.875 4.3125 65.984375 3.933594 C 66.066406 3.632812 66.214844 3.359375 66.292969 3.058594 C 66.367188 2.757812 66.292969 2.570312 65.996094 2.488281 C 65.601562 2.328125 65.214844 2.339844 64.835938 2.53125 C 64.382812 2.816406 63.878906 3.066406 63.722656 3.632812 C 64.179688 3.933594 64.597656 4.167969 64.976562 4.476562 C 65.203125 4.640625 65.375 4.851562 65.492188 5.109375 C 65.605469 5.367188 65.648438 5.636719 65.621094 5.917969 C 65.570312 6.601562 65.253906 6.992188 64.632812 6.992188 C 64.496094 7.019531 64.359375 7.011719 64.226562 6.976562 C 64.09375 6.941406 63.972656 6.882812 63.863281 6.792969 C 63.757812 6.707031 63.675781 6.601562 63.613281 6.476562 C 63.554688 6.351562 63.523438 6.21875 63.519531 6.082031 C 63.546875 5.6875 63.445312 5.328125 63.214844 5.007812 C 63.085938 5.042969 62.964844 5.085938 62.84375 5.140625 C 62.65625 5.238281 62.476562 5.507812 62.273438 5.3125 C 62.148438 5.132812 62.089844 4.933594 62.097656 4.714844 C 62.097656 4.515625 62.113281 4.316406 62.144531 4.121094 C 62.175781 3.855469 62.1875 3.589844 62.183594 3.324219 C 62.15625 3.203125 62.109375 3.085938 62.042969 2.976562 C 61.902344 3.089844 61.808594 3.238281 61.765625 3.414062 C 61.722656 3.59375 61.734375 3.765625 61.808594 3.933594 C 61.9375 4.433594 61.84375 4.894531 61.53125 5.308594 C 61.503906 5.375 61.460938 5.433594 61.398438 5.480469 C 61.339844 5.523438 61.273438 5.550781 61.199219 5.5625 C 61.125 5.570312 61.054688 5.558594 60.984375 5.53125 C 60.914062 5.503906 60.859375 5.457031 60.8125 5.398438 C 60.5 5.140625 60.25 4.828125 60.0625 4.46875 C 60.027344 4.371094 59.976562 4.285156 59.910156 4.210938 C 59.839844 4.136719 59.757812 4.078125 59.664062 4.039062 C 59.570312 4 59.472656 3.980469 59.371094 3.980469 C 59.269531 3.984375 59.171875 4.007812 59.078125 4.050781 C 58.859375 4.078125 58.679688 4.179688 58.542969 4.355469 C 58.410156 4.535156 58.355469 4.734375 58.386719 4.953125 C 58.386719 5.039062 58.386719 5.128906 58.386719 5.214844 C 58.351562 5.574219 58.199219 5.753906 57.847656 5.753906 C 57.539062 5.734375 57.234375 5.703125 56.929688 5.652344 C 56.472656 5.582031 56.007812 5.542969 55.542969 5.542969 C 54.507812 5.632812 53.597656 6.019531 52.816406 6.710938 C 53.101562 7.074219 53.359375 7.457031 53.589844 7.859375 C 54.007812 8.703125 53.757812 9.304688 52.902344 9.667969 C 52.675781 9.765625 52.441406 9.835938 52.226562 9.949219 C 51.867188 10.074219 51.671875 10.328125 51.636719 10.707031 C 51.605469 11.085938 51.75 11.367188 52.082031 11.558594 C 52.269531 11.703125 52.449219 11.863281 52.617188 12.03125 C 52.886719 12.300781 53.042969 12.621094 53.089844 12.996094 C 53.140625 13.371094 53.066406 13.722656 52.875 14.050781 C 52.769531 14.269531 52.644531 14.476562 52.503906 14.675781 C 52.433594 14.828125 52.316406 14.925781 52.15625 14.96875 C 51.992188 15.015625 51.84375 14.988281 51.703125 14.890625 C 51.539062 14.820312 51.386719 14.722656 51.222656 14.667969 C 51.101562 14.628906 50.984375 14.632812 50.867188 14.6875 C 50.753906 14.738281 50.671875 14.824219 50.625 14.941406 C 50.519531 15.183594 50.664062 15.3125 50.839844 15.429688 C 51.015625 15.550781 51.300781 15.699219 51.511719 15.855469 C 51.800781 15.996094 51.953125 16.230469 51.960938 16.554688 C 51.796875 16.667969 51.621094 16.746094 51.425781 16.789062 C 50.613281 16.789062 49.8125 16.988281 48.988281 16.714844 C 48.898438 16.699219 48.8125 16.699219 48.722656 16.714844 C 47.53125 16.742188 46.457031 17.113281 45.5 17.832031 C 45.050781 18.164062 45.019531 18.367188 45.320312 18.839844 C 45.660156 19.4375 46.136719 19.882812 46.75 20.183594 C 47.363281 20.488281 48.007812 20.589844 48.6875 20.496094 C 49.058594 20.449219 49.425781 20.382812 49.792969 20.296875 C 50.527344 20.140625 51.265625 19.976562 52 19.828125 C 52.253906 19.769531 52.503906 19.789062 52.75 19.886719 C 52.992188 19.984375 53.183594 20.144531 53.328125 20.367188 C 53.476562 20.566406 53.671875 20.742188 53.863281 20.953125 C 54.347656 20.707031 54.777344 20.480469 55.210938 20.277344 C 55.519531 20.089844 55.828125 20.09375 56.132812 20.289062 C 56.4375 20.484375 56.570312 20.757812 56.53125 21.117188 C 56.546875 21.363281 56.519531 21.601562 56.449219 21.832031 C 56.378906 22.066406 56.269531 22.28125 56.121094 22.472656 C 55.972656 22.667969 55.796875 22.828125 55.589844 22.960938 C 55.382812 23.089844 55.160156 23.179688 54.921875 23.230469 C 54.640625 23.261719 54.421875 23.390625 54.261719 23.625 C 54.121094 23.875 54.335938 24.035156 54.402344 24.238281 C 54.523438 24.613281 54.433594 24.855469 54.046875 24.949219 C 53.679688 25.039062 53.308594 25.070312 52.933594 25.039062 C 52.378906 24.957031 51.878906 25.082031 51.429688 25.421875 C 50.941406 25.835938 50.480469 26.277344 50.039062 26.742188 C 49.984375 26.8125 49.949219 26.890625 49.933594 26.976562 C 49.792969 27.472656 49.796875 27.515625 49.296875 27.515625 C 49.058594 27.492188 48.839844 27.546875 48.640625 27.679688 C 48.441406 27.808594 48.300781 27.988281 48.222656 28.214844 L 49.261719 28.214844 C 49.765625 28.214844 49.96875 28.539062 49.675781 28.949219 C 49.421875 29.277344 49.363281 29.632812 49.503906 30.023438 C 49.515625 30.140625 49.515625 30.257812 49.503906 30.378906 C 49.296875 30.410156 49.132812 30.441406 48.964844 30.453125 C 48.402344 30.496094 48.34375 30.550781 48.222656 31.179688 C 48.347656 31.261719 48.457031 31.363281 48.550781 31.480469 C 48.695312 31.675781 48.785156 31.890625 48.824219 32.128906 C 48.867188 32.664062 48.535156 32.914062 48.027344 32.71875 C 47.503906 32.597656 47.144531 32.285156 46.953125 31.785156 C 46.894531 31.585938 46.78125 31.425781 46.609375 31.308594 C 46.433594 31.191406 46.246094 31.144531 46.039062 31.167969 C 45.582031 31.128906 45.125 31.125 44.667969 31.160156 C 44.03125 31.238281 43.390625 31.25 42.75 31.199219 C 42.160156 31.199219 41.714844 31 41.613281 30.34375 C 41.601562 30.277344 41.578125 30.214844 41.542969 30.15625 C 41.511719 30.054688 41.460938 29.964844 41.390625 29.882812 C 41.320312 29.800781 41.238281 29.738281 41.140625 29.695312 C 41.046875 29.648438 40.941406 29.625 40.835938 29.621094 C 40.730469 29.621094 40.625 29.636719 40.527344 29.679688 C 40.167969 29.78125 39.855469 29.960938 39.585938 30.222656 C 39.320312 30.480469 39.128906 30.789062 39.019531 31.144531 C 38.9375 31.445312 38.875 31.746094 38.773438 32.039062 C 38.734375 32.230469 38.636719 32.386719 38.476562 32.507812 C 38.320312 32.628906 38.140625 32.679688 37.945312 32.664062 C 37.726562 32.683594 37.527344 32.628906 37.347656 32.5 C 37.167969 32.367188 37.058594 32.195312 37.011719 31.976562 C 36.945312 31.746094 36.933594 31.5 36.882812 31.265625 C 36.820312 30.9375 36.730469 30.621094 36.613281 30.3125 C 36.421875 29.953125 36.144531 29.679688 35.78125 29.492188 C 35.414062 29.304688 35.03125 29.242188 34.625 29.296875 C 33.585938 29.578125 32.613281 29.425781 31.710938 28.839844 C 31.546875 28.734375 31.367188 28.675781 31.171875 28.660156 C 30.054688 28.679688 29.058594 28.34375 28.179688 27.65625 C 27.960938 27.742188 27.714844 27.820312 27.472656 27.921875 C 27.363281 27.964844 27.289062 28.039062 27.238281 28.140625 C 27.191406 28.246094 27.1875 28.351562 27.226562 28.460938 C 27.382812 29.234375 27.375 29.234375 26.714844 29.597656 C 26.605469 29.671875 26.484375 29.726562 26.355469 29.761719 C 26.035156 29.804688 25.835938 29.984375 25.753906 30.296875 C 25.710938 30.386719 25.65625 30.46875 25.59375 30.542969 C 25.28125 30.59375 25.152344 30.398438 25.054688 30.210938 C 24.957031 30.023438 24.867188 29.808594 24.761719 29.613281 C 24.59375 29.246094 24.308594 29.050781 23.902344 29.035156 C 23.5 29.015625 23.199219 29.183594 23 29.535156 C 22.859375 29.761719 22.78125 30.011719 22.757812 30.277344 C 22.722656 30.78125 22.757812 31.285156 22.757812 31.796875 C 22.859375 31.714844 22.957031 31.625 23.046875 31.53125 C 23.238281 31.316406 23.417969 31.09375 23.582031 30.882812 C 23.703125 30.75 23.839844 30.640625 23.992188 30.550781 C 24.355469 30.355469 24.613281 30.492188 24.632812 30.894531 C 24.652344 31.203125 24.628906 31.507812 24.5625 31.8125 C 24.378906 32.542969 24.160156 33.257812 23.949219 33.960938 C 23.867188 34.226562 23.695312 34.496094 23.863281 34.808594 C 23.988281 34.8125 24.113281 34.796875 24.234375 34.761719 C 24.476562 34.652344 24.695312 34.492188 24.9375 34.390625 C 25.375 34.179688 25.824219 34 26.285156 33.851562 C 26.660156 33.746094 26.886719 33.980469 26.824219 34.390625 C 26.800781 34.542969 26.753906 34.6875 26.683594 34.824219 C 26.542969 35.105469 26.386719 35.363281 26.238281 35.640625 C 25.882812 36.257812 25.882812 36.457031 26.355469 37 C 26.734375 37.4375 26.933594 37.945312 26.945312 38.523438 C 26.984375 39.109375 26.800781 39.277344 26.199219 39.210938 C 25.921875 39.210938 25.664062 39.117188 25.339844 39.0625 C 25.125 39.632812 24.839844 40.136719 24.691406 40.671875 C 25.5 40.859375 26.28125 40.769531 27.027344 40.40625 C 27.742188 39.980469 28.515625 40.109375 29.28125 40.152344 C 29.4375 40.191406 29.5625 40.273438 29.65625 40.398438 C 29.859375 40.613281 30.097656 40.761719 30.378906 40.84375 C 30.816406 40.996094 30.914062 41.246094 30.851562 41.726562 C 30.832031 41.835938 30.804688 41.941406 30.769531 42.046875 C 30.613281 42.546875 30.453125 43.046875 30.28125 43.574219 C 30.003906 43.707031 29.71875 43.730469 29.425781 43.636719 C 28.085938 43.421875 26.800781 43.613281 25.582031 44.210938 C 25.171875 44.347656 24.929688 44.625 24.855469 45.050781 C 25.457031 45.449219 25.394531 46.03125 25.238281 46.660156 C 25.183594 46.875 25.144531 47.09375 25.121094 47.3125 C 25.0625 47.554688 25.136719 47.753906 25.335938 47.90625 C 25.789062 47.703125 26.253906 47.667969 26.730469 47.804688 C 27.003906 47.882812 27.28125 47.933594 27.5625 47.964844 C 27.710938 47.976562 27.832031 48.039062 27.921875 48.152344 C 28.011719 48.269531 28.046875 48.402344 28.019531 48.546875 C 28.027344 48.769531 27.953125 48.960938 27.800781 49.121094 C 27.648438 49.28125 27.460938 49.367188 27.242188 49.375 C 27.0625 49.394531 26.882812 49.394531 26.703125 49.375 C 25.617188 49.320312 24.59375 49.03125 23.636719 48.507812 C 23.378906 48.371094 23.109375 48.324219 22.820312 48.371094 C 22.53125 48.414062 22.285156 48.542969 22.085938 48.757812 C 22.320312 48.875 22.550781 49.003906 22.765625 49.152344 C 22.96875 49.28125 23.132812 49.449219 23.257812 49.652344 C 23.359375 49.835938 23.34375 50.011719 23.21875 50.179688 C 23.089844 50.347656 22.921875 50.40625 22.71875 50.355469 C 22.472656 50.324219 22.242188 50.242188 22.027344 50.121094 C 21.359375 49.792969 20.671875 49.742188 19.964844 49.960938 C 19.792969 49.988281 19.644531 50.070312 19.527344 50.199219 C 19.410156 50.332031 19.34375 50.484375 19.332031 50.65625 C 19.421875 50.71875 19.519531 50.773438 19.621094 50.824219 C 20 50.996094 20.382812 51.171875 20.769531 51.324219 C 21.058594 51.429688 21.367188 51.488281 21.65625 51.597656 C 21.949219 51.675781 22.117188 51.863281 22.15625 52.167969 C 22.160156 52.449219 22.03125 52.636719 21.769531 52.734375 C 21.40625 52.9375 21.03125 53.113281 20.644531 53.273438 C 20.222656 53.421875 19.875 53.675781 19.605469 54.03125 C 19.882812 54.246094 20.195312 54.375 20.542969 54.417969 C 20.890625 54.457031 21.226562 54.410156 21.546875 54.265625 C 21.855469 54.125 22.175781 54.070312 22.515625 54.109375 C 22.851562 54.144531 23.152344 54.265625 23.421875 54.46875 C 23.539062 54.550781 23.648438 54.640625 23.753906 54.734375 C 24.023438 54.578125 24.292969 54.40625 24.550781 54.265625 C 24.863281 54.097656 25.183594 53.953125 25.515625 53.835938 C 25.667969 53.773438 25.820312 53.769531 25.976562 53.828125 C 26.128906 53.882812 26.242188 53.984375 26.316406 54.132812 C 26.394531 54.273438 26.417969 54.425781 26.382812 54.582031 C 26.34375 54.742188 26.261719 54.871094 26.128906 54.964844 C 25.980469 55.097656 25.820312 55.210938 25.644531 55.308594 C 25.285156 55.527344 24.921875 55.734375 24.570312 55.953125 C 24.351562 56.085938 24.125 56.238281 24.132812 56.539062 C 24.5625 56.808594 24.667969 56.855469 25.128906 56.695312 C 25.242188 56.632812 25.359375 56.59375 25.488281 56.578125 C 25.613281 56.566406 25.738281 56.578125 25.859375 56.613281 C 25.980469 56.648438 26.09375 56.707031 26.191406 56.785156 C 26.289062 56.867188 26.371094 56.964844 26.429688 57.074219 C 26.609375 56.925781 26.777344 56.761719 26.925781 56.582031 C 27.125 56.234375 27.304688 55.875 27.460938 55.507812 C 27.660156 55.082031 27.714844 55.027344 28.152344 55.046875 C 28.308594 55.050781 28.464844 55.066406 28.617188 55.09375 C 29.210938 55.207031 29.410156 55.5 29.269531 56.085938 C 29.167969 56.59375 28.960938 57.050781 28.648438 57.460938 C 28.515625 57.632812 28.390625 57.8125 28.277344 58 C 28.367188 58.296875 28.558594 58.496094 28.851562 58.59375 C 29.042969 58.667969 29.191406 58.796875 29.292969 58.972656 C 29.390625 59.152344 29.425781 59.34375 29.390625 59.546875 C 29.398438 59.625 29.414062 59.703125 29.441406 59.777344 C 29.476562 59.78125 29.507812 59.78125 29.539062 59.777344 C 29.605469 59.765625 29.671875 59.75 29.734375 59.726562 C 30.140625 59.5625 30.558594 59.496094 30.996094 59.527344 C 31.433594 59.558594 31.839844 59.683594 32.21875 59.90625 C 32.496094 60.050781 32.792969 60.109375 33.105469 60.089844 C 33.570312 60.070312 34.027344 60 34.476562 59.878906 C 35.265625 59.675781 36.039062 59.410156 36.828125 59.195312 C 37.320312 59.058594 37.816406 58.957031 38.320312 58.886719 C 39.105469 58.78125 39.394531 59.117188 39.21875 59.882812 L 39.035156 60.863281 C 39.09375 60.949219 39.160156 61.03125 39.234375 61.109375 C 39.355469 61.214844 39.429688 61.347656 39.453125 61.511719 C 39.476562 61.671875 39.445312 61.820312 39.359375 61.957031 C 39.28125 62.097656 39.167969 62.203125 39.023438 62.273438 C 38.878906 62.34375 38.726562 62.367188 38.566406 62.339844 C 38.394531 62.339844 38.222656 62.269531 38.03125 62.242188 C 37.648438 62.175781 37.34375 62.300781 37.117188 62.617188 C 37.28125 62.644531 37.445312 62.6875 37.601562 62.746094 C 37.761719 62.792969 37.847656 62.894531 37.859375 63.0625 C 37.871094 63.230469 37.800781 63.34375 37.648438 63.414062 C 37.417969 63.546875 37.164062 63.601562 36.898438 63.578125 C 36.574219 63.503906 36.277344 63.375 36 63.191406 C 35.625 62.972656 35.277344 62.703125 34.925781 62.476562 C 34.519531 62.597656 34.390625 62.902344 34.261719 63.171875 C 33.925781 63.878906 33.476562 64.5 32.90625 65.039062 C 32.335938 65.582031 31.960938 66.234375 31.78125 67 C 31.660156 67.390625 31.582031 67.800781 31.480469 68.21875 L 31.695312 68.21875 C 32.148438 68.21875 32.230469 68.300781 32.230469 68.757812 C 32.230469 68.976562 32.199219 69.195312 32.191406 69.417969 C 32.1875 69.769531 32.054688 70.0625 31.796875 70.296875 L 31.300781 70.738281 C 31.042969 70.941406 30.898438 71.210938 30.871094 71.539062 C 30.835938 71.875 30.722656 72.179688 30.527344 72.457031 C 30.425781 72.617188 30.339844 72.796875 30.25 72.96875 C 30.332031 73.058594 30.40625 73.15625 30.480469 73.257812 C 30.574219 73.375 30.613281 73.507812 30.597656 73.65625 C 30.582031 73.804688 30.511719 73.925781 30.394531 74.019531 C 30.234375 74.171875 30.054688 74.289062 29.855469 74.378906 C 29.324219 74.625 28.765625 74.726562 28.179688 74.6875 C 27.976562 74.636719 27.796875 74.683594 27.644531 74.824219 C 27.175781 75.289062 26.640625 75.648438 26.03125 75.898438 C 25.871094 75.976562 25.726562 76.078125 25.59375 76.195312 C 24.980469 76.730469 24.355469 77.269531 23.765625 77.804688 C 23.355469 78.128906 23.136719 78.550781 23.109375 79.074219 C 23.25 79.097656 23.386719 79.097656 23.523438 79.074219 C 24.140625 78.84375 24.753906 78.589844 25.363281 78.335938 C 25.523438 78.273438 25.664062 78.144531 25.824219 78.078125 C 26.496094 77.796875 27.183594 77.542969 27.84375 77.246094 C 28.300781 77.027344 28.742188 77.050781 29.175781 77.316406 C 29.613281 77.5625 30.066406 77.800781 30.5 78.058594 C 30.863281 78.277344 31.246094 78.324219 31.652344 78.203125 C 32.140625 78.078125 32.644531 78.015625 33.136719 77.914062 C 33.804688 77.769531 34.511719 77.804688 35.128906 77.453125 C 36.085938 76.914062 36.960938 76.285156 37.199219 75.09375 C 37.253906 74.878906 37.355469 74.683594 37.503906 74.519531 C 37.816406 74.160156 37.992188 73.742188 38.042969 73.269531 C 38.085938 73.003906 38.179688 72.761719 38.328125 72.539062 C 38.402344 72.421875 38.5 72.339844 38.628906 72.292969 C 38.757812 72.246094 38.886719 72.242188 39.019531 72.28125 C 39.304688 72.386719 39.445312 72.589844 39.433594 72.898438 C 39.421875 73.078125 39.394531 73.257812 39.351562 73.433594 C 39.277344 73.871094 39.210938 74.308594 39.121094 74.738281 C 39.003906 75.277344 39.382812 75.542969 39.660156 75.882812 C 39.933594 76.222656 40.195312 76 40.453125 75.957031 C 41.269531 75.839844 42.0625 75.777344 42.742188 76.453125 C 42.882812 76.558594 43.042969 76.628906 43.21875 76.660156 C 43.46875 76.734375 43.585938 76.902344 43.578125 77.160156 C 43.59375 77.40625 43.492188 77.585938 43.273438 77.699219 C 43 77.859375 42.726562 77.859375 42.449219 77.699219 C 42.164062 77.550781 41.863281 77.515625 41.546875 77.601562 C 41.140625 77.683594 40.730469 77.785156 40.320312 77.847656 C 39.929688 77.925781 39.539062 77.960938 39.144531 77.957031 C 38.824219 77.921875 38.539062 78.007812 38.289062 78.207031 C 37.578125 78.746094 36.804688 79.160156 35.964844 79.453125 C 35.613281 79.621094 35.257812 79.644531 34.890625 79.53125 C 34.328125 79.355469 33.765625 79.332031 33.191406 79.453125 C 31.554688 79.722656 29.90625 79.871094 28.246094 79.902344 C 27.886719 79.894531 27.527344 79.917969 27.171875 79.96875 C 27.046875 79.976562 26.929688 80.007812 26.820312 80.058594 C 26.707031 80.113281 26.613281 80.1875 26.53125 80.28125 C 26.449219 80.375 26.390625 80.480469 26.351562 80.597656 C 26.316406 80.714844 26.300781 80.835938 26.3125 80.957031 C 26.304688 81.289062 26.261719 81.617188 26.179688 81.9375 C 25.964844 82.628906 25.640625 82.785156 24.921875 82.660156 C 24.597656 82.574219 24.269531 82.546875 23.9375 82.582031 C 23.144531 82.742188 22.355469 82.960938 21.570312 83.191406 C 21.386719 83.273438 21.222656 83.382812 21.074219 83.519531 C 21.09375 83.753906 21.191406 83.949219 21.371094 84.101562 C 21.546875 84.257812 21.753906 84.324219 21.988281 84.308594 C 22.1875 84.308594 22.386719 84.308594 22.585938 84.308594 C 22.78125 84.316406 22.976562 84.335938 23.171875 84.375 C 23.34375 84.410156 23.519531 84.476562 23.546875 84.695312 C 23.574219 84.917969 23.433594 85.011719 23.265625 85.097656 C 23.066406 85.191406 22.875 85.292969 22.6875 85.410156 C 22.539062 85.484375 22.4375 85.601562 22.382812 85.761719 C 22.332031 85.917969 22.339844 86.070312 22.414062 86.222656 C 22.5625 86.253906 22.714844 86.296875 22.863281 86.324219 C 23.066406 86.363281 23.238281 86.457031 23.382812 86.601562 C 23.53125 86.746094 23.621094 86.917969 23.664062 87.117188 C 23.785156 87.359375 23.773438 87.59375 23.621094 87.820312 C 23.46875 88.046875 23.257812 88.148438 22.988281 88.128906 C 22.808594 88.128906 22.632812 88.128906 22.449219 88.128906 C 21.917969 88.105469 21.398438 88.183594 20.894531 88.359375 C 20.640625 88.46875 20.378906 88.496094 20.109375 88.441406 C 19.839844 88.382812 19.613281 88.25 19.425781 88.046875 C 19.152344 87.769531 18.863281 87.511719 18.492188 87.152344 C 18.386719 87.308594 18.273438 87.460938 18.152344 87.605469 C 17.976562 87.800781 17.789062 87.980469 17.585938 88.144531 C 17.148438 88.488281 16.859375 88.472656 16.511719 88.03125 C 16.15625 87.621094 15.707031 87.429688 15.164062 87.457031 C 14.941406 87.429688 14.765625 87.503906 14.625 87.675781 C 14.386719 87.949219 14.09375 88.140625 13.753906 88.257812 C 13.410156 88.371094 13.0625 88.394531 12.707031 88.320312 C 12.542969 88.3125 12.378906 88.3125 12.214844 88.320312 C 11.484375 89.1875 11.390625 90.222656 11.230469 91.25 C 11.539062 91.566406 11.898438 91.472656 12.234375 91.410156 C 12.988281 91.265625 13.78125 91.320312 14.480469 90.921875 C 14.546875 90.914062 14.613281 90.914062 14.679688 90.921875 C 15.648438 90.75 16.613281 90.78125 17.570312 91.023438 C 18.132812 91.171875 18.703125 91.195312 19.277344 91.097656 C 19.804688 91.019531 20.296875 90.839844 20.753906 90.5625 C 21.429688 90.171875 22.132812 90.113281 22.863281 90.390625 C 23.03125 90.449219 23.152344 90.554688 23.234375 90.710938 C 23.332031 90.925781 23.148438 91.078125 22.988281 91.195312 C 22.917969 91.25 22.84375 91.296875 22.765625 91.339844 C 22.269531 91.582031 21.78125 91.828125 21.269531 92.039062 C 21.039062 92.097656 20.839844 92.214844 20.675781 92.386719 C 20.511719 92.558594 20.40625 92.761719 20.355469 92.996094 C 20.328125 93.210938 20.234375 93.394531 20.078125 93.542969 C 19.921875 93.695312 19.734375 93.78125 19.519531 93.800781 C 18.601562 93.980469 17.722656 94.265625 16.875 94.664062 C 16.53125 94.816406 16.171875 94.917969 15.800781 94.976562 C 15.011719 95.152344 14.332031 95.523438 13.753906 96.09375 L 14.476562 96.628906 C 14.613281 96.714844 14.707031 96.835938 14.757812 96.988281 C 14.808594 97.144531 14.804688 97.296875 14.75 97.445312 C 14.667969 97.699219 14.527344 97.914062 14.335938 98.097656 C 14.042969 98.328125 13.726562 98.53125 13.390625 98.699219 C 12.816406 98.929688 12.457031 99.351562 12.316406 99.953125 C 12.445312 99.914062 12.574219 99.863281 12.699219 99.808594 C 13.296875 99.515625 13.933594 99.335938 14.597656 99.273438 C 15.335938 99.1875 15.414062 99.273438 15.414062 99.976562 C 15.414062 100.511719 15.414062 101.023438 15.457031 101.554688 C 15.535156 101.5625 15.617188 101.5625 15.695312 101.554688 C 16.175781 101.335938 16.671875 101.296875 17.183594 101.4375 C 17.359375 101.464844 17.527344 101.429688 17.679688 101.335938 C 18.464844 100.964844 19.28125 100.699219 20.128906 100.539062 C 20.71875 100.417969 21.269531 100.199219 21.785156 99.882812 C 22.9375 99.15625 24.191406 98.714844 25.542969 98.5625 C 25.742188 98.542969 25.9375 98.5625 26.128906 98.617188 C 26.207031 98.628906 26.277344 98.660156 26.34375 98.707031 C 26.40625 98.757812 26.453125 98.816406 26.488281 98.886719 C 26.519531 98.960938 26.535156 99.035156 26.53125 99.117188 C 26.527344 99.195312 26.503906 99.269531 26.460938 99.335938 C 26.277344 99.804688 25.941406 100.101562 25.457031 100.234375 C 25.109375 100.351562 24.75 100.425781 24.382812 100.453125 C 23.707031 100.523438 23.101562 100.769531 22.574219 101.199219 C 22.101562 101.527344 21.625 101.84375 21.167969 102.195312 C 20.835938 102.480469 20.453125 102.617188 20.019531 102.601562 C 19.800781 102.585938 19.601562 102.640625 19.425781 102.773438 C 19.25 102.902344 19.140625 103.074219 19.09375 103.289062 C 19.058594 103.484375 19.058594 103.675781 19.09375 103.871094 C 19.164062 104.371094 18.992188 104.585938 18.492188 104.566406 C 18.277344 104.566406 18.0625 104.515625 17.777344 104.476562 C 17.660156 104.683594 17.582031 104.90625 17.546875 105.140625 C 17.578125 105.582031 17.328125 105.734375 17.011719 105.828125 C 16.691406 105.925781 16.367188 105.996094 16.042969 106.066406 C 15.839844 106.109375 15.683594 106.195312 15.652344 106.421875 C 15.890625 106.667969 16.179688 106.773438 16.519531 106.730469 C 17.050781 106.71875 17.570312 106.648438 18.085938 106.515625 C 19.210938 106.125 20.320312 105.675781 21.402344 105.195312 C 22.167969 104.832031 22.96875 104.59375 23.808594 104.488281 C 24.171875 104.445312 24.488281 104.304688 24.761719 104.0625 C 24.949219 103.90625 25.121094 103.730469 25.296875 103.597656 C 25.617188 103.363281 25.972656 103.222656 26.367188 103.175781 C 26.757812 103.125 27.136719 103.175781 27.503906 103.320312 C 27.628906 103.351562 27.726562 103.417969 27.804688 103.519531 C 27.878906 103.617188 27.917969 103.734375 27.914062 103.859375 C 27.980469 104.285156 27.851562 104.644531 27.53125 104.933594 C 27.0625 105.332031 26.527344 105.582031 25.921875 105.683594 C 25.484375 105.753906 25.066406 105.867188 24.65625 106.035156 C 23.945312 106.328125 23.25 106.667969 22.5625 107.015625 C 22.199219 107.203125 21.800781 107.386719 21.675781 107.925781 C 22.089844 107.917969 22.488281 107.839844 22.871094 107.6875 L 24.820312 106.867188 C 25.152344 106.726562 25.394531 106.753906 25.542969 106.953125 C 25.695312 107.152344 25.644531 107.375 25.339844 107.640625 C 24.996094 107.917969 24.640625 108.171875 24.265625 108.40625 C 24.0625 108.535156 23.824219 108.621094 23.753906 108.890625 C 23.636719 109.296875 23.371094 109.535156 22.957031 109.605469 C 22.617188 109.707031 22.273438 109.78125 21.929688 109.867188 C 21.578125 109.964844 21.355469 110.191406 21.265625 110.546875 C 21.167969 110.808594 21.027344 111.082031 21.339844 111.351562 C 21.816406 111.277344 22.265625 111.117188 22.679688 110.867188 C 22.933594 110.734375 23.148438 110.554688 23.324219 110.332031 C 23.441406 110.140625 23.589844 109.976562 23.769531 109.84375 C 23.953125 109.714844 24.152344 109.621094 24.371094 109.570312 C 24.585938 109.519531 24.808594 109.515625 25.027344 109.554688 C 25.25 109.59375 25.453125 109.671875 25.640625 109.792969 C 25.769531 109.878906 25.910156 109.914062 26.066406 109.902344 C 26.546875 109.851562 26.949219 109.648438 27.273438 109.289062 C 27.449219 109.042969 27.683594 108.886719 27.976562 108.816406 C 28.269531 108.746094 28.546875 108.78125 28.816406 108.921875 C 29.097656 109.054688 29.304688 109.257812 29.441406 109.539062 C 29.574219 109.820312 29.601562 110.109375 29.523438 110.410156 C 29.523438 110.589844 29.441406 110.753906 29.398438 110.949219 C 29.296875 111.371094 29.398438 111.550781 29.855469 111.484375 C 30.3125 111.421875 30.707031 111.3125 31.152344 111.234375 Z M 31.152344 111.234375 " fill-opacity="1" fill-rule="nonzero"/><path fill="#000000" d="M 22.328125 32.828125 C 22.207031 32.894531 22.105469 32.984375 22.023438 33.09375 C 21.941406 33.207031 21.886719 33.328125 21.859375 33.464844 C 21.835938 33.601562 21.835938 33.734375 21.871094 33.871094 C 21.902344 34.003906 21.960938 34.125 22.046875 34.234375 C 22.285156 33.792969 22.378906 33.324219 22.328125 32.828125 Z M 22.328125 32.828125 " fill-opacity="1" fill-rule="nonzero"/><path fill="#000000" d="M 20.84375 36.761719 C 21.40625 36.796875 21.945312 36.699219 22.457031 36.46875 C 22.933594 36.261719 23.402344 36.273438 23.867188 36.503906 C 24.035156 36.558594 24.160156 36.660156 24.246094 36.816406 C 24.328125 36.96875 24.347656 37.132812 24.304688 37.300781 C 24.21875 37.734375 24.21875 38.171875 24.304688 38.605469 C 24.3125 38.824219 24.300781 39.042969 24.261719 39.261719 C 24.226562 39.738281 23.925781 39.949219 23.492188 40.039062 C 22.957031 40.148438 22.773438 40 22.714844 39.453125 C 22.714844 39.34375 22.707031 39.234375 22.6875 39.125 C 22.464844 38.40625 22.0625 37.8125 21.074219 37.886719 C 20.746094 37.921875 20.417969 37.921875 20.085938 37.886719 C 19.9375 37.878906 19.808594 37.816406 19.710938 37.699219 C 19.613281 37.585938 19.570312 37.453125 19.582031 37.300781 C 19.582031 37.039062 19.785156 36.867188 20.121094 36.8125 C 20.25 36.792969 20.382812 36.78125 20.515625 36.78125 Z M 20.84375 36.761719 " fill-opacity="1" fill-rule="nonzero"/><path fill="#000000" d="M 20.054688 37.230469 C 20.117188 37.363281 20.214844 37.460938 20.347656 37.519531 C 20.484375 37.578125 20.621094 37.582031 20.757812 37.535156 C 21.261719 37.503906 21.757812 37.550781 22.246094 37.683594 C 22.835938 38.207031 23.132812 38.863281 23.132812 39.652344 C 23.753906 39.597656 23.859375 39.519531 23.894531 39.039062 C 23.894531 38.867188 23.867188 38.691406 23.894531 38.503906 C 23.894531 38.15625 23.894531 37.8125 23.894531 37.460938 C 23.894531 37.3125 23.894531 37.160156 23.894531 37.003906 C 23.507812 36.722656 23.09375 36.667969 22.648438 36.84375 C 22.054688 37.105469 21.433594 37.21875 20.785156 37.1875 C 20.527344 37.183594 20.292969 37.230469 20.054688 37.230469 Z M 20.054688 37.230469 " fill-opacity="1" fill-rule="nonzero"/></svg>