<svg xmlns="http://www.w3.org/2000/svg" xmlns:xlink="http://www.w3.org/1999/xlink" width="150" zoomAndPan="magnify" viewBox="0 0 112.5 112.499997" height="150" preserveAspectRatio="xMidYMid meet" version="1.0"><defs><clipPath id="9dbe1444e3"><path d="M 19.753906 42 L 40 42 L 40 58 L 19.753906 58 Z M 19.753906 42 " clip-rule="nonzero"/></clipPath></defs><path fill="#000000" d="M 25.3125 109.324219 C 25.3125 109.324219 29.054688 109.613281 28.863281 111.914062 C 28.863281 111.914062 30.492188 110.859375 30.875 109.421875 C 31.257812 107.980469 33.175781 109.421875 33.175781 109.421875 C 33.175781 109.421875 33.945312 107.980469 34.039062 107.695312 C 34.136719 107.40625 41.902344 111.433594 42.285156 111.53125 C 42.667969 111.625 45.449219 105.777344 45.449219 105.777344 C 45.449219 105.777344 56.285156 109.035156 56.761719 108.941406 C 57.242188 108.84375 57.050781 107.214844 57.050781 107.214844 L 62.515625 107.503906 L 61.941406 105.203125 L 66.734375 108.652344 L 72.296875 108.269531 L 75.078125 110.089844 L 80.445312 107.789062 L 81.019531 108.558594 L 82.554688 106.832031 L 85.238281 106.542969 L 86.007812 102.515625 L 81.597656 103.1875 L 81.019531 100.886719 C 81.019531 100.886719 77.953125 100.789062 78.144531 100.503906 C 78.335938 100.214844 82.171875 100.214844 82.171875 100.214844 L 83.324219 98.011719 C 83.324219 98.011719 81.691406 97.53125 81.597656 97.433594 C 81.5 97.339844 84.378906 97.433594 84.378906 97.433594 L 85.71875 96.570312 L 84.664062 95.132812 L 86.582031 95.613281 C 86.582031 95.613281 92.238281 90.242188 90.800781 86.601562 C 89.363281 82.957031 84.089844 81.039062 81.691406 81.230469 C 79.296875 81.421875 79.742188 83.4375 79.742188 83.4375 C 79.742188 83.4375 78.144531 83.246094 77.632812 81.902344 C 77.632812 81.902344 78.015625 80.6875 79.742188 80.050781 C 81.46875 79.410156 79.550781 75.382812 78.71875 73.847656 C 77.890625 72.3125 78.785156 72.824219 79.617188 72.441406 C 80.445312 72.058594 78.65625 69.4375 77.761719 67.839844 C 76.867188 66.242188 78.191406 66.082031 78.910156 65.410156 C 79.632812 64.738281 77.570312 63.398438 76.5625 62.582031 C 75.554688 61.765625 75.171875 58.125 71.769531 57.980469 C 68.363281 57.835938 69.851562 46.953125 70.332031 45.277344 C 70.808594 43.597656 68.558594 45.082031 67.40625 40.546875 C 66.253906 36.007812 64.210938 37.667969 63.125 37.542969 C 62.035156 37.414062 58.90625 38.753906 58.394531 37.476562 C 57.882812 36.199219 60.3125 36.453125 61.207031 36.582031 C 62.101562 36.710938 61.78125 36.199219 62.230469 35.496094 C 62.675781 34.792969 65.425781 37.796875 65.296875 35.367188 C 65.167969 32.9375 63.699219 33.066406 63.699219 33.066406 L 64.402344 32.234375 C 64.402344 32.234375 71.625 25.714844 71.6875 22.96875 C 71.753906 20.21875 73.925781 21.367188 73.925781 19.453125 C 73.925781 17.535156 66.765625 16.320312 65.617188 16.511719 C 64.464844 16.703125 62.996094 14.914062 62.164062 15.488281 C 61.332031 16.0625 59.863281 17.023438 59.351562 16.703125 C 58.839844 16.382812 56.15625 17.214844 56.21875 16.320312 C 56.285156 15.425781 57.496094 14.339844 58.074219 14.847656 C 58.648438 15.359375 59.289062 15.039062 59.289062 15.039062 C 59.289062 15.039062 60.4375 14.019531 60.566406 13.699219 C 60.695312 13.378906 59.671875 13.316406 59.160156 13.316406 C 58.648438 13.316406 58.519531 12.996094 58.710938 12.804688 C 58.902344 12.613281 66.191406 7.691406 66.382812 7.371094 C 66.574219 7.050781 67.789062 5.453125 67.851562 4.492188 C 67.917969 3.535156 58.839844 3.152344 58.710938 3.664062 C 58.585938 4.175781 57.753906 5.003906 57.753906 5.003906 C 57.753906 5.003906 57.625 3.917969 57.371094 3.214844 C 57.113281 2.511719 54.875 0.0820312 54.492188 1.617188 C 54.109375 3.152344 53.855469 4.109375 53.46875 4.109375 C 53.085938 4.109375 50.785156 5.003906 54.109375 6.410156 C 54.109375 6.410156 53.664062 7.816406 52.449219 6.792969 C 51.234375 5.773438 51.042969 5.515625 51.296875 6.921875 L 51.363281 8.390625 L 49.953125 7.433594 C 49.953125 7.433594 49.042969 8.359375 50.097656 9.222656 C 50.097656 9.222656 51.25 9.941406 50.625 10.375 C 50.003906 10.804688 49.761719 10.46875 48.996094 9.65625 C 48.230469 8.839844 47.988281 10.375 48.421875 11.285156 C 48.851562 12.195312 47.988281 11.8125 47.652344 11.285156 C 47.316406 10.757812 46.789062 9.65625 46.40625 10.375 C 46.023438 11.09375 46.886719 13.539062 47.652344 14.496094 C 48.421875 15.457031 47.988281 18.523438 47.894531 18.667969 C 47.796875 18.8125 45.496094 18.238281 45.734375 19.003906 C 45.976562 19.769531 48.277344 20.296875 47.511719 20.96875 C 46.742188 21.640625 45.785156 21.785156 45.066406 21.015625 C 44.347656 20.25 42.332031 21.59375 43.53125 22.984375 C 44.730469 24.371094 43.960938 24.421875 43.003906 23.988281 C 42.042969 23.558594 40.65625 23.125 40.75 24.085938 C 40.847656 25.042969 40.894531 25.1875 40.894531 25.1875 C 40.894531 25.1875 39.265625 24.996094 39.601562 25.761719 C 39.933594 26.53125 41.324219 26.050781 41.613281 26.675781 C 41.902344 27.296875 41.085938 28.542969 40.222656 28.589844 C 39.359375 28.640625 37.585938 28.351562 38.59375 29.453125 C 39.601562 30.558594 42.957031 29.886719 43.769531 28.6875 C 44.585938 27.488281 44.875 27.105469 45.113281 26.914062 C 45.351562 26.722656 46.3125 26.003906 46.3125 26.003906 L 47.75 25.1875 L 47.941406 25.957031 L 45.832031 27.394531 L 45.160156 28.832031 L 43.769531 30.175781 C 43.867188 31.132812 43.578125 33.242188 43.578125 33.242188 L 41.519531 34.488281 C 41.519531 34.488281 42.8125 34.632812 43.242188 34.34375 C 43.675781 34.058594 41.855469 35.878906 41.855469 35.878906 L 42.714844 36.742188 C 42.714844 36.742188 41.085938 37.605469 40.894531 39.140625 C 40.703125 40.671875 39.550781 41.917969 39.265625 42.109375 C 38.976562 42.304688 38.785156 43.261719 39.648438 43.308594 C 40.511719 43.359375 41.566406 42.734375 41.566406 42.734375 L 42.140625 41.054688 L 42.476562 40.050781 L 43.003906 38.277344 L 44.25 37.460938 L 44.394531 35.925781 L 44.011719 34.679688 L 48.183594 32.1875 C 48.183594 32.1875 48.039062 34.394531 48.46875 35.398438 C 48.902344 36.40625 50.578125 36.695312 50.578125 36.695312 L 47.988281 36.359375 C 47.988281 36.359375 47.078125 38.996094 47.078125 39.234375 C 47.078125 39.472656 48.421875 42.015625 48.421875 42.015625 L 46.3125 44.171875 L 44.296875 47.050781 L 44.105469 48.726562 C 44.105469 48.726562 42.910156 48.917969 42.765625 48.96875 C 42.621094 49.015625 44.96875 50.835938 44.96875 50.835938 L 45.59375 50.023438 L 47.75 53.1875 L 48.515625 52.179688 C 48.515625 52.179688 48.375 50.164062 48.375 50.070312 C 48.375 49.972656 50.484375 52.707031 50.484375 52.707031 L 51.921875 52.417969 C 51.921875 52.417969 53.648438 50.789062 54.320312 51.554688 C 54.988281 52.324219 55.804688 50.742188 55.804688 50.742188 L 57.050781 51.171875 L 58.441406 51.21875 L 58.152344 51.890625 C 58.152344 51.890625 55.851562 51.507812 55.613281 52.371094 C 55.375 53.234375 53.070312 56.015625 53.070312 56.015625 C 53.070312 56.015625 53.792969 56.878906 54.222656 58.21875 C 54.652344 59.5625 53.984375 60.472656 53.984375 60.472656 L 54.511719 60.953125 L 55.46875 60.472656 L 55.375 62.246094 L 55.375 62.484375 L 56.476562 62.820312 L 57.960938 61.097656 L 58.296875 62.054688 L 57.195312 63.492188 L 57.625 64.164062 L 57.386719 64.835938 L 55.515625 64.546875 L 55.132812 65.9375 L 56.476562 66.945312 L 56.429688 67.617188 L 54.511719 69.007812 L 54.796875 70.636719 L 57.289062 72.410156 L 56.429688 73.367188 L 54.652344 71.019531 L 53.886719 71.738281 L 54.605469 72.839844 L 53.792969 73.753906 L 53.167969 72.027344 C 53.167969 72.027344 51.683594 71.308594 51.25 71.929688 C 50.820312 72.554688 50.050781 72.746094 49.621094 72.21875 C 49.1875 71.691406 48.660156 70.972656 48.660156 70.972656 C 48.660156 70.972656 47.847656 71.785156 47.796875 71.929688 C 47.75 72.074219 46.121094 72.027344 46.121094 72.027344 L 46.695312 70.78125 L 44.394531 68.335938 L 42.957031 69.675781 L 44.347656 72.457031 L 42.523438 74.664062 C 42.523438 74.664062 40.65625 75.863281 40.65625 75.667969 C 40.65625 75.476562 41.421875 77.445312 41.421875 77.445312 L 44.058594 75.527344 L 45.59375 77.492188 L 45.640625 81.136719 L 41.230469 84.96875 L 39.121094 84.730469 L 37.683594 86.503906 L 33.800781 85.882812 L 33.464844 89.382812 L 34.421875 89.910156 L 35.332031 91.492188 L 37.441406 91.632812 L 38.59375 90.339844 L 40.75 90.386719 L 41.085938 93.601562 L 42.667969 93.457031 L 43.484375 92.6875 L 44.585938 93.023438 L 45.402344 95.613281 L 47.320312 97.242188 L 48.902344 97.003906 L 50.675781 95.132812 L 51.921875 95.421875 L 52.832031 95.902344 L 50.820312 97.53125 L 50.101562 99.160156 C 50.101562 99.160156 50.195312 99.402344 50.050781 99.402344 C 49.90625 99.402344 47.558594 99.929688 47.558594 99.929688 L 44.296875 97.867188 C 44.296875 97.867188 41.039062 98.058594 40.941406 97.914062 C 40.847656 97.769531 39.457031 100.359375 39.457031 100.359375 L 38.304688 100.359375 L 37.636719 99.113281 L 36.386719 100.3125 L 36.964844 102.230469 L 33.992188 104.433594 C 33.992188 104.433594 33.273438 104.148438 33.082031 104.148438 C 32.890625 104.148438 32.21875 105.632812 32.21875 105.632812 C 32.21875 105.632812 30.636719 106.449219 30.683594 106.351562 C 30.730469 106.257812 30.15625 107.742188 30.15625 107.742188 L 26.65625 107.789062 L 25.21875 107.980469 Z M 25.3125 109.324219 " fill-opacity="1" fill-rule="nonzero"/><g clip-path="url(#9dbe1444e3)"><path fill="#000000" d="M 19.753906 49.734375 L 23.78125 54.863281 L 26.035156 54.816406 L 26.464844 52.464844 L 28.527344 52.035156 L 28.8125 54.574219 L 30.394531 55.773438 L 29.726562 57.117188 L 31.546875 57.644531 L 32.074219 56.734375 L 33.800781 57.980469 L 34.949219 57.835938 L 36.003906 55.871094 L 39.074219 55.628906 L 39.359375 51.363281 L 37.300781 51.699219 L 36.292969 51.316406 L 38.546875 49.351562 L 38.402344 48.296875 L 37.109375 47.671875 L 36.820312 46.136719 L 37.109375 44.171875 L 34.664062 42.6875 L 33.03125 42.6875 L 32.363281 43.308594 L 30.636719 42.734375 L 29.726562 44.460938 L 28.429688 44.222656 C 28.429688 44.222656 27.617188 43.695312 27.472656 43.695312 C 27.328125 43.695312 25.554688 47.050781 25.554688 47.050781 L 23.15625 46.859375 L 23.972656 48.488281 Z M 19.753906 49.734375 " fill-opacity="1" fill-rule="nonzero"/></g></svg>