<svg xmlns="http://www.w3.org/2000/svg" xmlns:xlink="http://www.w3.org/1999/xlink" width="150" zoomAndPan="magnify" viewBox="0 0 112.5 112.499997" height="150" preserveAspectRatio="xMidYMid meet" version="1.0"><path fill="#000000" d="M 7.332031 86.140625 C 8.191406 88.792969 6.890625 91.707031 11.238281 91.296875 C 11.222656 89.882812 11.03125 89.898438 12.230469 89.125 C 13.5 88.695312 16.152344 90.207031 18.078125 90.753906 C 17.523438 94.621094 20.882812 90.808594 20.390625 93.058594 C 21.292969 93.410156 21.265625 91.484375 21.75 92.789062 C 24.226562 90.796875 27.398438 90.191406 29.097656 86.957031 C 29.871094 86.515625 34.363281 86.890625 34.265625 85.871094 C 31.589844 83.714844 33.414062 81.984375 36.714844 81.664062 C 37.519531 82.230469 35.464844 85 37.804688 83.566406 C 40.441406 84.972656 40.109375 82.113281 42.429688 80.851562 C 43.085938 80.605469 44.027344 81.425781 44.46875 81.800781 C 45.039062 83.699219 43.160156 82.0625 44.199219 84.109375 C 43.199219 83.953125 42.277344 83.105469 43.109375 84.785156 C 46.019531 83.796875 46.398438 86.238281 48.550781 83.292969 C 48.671875 82.640625 48.71875 81.566406 49.503906 81.394531 C 49.339844 83.308594 50.945312 80.753906 51 83.835938 C 49.109375 85.867188 52.191406 85.949219 51.589844 88.496094 C 52.183594 88.617188 53.015625 88.527344 53.449219 88.042969 C 56.578125 89.25 51.679688 90.613281 56.988281 90.484375 C 56.523438 89.25 58.535156 90.589844 58.890625 90.484375 C 59.410156 90.015625 60.871094 88.660156 61.613281 89.125 C 62.175781 89.808594 62.617188 91.320312 62.429688 92.203125 C 63.105469 92.53125 65.140625 92.601562 65.011719 93.601562 C 66.292969 93.710938 68.054688 92.972656 68.003906 94.960938 C 68.992188 94.351562 69.421875 94.390625 70.046875 95.367188 C 70.046875 95.367188 68.824219 96.316406 68.824219 96.316406 C 70.117188 98.285156 68.050781 96.257812 68.6875 98.621094 C 67.917969 98.121094 67.742188 99.125 67.460938 99.570312 C 68.902344 100.210938 67.121094 101.925781 66.507812 102.554688 C 68.90625 102.199219 65.792969 106.632812 64.605469 106.082031 C 64.691406 109.914062 66.433594 106.847656 65.828125 110.96875 C 66.964844 109.792969 66.773438 111.542969 67.734375 109.609375 C 68.953125 111.640625 69.675781 109.664062 69.683594 110.96875 C 70.507812 110.039062 70.695312 110.128906 71.457031 110.96875 C 72.257812 109.984375 74.519531 112.003906 74.183594 110.164062 C 74.128906 110.152344 72.902344 109.203125 72.902344 109.203125 C 73.523438 107.695312 74.347656 110.394531 74.261719 106.355469 C 75.089844 106.777344 75.539062 107.726562 76.03125 106.082031 C 75.121094 105.394531 75.894531 104.757812 76.167969 104.050781 C 74.566406 104.21875 73.152344 103.300781 74.128906 101.605469 C 71.789062 102.140625 73.183594 101.144531 71.136719 102.148438 C 71.769531 100.667969 68.871094 99.066406 71.40625 98.351562 C 71.40625 98.351562 72.085938 99.707031 72.222656 99.707031 C 72.542969 97.238281 79.382812 95.21875 77.121094 94.011719 C 77.449219 93.617188 78.667969 94.085938 77.664062 93.195312 C 74.796875 95.421875 75.632812 93.050781 75.488281 91.160156 C 76.835938 88.84375 79.59375 87.667969 79.296875 84.949219 C 79.03125 82.945312 79.113281 78.425781 75.894531 76.648438 C 76.8125 74.523438 76.613281 74.695312 74.535156 74.070312 C 74.019531 71.183594 75.4375 72.519531 72.222656 70.949219 C 75.304688 70.25 70.585938 67.902344 73.035156 67.285156 C 73.378906 68.324219 74.851562 66.414062 75.214844 66.199219 C 75.800781 66.71875 78.21875 67.917969 77.800781 66.335938 C 77.382812 65.742188 76.890625 64.996094 76.058594 65.25 C 76.058594 65.25 77.664062 64.574219 77.664062 64.574219 C 79.195312 65.902344 78.070312 66.339844 80.65625 65.792969 C 80.894531 66.730469 81.726562 66.859375 82.5625 66.742188 C 82.195312 67.515625 83.527344 67.511719 83.921875 67.691406 C 84.027344 67.066406 84.0625 66.339844 83.242188 66.199219 C 83.292969 64.894531 84.308594 66.691406 84.875 66.199219 C 86.738281 67.460938 89.898438 62.332031 91.675781 64.980469 C 99.960938 58.800781 86.496094 60.003906 92.492188 57.246094 C 92.230469 55.132812 93.746094 55.863281 95.128906 55.753906 C 95.128906 55.753906 96.4375 53.585938 96.4375 53.585938 C 97.585938 53.929688 98.136719 52.167969 98.480469 51.414062 C 99.039062 51.535156 100.230469 51.378906 100.519531 50.734375 C 98.175781 49.089844 101.199219 46.351562 100.25 44.222656 C 99.496094 44.734375 98.539062 41.738281 98.34375 41.511719 C 97.339844 43.191406 96.8125 42.796875 95.214844 42.324219 C 95.320312 41.167969 93.132812 42.496094 91.269531 40.695312 C 91.476562 39.699219 89.976562 37.652344 91.730469 38.121094 C 91.339844 37.304688 92.847656 37.636719 93.09375 37.578125 C 90.585938 36.492188 92.660156 35.804688 91.40625 34.730469 C 94.117188 33.324219 97.222656 34.058594 99.839844 34.726562 C 100.921875 29.027344 99.890625 26.378906 103.648438 20.890625 C 105.394531 18.535156 101.863281 13.105469 104.464844 12.074219 C 103.855469 11.867188 104.089844 9.695312 104.058594 9.226562 C 102.324219 9.59375 99.808594 8.609375 101.066406 6.648438 C 101.0625 6.648438 101.878906 6.511719 101.878906 6.511719 C 98.519531 6.160156 97.238281 4.214844 96.847656 0.8125 C 96.214844 1.539062 94.476562 0.230469 93.988281 0 C 90.195312 0.277344 85.171875 1.214844 81.472656 2.847656 C 78.789062 1.238281 74.988281 2.847656 71.949219 2.847656 C 65.839844 4.574219 57.984375 9.273438 58.074219 16.414062 C 56.976562 15.949219 58.867188 18.425781 58.753906 18.585938 C 58.066406 19.941406 58.976562 21.628906 58.617188 23.0625 C 55.015625 25.085938 60.496094 25.640625 61.882812 26.316406 C 63.738281 26.1875 64.554688 24.539062 66.375 26.320312 C 63.617188 26.417969 62.6875 31.835938 63.789062 33.644531 C 65.34375 36.5 59.152344 37.035156 59.433594 39.746094 C 57.421875 41.730469 50.761719 43.535156 51.953125 46.800781 C 51.027344 47.089844 49.246094 47.152344 48.824219 45.988281 C 48.394531 47.164062 47.269531 46.160156 47.871094 45.308594 C 49.148438 45.410156 50.140625 43.730469 49.914062 42.460938 C 51.066406 40.191406 50.445312 39.609375 49.503906 36.898438 C 49.183594 36.109375 48.917969 34.828125 49.914062 34.320312 C 52.921875 34.433594 50.789062 36.511719 54.539062 33.777344 C 54.683594 33.410156 54.84375 32.457031 55.488281 32.695312 C 56.921875 31.480469 55.488281 29.121094 53.722656 29.574219 C 51.421875 31.519531 51.0625 27.308594 51.542969 25.910156 C 49.8125 21.828125 49.152344 21.265625 45.421875 24.148438 C 43.136719 24.5625 43.082031 18.878906 41.339844 21.570312 C 39.019531 35.980469 37.035156 51.9375 25.015625 61.859375 C 23.285156 60.261719 21.226562 61.964844 22.839844 63.894531 C 26.664062 64.597656 22.855469 64.039062 24.878906 66.742188 C 23.242188 68.789062 25.265625 65.539062 21.480469 67.285156 C 20.417969 67.761719 19.507812 68.03125 19.847656 69.59375 C 18.652344 72.539062 15.21875 69.941406 15.355469 73.527344 C 16.683594 75.394531 19.898438 70.941406 20.390625 75.832031 C 22.828125 75.324219 21.371094 76.632812 23.519531 76.375 C 24.359375 77.457031 21.417969 77.78125 23.929688 78.273438 C 25.671875 81.046875 27.15625 79.046875 28.007812 81.121094 C 28.96875 81.320312 28.769531 82.707031 28.824219 83.429688 C 27.414062 82.382812 27.242188 84.746094 25.695312 83.023438 C 24.382812 79.710938 21.378906 80.429688 19.847656 77.054688 C 16.246094 76.953125 11.097656 76.496094 8.964844 79.902344 C 10.96875 81.355469 12.363281 85.003906 15.085938 82.480469 C 16.003906 83.808594 17.242188 84.765625 18.621094 85.597656 C 22.300781 85.585938 20.105469 83.472656 22.566406 82.480469 C 26.296875 86.320312 26.554688 84.113281 29.507812 85.734375 C 27.324219 85.925781 24.867188 87.773438 23.65625 84.921875 C 21.261719 84.703125 23.351562 86.058594 19.710938 87.632812 C 15.484375 87.097656 11.382812 83.070312 7.332031 86.140625 " fill-opacity="1" fill-rule="nonzero"/></svg>