<svg xmlns="http://www.w3.org/2000/svg" xmlns:xlink="http://www.w3.org/1999/xlink" width="150" zoomAndPan="magnify" viewBox="0 0 112.5 112.499997" height="150" preserveAspectRatio="xMidYMid meet" version="1.0"><defs><clipPath id="99cd78b7e3"><path d="M 4.410156 0 L 107.453125 0 L 107.453125 112.003906 L 4.410156 112.003906 Z M 4.410156 0 " clip-rule="nonzero"/></clipPath></defs><g clip-path="url(#99cd78b7e3)"><path fill="#000000" d="M 4.90625 9.039062 L 4.460938 90.140625 L 6.070312 89.105469 L 7.023438 89.320312 L 7.910156 90.503906 L 9.371094 91.390625 L 10.832031 90.652344 L 12.144531 90.796875 L 12.882812 89.910156 L 13.621094 90.207031 L 14.066406 92.113281 C 14.066406 92.113281 16.117188 92.261719 16.414062 92.703125 C 16.707031 93.148438 17.726562 95.796875 18.613281 96.8125 L 18.761719 99.164062 L 19.054688 99.757812 L 23.011719 100.644531 L 24.769531 100.199219 L 27.558594 101.089844 L 28 102.269531 L 29.460938 103.160156 L 29.609375 104.34375 L 31.070312 104.785156 L 32.53125 104.933594 C 32.53125 104.933594 33.417969 103.621094 33.417969 103.472656 C 33.417969 103.324219 35.617188 102.878906 35.765625 102.878906 C 35.914062 102.878906 36.949219 103.765625 36.949219 103.765625 C 36.949219 103.765625 39.589844 104.210938 40.035156 104.65625 C 40.476562 105.097656 40.917969 106.117188 40.917969 106.117188 L 41.660156 105.378906 L 44.597656 105.230469 C 44.597656 105.230469 45.335938 103.621094 45.628906 103.621094 C 45.925781 103.621094 47.386719 102.582031 47.386719 102.15625 C 47.386719 101.710938 48.699219 102.15625 48.699219 102.15625 L 50.605469 101.121094 L 51.046875 101.566406 C 51.046875 101.566406 51.046875 103.621094 51.34375 104.359375 C 51.636719 105.097656 52.082031 106.265625 52.523438 106.710938 C 52.96875 107.152344 54.578125 107.300781 54.578125 107.300781 L 57.367188 109.800781 L 57.8125 111.558594 L 58.402344 112.003906 L 60.011719 111.855469 C 60.011719 111.855469 62.210938 110.820312 62.652344 110.820312 C 63.097656 110.820312 64.261719 110.523438 64.261719 110.523438 C 64.261719 110.523438 65.148438 106.988281 65.148438 106.710938 C 65.148438 106.429688 67.789062 105.820312 67.789062 105.820312 L 67.496094 103.324219 L 67.496094 102.582031 L 66.757812 100.234375 L 68.511719 98.621094 L 68.511719 96.714844 C 68.511719 96.714844 69.398438 94.957031 69.695312 94.957031 C 69.992188 94.957031 70.730469 93.773438 70.730469 93.773438 L 71.171875 92.886719 L 71.761719 92.738281 L 72.207031 93.183594 L 72.355469 93.921875 L 73.535156 94.070312 L 74.421875 95.679688 L 73.832031 96.714844 L 74.125 97.457031 L 75.441406 97.160156 C 75.441406 97.160156 75.441406 96.125 75.585938 95.976562 C 75.734375 95.828125 76.472656 95.382812 76.472656 95.382812 L 77.359375 96.125 L 77.804688 95.828125 L 77.210938 94.644531 L 77.65625 93.183594 L 76.621094 92.144531 L 76.472656 91.257812 L 77.933594 90.816406 L 77.933594 87.871094 L 78.671875 87.132812 L 79.414062 86.542969 L 79.707031 85.226562 L 82.351562 85.375 L 82.5 83.171875 L 84.847656 81.414062 L 85.878906 81.414062 L 86.914062 83.171875 L 89.261719 81.988281 L 89.558594 81.839844 L 90.738281 81.839844 L 91.476562 80.378906 L 93.234375 79.488281 L 93.527344 78.601562 C 93.527344 78.601562 96.171875 75.214844 97.191406 74.9375 C 98.222656 74.640625 98.945312 74.640625 98.945312 74.640625 C 98.945312 74.640625 98.796875 72.734375 99.09375 72.289062 C 99.390625 71.847656 99.980469 71.402344 99.980469 71.402344 L 98.945312 69.941406 L 100.128906 68.902344 L 100.128906 67.144531 L 100.867188 66.703125 L 100.570312 65.238281 L 101.605469 65.535156 L 101.605469 64.21875 L 102.046875 63.628906 L 102.195312 60.242188 L 102.785156 59.503906 L 102.785156 57.59375 L 103.378906 57.152344 L 103.96875 55.539062 C 103.96875 55.539062 105.152344 53.929688 105.152344 53.78125 C 105.152344 53.632812 105.445312 52.894531 105.296875 51.875 C 105.152344 50.839844 104.558594 50.265625 104.558594 50.265625 L 105.003906 50.117188 C 105.003906 50.117188 105.59375 48.503906 105.59375 48.210938 C 105.59375 47.914062 105.152344 46.597656 105.152344 46.597656 L 103.96875 44.691406 L 103.820312 44.25 L 104.707031 43.359375 L 106.019531 43.359375 L 107.332031 42.769531 L 107.398438 0 L 103.738281 1.464844 L 98.601562 3.515625 L 97.863281 3.8125 L 95.515625 4.109375 L 90.671875 6.609375 L 89.933594 6.902344 L 89.046875 6.902344 L 78.199219 15.863281 L 75.257812 16.007812 L 71.597656 14.84375 L 65.871094 17.636719 L 63.523438 17.636719 L 60.140625 19.246094 L 55.152344 16.453125 L 52.65625 16.15625 L 50.605469 17.472656 L 47.371094 16.734375 L 49.421875 15.550781 L 52.066406 15.105469 L 54.558594 14.957031 L 52.359375 14.367188 L 52.230469 12.640625 L 50.753906 14.695312 L 48.40625 14.25 L 46.351562 12.195312 L 44.152344 11.457031 L 40.199219 8.808594 L 36.667969 8.957031 L 37.113281 7.921875 Z M 4.90625 9.039062 " fill-opacity="1" fill-rule="nonzero"/></g></svg>