<svg xmlns="http://www.w3.org/2000/svg" xmlns:xlink="http://www.w3.org/1999/xlink" width="150" zoomAndPan="magnify" viewBox="0 0 112.5 112.499997" height="150" preserveAspectRatio="xMidYMid meet" version="1.0"><defs><clipPath id="e631cda43d"><path d="M 9.03125 0 L 103.113281 0 L 103.113281 112 L 9.03125 112 Z M 9.03125 0 " clip-rule="nonzero"/></clipPath></defs><g clip-path="url(#e631cda43d)"><path fill="#000000" d="M 102.367188 89.796875 C 101.777344 89.5625 101.363281 89.152344 101.128906 88.558594 C 100.964844 88.183594 100.777344 87.808594 100.644531 87.402344 C 100.347656 86.304688 99.835938 85.3125 99.109375 84.433594 C 98.757812 84.078125 98.585938 83.644531 98.601562 83.144531 C 98.636719 82.644531 98.476562 82.214844 98.125 81.855469 C 95.3125 79.300781 92.5 76.746094 89.691406 74.195312 C 86.433594 71.234375 83.183594 68.269531 79.9375 65.304688 C 77.644531 63.214844 75.335938 61.140625 73.042969 59.046875 C 70.582031 56.8125 68.121094 54.574219 65.667969 52.332031 C 63.449219 50.316406 61.226562 48.304688 59.003906 46.292969 C 58.402344 45.746094 57.804688 45.199219 57.195312 44.664062 C 57.183594 44.660156 57.171875 44.660156 57.160156 44.664062 C 55.84375 43.390625 53.847656 41.488281 53.820312 41.464844 C 52.394531 40.171875 50.53125 38.648438 49.089844 37.375 C 48.851562 37.179688 48.742188 36.929688 48.761719 36.625 C 48.761719 36.074219 48.777344 35.523438 48.777344 34.976562 C 48.777344 31.582031 48.777344 28.191406 48.777344 24.800781 C 48.777344 20.949219 48.773438 17.097656 48.757812 13.246094 C 48.757812 9.199219 48.757812 5.152344 48.757812 1.101562 C 48.757812 0.816406 48.675781 0.722656 48.378906 0.722656 C 47.058594 0.722656 45.75 0.691406 44.410156 0.675781 C 39.90625 0.601562 35.402344 0.535156 30.90625 0.472656 C 27.199219 0.429688 23.492188 0.367188 19.78125 0.296875 C 17.972656 0.257812 16.164062 0.15625 14.355469 0.0976562 C 13.289062 0.0976562 12.21875 0.0976562 11.109375 0.0976562 C 11.199219 0.210938 11.304688 0.34375 11.414062 0.472656 C 11.636719 0.746094 11.910156 1.007812 11.828125 1.402344 C 11.699219 2.03125 11.5625 2.65625 11.410156 3.28125 C 11.300781 3.722656 11.34375 3.832031 11.785156 3.949219 C 11.96875 3.972656 12.113281 4.058594 12.222656 4.207031 C 12.328125 4.355469 12.367188 4.519531 12.335938 4.699219 C 12.316406 4.882812 12.34375 5.0625 12.414062 5.234375 C 12.753906 6.035156 12.648438 6.847656 12.507812 7.664062 C 12.414062 8.046875 12.359375 8.433594 12.339844 8.824219 C 12.378906 9.375 12.238281 9.875 11.921875 10.324219 C 11.777344 10.523438 11.707031 10.742188 11.707031 10.984375 C 11.707031 11.230469 11.777344 11.449219 11.921875 11.644531 C 12.023438 11.835938 12.046875 12.039062 11.984375 12.246094 C 11.824219 12.703125 11.632812 13.144531 11.414062 13.574219 C 10.96875 14.480469 10.503906 15.371094 10.058594 16.273438 C 9.769531 16.875 9.507812 17.484375 9.222656 18.085938 C 8.996094 18.433594 8.996094 18.78125 9.222656 19.125 C 9.472656 19.457031 9.523438 19.8125 9.378906 20.199219 C 9.265625 20.492188 9.257812 20.789062 9.355469 21.085938 C 9.453125 21.386719 9.632812 21.621094 9.894531 21.792969 C 10.269531 22.078125 10.644531 22.390625 11.023438 22.660156 C 11.160156 22.730469 11.265625 22.835938 11.335938 22.976562 C 11.40625 23.113281 11.425781 23.257812 11.398438 23.414062 C 11.363281 23.742188 11.457031 24.027344 11.683594 24.269531 C 12.234375 24.980469 12.738281 25.71875 13.203125 26.488281 C 13.492188 26.96875 13.671875 27.484375 13.742188 28.039062 C 13.8125 28.59375 13.769531 29.140625 13.613281 29.675781 C 13.273438 30.800781 13.652344 31.808594 13.835938 32.851562 C 13.957031 33.511719 14.214844 34.144531 14.398438 34.800781 C 14.5 35.144531 14.445312 35.464844 14.226562 35.753906 C 14.066406 35.960938 13.992188 36.195312 13.996094 36.453125 C 14 36.714844 14.085938 36.945312 14.25 37.144531 C 14.859375 37.894531 15.554688 38.597656 16.210938 39.320312 C 16.609375 39.691406 16.960938 40.105469 17.265625 40.558594 C 17.488281 41.007812 17.800781 41.382812 18.207031 41.683594 C 18.808594 42.050781 19.1875 42.582031 19.332031 43.273438 C 19.445312 43.578125 19.597656 43.855469 19.800781 44.105469 C 19.921875 44.257812 20.019531 44.421875 20.089844 44.601562 C 20.21875 45.386719 20.34375 46.183594 19.890625 46.925781 C 19.816406 47.050781 19.773438 47.1875 19.761719 47.332031 C 19.761719 47.460938 19.742188 47.671875 19.8125 47.707031 C 19.957031 47.761719 20.101562 47.761719 20.246094 47.707031 C 20.355469 47.667969 20.4375 47.542969 20.515625 47.441406 C 20.761719 47.121094 21.023438 47.140625 21.269531 47.46875 C 21.507812 47.792969 21.769531 48.101562 22.046875 48.394531 C 22.277344 48.664062 22.570312 48.777344 22.921875 48.734375 C 23.066406 48.734375 23.253906 48.894531 23.382812 49.027344 C 23.585938 49.242188 23.722656 49.550781 23.964844 49.703125 C 24.210938 49.84375 24.472656 49.890625 24.753906 49.839844 C 24.871094 49.8125 24.953125 49.464844 24.976562 49.238281 C 25.039062 48.683594 24.78125 48.113281 25.160156 47.566406 C 25.210938 47.488281 25.160156 47.316406 25.101562 47.191406 C 25.046875 47.070312 24.980469 46.878906 24.929688 46.714844 C 24.882812 46.625 24.882812 46.539062 24.929688 46.449219 C 24.980469 46.359375 25.054688 46.3125 25.15625 46.304688 C 25.402344 46.246094 25.652344 46.214844 25.90625 46.214844 C 26.074219 46.195312 26.226562 46.230469 26.371094 46.320312 C 26.511719 46.410156 26.609375 46.535156 26.660156 46.695312 C 26.722656 46.863281 26.835938 46.976562 27 47.039062 C 27.53125 47.183594 28.0625 47.253906 28.503906 46.765625 C 28.675781 46.605469 28.859375 46.464844 29.058594 46.339844 C 29.027344 47 29.484375 46.976562 29.871094 47.066406 C 29.648438 47.101562 29.425781 47.117188 29.199219 47.117188 C 28.964844 47.101562 28.734375 47.128906 28.511719 47.203125 C 28.1875 47.398438 27.851562 47.425781 27.5 47.28125 C 26.703125 46.976562 26.105469 47.394531 25.53125 47.835938 C 25.390625 47.960938 25.328125 48.117188 25.347656 48.308594 C 25.613281 48.941406 25.925781 49.558594 26.226562 50.183594 C 26.253906 50.234375 26.324219 50.269531 26.375 50.316406 C 26.933594 50.871094 27.5 51.417969 27.460938 52.3125 C 27.496094 52.558594 27.582031 52.785156 27.710938 53 C 27.761719 53.109375 27.828125 53.210938 27.886719 53.320312 L 27.769531 53.398438 C 27.664062 53.269531 27.574219 53.125 27.503906 52.972656 C 27.402344 52.652344 27.183594 52.46875 26.851562 52.425781 C 26.632812 52.378906 26.410156 52.351562 26.1875 52.339844 C 25.917969 52.339844 25.761719 52.214844 25.785156 51.929688 C 25.847656 51.554688 25.886719 51.179688 25.902344 50.804688 C 25.898438 50.546875 25.820312 50.316406 25.675781 50.105469 C 25.570312 49.984375 25.441406 49.914062 25.28125 49.894531 C 25.125 49.875 24.980469 49.910156 24.851562 50.003906 C 24.675781 50.152344 24.570312 50.34375 24.542969 50.574219 C 24.433594 51.195312 24.359375 51.820312 24.324219 52.449219 C 24.304688 52.785156 24.277344 53.230469 24.460938 53.445312 C 24.824219 53.890625 25.074219 54.390625 25.210938 54.945312 C 25.277344 55.203125 25.257812 55.453125 25.160156 55.695312 C 24.941406 56.171875 24.960938 56.636719 25.214844 57.089844 C 25.308594 57.261719 25.371094 57.445312 25.394531 57.636719 C 25.4375 58.015625 25.632812 58.289062 25.976562 58.449219 C 26.261719 58.589844 26.484375 58.796875 26.644531 59.070312 C 27.019531 59.800781 27.433594 60.105469 28.238281 60.089844 C 28.578125 60.054688 28.917969 60.054688 29.261719 60.089844 C 29.488281 60.125 29.816406 60.269531 29.886719 60.464844 C 30.289062 61.472656 30.507812 62.515625 30.058594 63.582031 C 29.945312 63.863281 29.796875 63.886719 29.566406 63.648438 C 29.480469 63.53125 29.363281 63.488281 29.21875 63.515625 C 29.074219 63.546875 28.980469 63.632812 28.945312 63.773438 C 28.683594 64.574219 28.710938 65.367188 29.027344 66.148438 C 29.109375 66.324219 29.164062 66.507812 29.1875 66.703125 C 29.25 67.382812 29.441406 67.964844 30.109375 68.320312 C 30.792969 68.734375 31.335938 69.289062 31.738281 69.980469 C 32.039062 70.386719 32.375 70.761719 32.746094 71.105469 C 33.007812 71.339844 33.15625 71.628906 33.191406 71.976562 C 33.253906 72.375 33.390625 72.742188 33.609375 73.078125 C 33.984375 73.65625 34.4375 74.175781 34.832031 74.742188 C 35.128906 75.222656 35.503906 75.636719 35.957031 75.980469 C 36.277344 76.261719 36.554688 76.574219 36.800781 76.921875 C 37.019531 77.230469 37.273438 77.515625 37.550781 77.777344 C 37.863281 77.96875 38.105469 78.226562 38.28125 78.546875 C 38.453125 78.867188 38.535156 79.210938 38.523438 79.578125 C 38.558594 80.0625 38.683594 80.523438 38.902344 80.957031 C 39.101562 81.421875 39.550781 81.511719 40.027344 81.519531 C 40.601562 81.519531 40.726562 81.695312 40.617188 82.25 C 40.585938 82.417969 40.539062 82.582031 40.503906 82.75 C 40.398438 83.226562 40.3125 83.695312 40.660156 84.136719 C 40.742188 84.285156 40.785156 84.449219 40.78125 84.621094 C 40.820312 85.035156 40.839844 85.457031 40.871094 85.871094 C 40.9375 86.289062 40.851562 86.671875 40.621094 87.023438 C 40.304688 87.480469 40.421875 87.777344 40.878906 88.109375 C 41.253906 88.386719 41.613281 88.683594 41.957031 89 C 42.242188 89.292969 42.585938 89.398438 42.992188 89.316406 C 43.722656 89.144531 44.445312 89.167969 45.164062 89.394531 C 45.40625 89.480469 45.65625 89.519531 45.914062 89.515625 C 46.398438 89.488281 46.84375 89.605469 47.253906 89.867188 C 47.566406 90.085938 47.890625 90.09375 48.214844 89.890625 C 48.367188 89.8125 48.519531 89.8125 48.671875 89.890625 C 49.046875 90.21875 49.5 90.191406 49.96875 90.191406 C 50.414062 90.160156 50.84375 90.230469 51.261719 90.402344 C 52.511719 91.09375 53.726562 91.847656 54.398438 93.207031 C 54.617188 93.699219 54.992188 93.984375 55.527344 94.058594 C 56.023438 94.125 56.484375 94.289062 56.910156 94.550781 C 57.070312 94.640625 57.242188 94.695312 57.429688 94.707031 C 58.066406 94.742188 58.703125 94.734375 59.335938 94.683594 C 60.574219 94.539062 61.125 94.8125 61.625 95.949219 C 61.863281 96.363281 61.894531 96.789062 61.714844 97.230469 C 61.453125 97.78125 61.574219 98.011719 62.253906 98.457031 C 62.652344 98.71875 62.796875 98.695312 63.214844 98.285156 C 63.808594 97.707031 64.316406 97.6875 64.925781 98.25 C 65.175781 98.484375 65.40625 98.734375 65.621094 99 C 65.847656 99.347656 66.164062 99.53125 66.578125 99.554688 C 66.835938 99.585938 67.054688 99.695312 67.238281 99.875 C 67.59375 100.214844 67.867188 100.644531 68.242188 100.953125 C 68.878906 101.472656 69.632812 101.859375 70.226562 102.421875 C 71.597656 103.714844 72.257812 105.421875 72.792969 107.1875 C 72.84375 107.382812 72.828125 107.570312 72.75 107.757812 C 72.632812 108.035156 72.597656 108.320312 72.648438 108.617188 C 72.699219 108.914062 72.824219 109.175781 73.023438 109.402344 C 73.519531 110.089844 74.082031 110.746094 74.285156 111.59375 C 74.351562 111.851562 74.472656 111.90625 74.695312 111.878906 L 76.054688 111.714844 L 80.941406 111.140625 C 82.800781 110.917969 84.65625 110.679688 86.511719 110.460938 C 88.164062 110.261719 89.8125 110.085938 91.464844 109.890625 C 93.113281 109.695312 94.808594 109.472656 96.480469 109.269531 C 97.3125 109.167969 98.15625 109.132812 98.824219 108.519531 C 98.960938 108.429688 99.105469 108.40625 99.261719 108.453125 C 99.402344 108.5 99.542969 108.496094 99.679688 108.4375 C 99.820312 108.382812 99.921875 108.289062 99.988281 108.15625 C 100.203125 107.863281 100.472656 107.605469 100.671875 107.308594 C 100.789062 107.125 100.84375 106.921875 100.839844 106.707031 C 100.839844 106.351562 100.71875 105.992188 100.699219 105.636719 C 100.710938 105.503906 100.699219 105.375 100.652344 105.25 C 100.609375 105.125 100.542969 105.011719 100.449219 104.917969 C 100.355469 104.820312 100.246094 104.75 100.121094 104.703125 C 100 104.65625 99.871094 104.636719 99.738281 104.644531 C 99.527344 104.640625 99.316406 104.625 99.109375 104.59375 C 98.503906 104.484375 98.464844 104.429688 98.699219 103.84375 C 98.804688 103.625 98.835938 103.394531 98.785156 103.15625 C 98.734375 102.917969 98.617188 102.71875 98.429688 102.5625 C 98.335938 102.472656 98.261719 102.359375 98.175781 102.261719 C 98.066406 102.164062 98.015625 102.039062 98.027344 101.890625 C 98.039062 101.742188 98.101562 101.625 98.226562 101.542969 C 98.496094 101.28125 98.746094 101 98.976562 100.703125 C 99.316406 100.253906 99.628906 99.785156 99.921875 99.304688 C 100.0625 99.097656 100.140625 98.867188 100.152344 98.613281 C 100.152344 97.871094 100.113281 97.125 100.03125 96.386719 C 99.882812 95.597656 100.078125 94.910156 100.613281 94.3125 C 100.757812 94.113281 100.882812 93.902344 100.988281 93.675781 C 101.121094 93.441406 101.269531 93.214844 101.433594 92.996094 C 101.890625 92.429688 102.40625 91.898438 102.828125 91.304688 C 102.929688 91.183594 102.996094 91.042969 103.03125 90.886719 C 103.0625 90.730469 103.054688 90.578125 103.007812 90.425781 C 102.960938 90.273438 102.882812 90.140625 102.769531 90.03125 C 102.65625 89.917969 102.519531 89.839844 102.367188 89.796875 Z M 102.367188 89.796875 " fill-opacity="1" fill-rule="nonzero"/></g><path fill="#000000" d="M 50.414062 94.070312 C 49.945312 94.222656 49.511719 94.15625 49.113281 93.871094 C 48.96875 93.78125 48.808594 93.730469 48.636719 93.71875 C 48.296875 93.679688 47.960938 93.652344 47.621094 93.640625 C 47.367188 93.640625 47.246094 93.78125 47.28125 94.042969 C 47.402344 94.863281 47.707031 95.148438 48.53125 95.199219 C 48.609375 95.214844 48.6875 95.222656 48.765625 95.226562 C 49.113281 95.238281 49.460938 95.214844 49.804688 95.152344 C 50.25 95.007812 50.6875 94.839844 51.113281 94.640625 C 51.402344 94.523438 51.488281 94.347656 51.257812 94.054688 C 50.976562 94.027344 50.695312 94.03125 50.414062 94.070312 Z M 50.414062 94.070312 " fill-opacity="1" fill-rule="nonzero"/><path fill="#000000" d="M 61.609375 101.015625 C 61.203125 100.699219 60.742188 100.535156 60.226562 100.53125 C 59.890625 100.554688 59.765625 100.738281 59.957031 101.011719 C 60.105469 101.207031 60.289062 101.367188 60.5 101.492188 C 60.753906 101.664062 61.003906 101.804688 61.023438 102.167969 C 61.0625 102.3125 61.144531 102.414062 61.28125 102.476562 C 61.65625 102.625 62.042969 102.738281 62.441406 102.8125 C 63.027344 102.917969 63.25 102.617188 63.039062 102.003906 C 62.554688 101.660156 62.089844 101.324219 61.609375 101.015625 Z M 61.609375 101.015625 " fill-opacity="1" fill-rule="nonzero"/><path fill="#000000" d="M 60.585938 105.6875 C 60.410156 105.488281 60.1875 105.292969 59.914062 105.488281 C 59.636719 105.683594 59.753906 105.957031 59.871094 106.191406 C 60.03125 106.429688 60.164062 106.679688 60.269531 106.941406 C 60.390625 107.378906 60.652344 107.695312 61.058594 107.890625 L 61.433594 108.097656 C 61.695312 108.25 61.960938 108.589844 62.253906 108.269531 C 62.546875 107.945312 62.230469 107.628906 62.03125 107.378906 C 61.5625 106.800781 61.070312 106.246094 60.585938 105.6875 Z M 60.585938 105.6875 " fill-opacity="1" fill-rule="nonzero"/><path fill="#000000" d="M 46.882812 94.78125 C 46.730469 94.71875 46.625 94.613281 46.558594 94.460938 C 46.390625 93.90625 46.183594 93.804688 45.640625 94.054688 C 45.445312 94.160156 45.238281 94.222656 45.019531 94.242188 C 44.332031 94.242188 44.1875 94.480469 44.484375 95.109375 C 44.523438 95.191406 44.570312 95.269531 44.628906 95.375 C 44.882812 95.851562 45.28125 96.09375 45.570312 95.871094 C 45.925781 95.625 46.320312 95.539062 46.75 95.613281 C 46.972656 95.613281 47.171875 95.570312 47.199219 95.292969 C 47.222656 95.179688 47.203125 95.074219 47.144531 94.976562 C 47.082031 94.878906 46.996094 94.8125 46.882812 94.78125 Z M 46.882812 94.78125 " fill-opacity="1" fill-rule="nonzero"/><path fill="#000000" d="M 42.898438 93.699219 C 42.714844 93.738281 42.554688 93.820312 42.414062 93.9375 C 42.109375 94.171875 42.144531 94.402344 42.496094 94.542969 C 42.691406 94.605469 42.890625 94.652344 43.09375 94.683594 C 43.3125 94.605469 43.628906 94.558594 43.667969 94.425781 C 43.730469 94.179688 43.6875 93.957031 43.535156 93.753906 C 43.417969 93.636719 43.105469 93.667969 42.898438 93.699219 Z M 42.898438 93.699219 " fill-opacity="1" fill-rule="nonzero"/></svg>