<svg xmlns="http://www.w3.org/2000/svg" xmlns:xlink="http://www.w3.org/1999/xlink" width="150" zoomAndPan="magnify" viewBox="0 0 112.5 112.499997" height="150" preserveAspectRatio="xMidYMid meet" version="1.0"><defs><clipPath id="b0c286ab51"><path d="M 9.03125 0 L 103 0 L 103 112 L 9.03125 112 Z M 9.03125 0 " clip-rule="nonzero"/></clipPath></defs><g clip-path="url(#b0c286ab51)"><path fill="#f5f5f4" d="M 102.230469 89.796875 C 101.636719 89.5625 101.226562 89.152344 100.992188 88.558594 C 100.828125 88.183594 100.640625 87.808594 100.511719 87.402344 C 100.210938 86.304688 99.699219 85.3125 98.976562 84.433594 C 98.625 84.078125 98.453125 83.644531 98.46875 83.144531 C 98.5 82.644531 98.34375 82.214844 97.992188 81.855469 C 95.183594 79.300781 92.375 76.746094 89.570312 74.195312 C 86.316406 71.234375 83.070312 68.269531 79.832031 65.304688 C 77.539062 63.214844 75.234375 61.140625 72.945312 59.046875 C 70.488281 56.8125 68.035156 54.574219 65.582031 52.332031 C 63.367188 50.316406 61.152344 48.304688 58.929688 46.292969 C 58.328125 45.746094 57.730469 45.199219 57.125 44.664062 C 57.113281 44.660156 57.101562 44.660156 57.089844 44.664062 C 55.773438 43.390625 53.777344 41.488281 53.753906 41.464844 C 52.332031 40.171875 50.46875 38.648438 49.03125 37.375 C 48.792969 37.179688 48.683594 36.929688 48.703125 36.625 C 48.703125 36.074219 48.71875 35.523438 48.71875 34.976562 C 48.71875 31.582031 48.71875 28.191406 48.71875 24.800781 C 48.71875 20.949219 48.710938 17.097656 48.699219 13.246094 C 48.699219 9.199219 48.699219 5.152344 48.699219 1.101562 C 48.699219 0.816406 48.617188 0.722656 48.320312 0.722656 C 47 0.722656 45.695312 0.691406 44.359375 0.675781 C 39.859375 0.601562 35.363281 0.535156 30.875 0.472656 C 27.171875 0.429688 23.46875 0.367188 19.765625 0.296875 C 17.957031 0.257812 16.152344 0.15625 14.347656 0.0976562 C 13.28125 0.0976562 12.210938 0.0976562 11.105469 0.0976562 C 11.195312 0.210938 11.300781 0.34375 11.410156 0.472656 C 11.632812 0.746094 11.90625 1.007812 11.824219 1.402344 C 11.695312 2.03125 11.558594 2.65625 11.40625 3.28125 C 11.296875 3.722656 11.339844 3.832031 11.78125 3.949219 C 11.964844 3.972656 12.109375 4.058594 12.214844 4.207031 C 12.324219 4.355469 12.363281 4.519531 12.328125 4.699219 C 12.3125 4.882812 12.335938 5.0625 12.40625 5.234375 C 12.75 6.035156 12.644531 6.847656 12.5 7.664062 C 12.410156 8.046875 12.355469 8.433594 12.335938 8.824219 C 12.371094 9.375 12.234375 9.875 11.917969 10.324219 C 11.773438 10.523438 11.703125 10.742188 11.703125 10.984375 C 11.703125 11.230469 11.773438 11.449219 11.917969 11.644531 C 12.019531 11.835938 12.039062 12.039062 11.980469 12.246094 C 11.820312 12.703125 11.628906 13.144531 11.410156 13.574219 C 10.96875 14.480469 10.5 15.371094 10.058594 16.273438 C 9.769531 16.875 9.507812 17.484375 9.222656 18.085938 C 8.996094 18.433594 8.996094 18.78125 9.222656 19.125 C 9.472656 19.457031 9.523438 19.8125 9.378906 20.199219 C 9.265625 20.492188 9.257812 20.789062 9.355469 21.085938 C 9.453125 21.386719 9.632812 21.621094 9.894531 21.792969 C 10.269531 22.078125 10.644531 22.390625 11.019531 22.660156 C 11.15625 22.730469 11.261719 22.835938 11.332031 22.976562 C 11.402344 23.113281 11.421875 23.257812 11.394531 23.414062 C 11.359375 23.742188 11.453125 24.027344 11.679688 24.269531 C 12.230469 24.980469 12.734375 25.71875 13.195312 26.488281 C 13.484375 26.96875 13.664062 27.484375 13.734375 28.039062 C 13.808594 28.59375 13.761719 29.140625 13.605469 29.675781 C 13.265625 30.800781 13.648438 31.808594 13.832031 32.851562 C 13.949219 33.511719 14.207031 34.144531 14.390625 34.800781 C 14.492188 35.144531 14.4375 35.464844 14.21875 35.753906 C 14.058594 35.960938 13.984375 36.195312 13.988281 36.453125 C 13.992188 36.714844 14.078125 36.945312 14.242188 37.144531 C 14.851562 37.894531 15.546875 38.597656 16.199219 39.320312 C 16.597656 39.691406 16.949219 40.105469 17.253906 40.558594 C 17.472656 41.007812 17.785156 41.382812 18.191406 41.683594 C 18.796875 42.050781 19.171875 42.582031 19.316406 43.273438 C 19.429688 43.578125 19.582031 43.855469 19.78125 44.105469 C 19.90625 44.257812 20.003906 44.421875 20.070312 44.601562 C 20.203125 45.386719 20.328125 46.183594 19.875 46.925781 C 19.800781 47.050781 19.757812 47.1875 19.746094 47.332031 C 19.746094 47.460938 19.726562 47.671875 19.796875 47.707031 C 19.941406 47.761719 20.085938 47.761719 20.230469 47.707031 C 20.339844 47.667969 20.421875 47.542969 20.5 47.441406 C 20.742188 47.121094 21.007812 47.140625 21.25 47.46875 C 21.488281 47.792969 21.75 48.101562 22.027344 48.394531 C 22.257812 48.664062 22.550781 48.777344 22.902344 48.734375 C 23.042969 48.734375 23.230469 48.894531 23.359375 49.027344 C 23.566406 49.242188 23.703125 49.550781 23.941406 49.703125 C 24.1875 49.84375 24.449219 49.890625 24.730469 49.839844 C 24.847656 49.8125 24.929688 49.464844 24.949219 49.238281 C 25.015625 48.683594 24.757812 48.113281 25.136719 47.566406 C 25.1875 47.488281 25.136719 47.316406 25.078125 47.191406 C 25.023438 47.070312 24.957031 46.878906 24.90625 46.714844 C 24.859375 46.625 24.859375 46.539062 24.90625 46.449219 C 24.957031 46.359375 25.03125 46.3125 25.132812 46.304688 C 25.378906 46.246094 25.628906 46.214844 25.882812 46.214844 C 26.046875 46.195312 26.203125 46.230469 26.34375 46.320312 C 26.484375 46.410156 26.582031 46.535156 26.632812 46.695312 C 26.695312 46.863281 26.808594 46.976562 26.972656 47.039062 C 27.503906 47.183594 28.03125 47.253906 28.476562 46.765625 C 28.648438 46.605469 28.832031 46.464844 29.027344 46.339844 C 28.996094 47 29.453125 46.976562 29.839844 47.066406 C 29.617188 47.101562 29.394531 47.117188 29.167969 47.117188 C 28.933594 47.101562 28.707031 47.128906 28.484375 47.203125 C 28.160156 47.398438 27.824219 47.425781 27.472656 47.28125 C 26.675781 46.976562 26.082031 47.394531 25.507812 47.835938 C 25.363281 47.960938 25.304688 48.117188 25.324219 48.308594 C 25.589844 48.941406 25.902344 49.558594 26.199219 50.183594 C 26.226562 50.234375 26.296875 50.269531 26.347656 50.316406 C 26.90625 50.871094 27.472656 51.417969 27.433594 52.3125 C 27.46875 52.558594 27.554688 52.785156 27.683594 53 C 27.730469 53.109375 27.800781 53.210938 27.859375 53.320312 L 27.738281 53.398438 C 27.636719 53.269531 27.546875 53.125 27.476562 52.972656 C 27.375 52.652344 27.15625 52.46875 26.824219 52.425781 C 26.605469 52.378906 26.386719 52.351562 26.164062 52.339844 C 25.894531 52.339844 25.734375 52.214844 25.761719 51.929688 C 25.824219 51.554688 25.863281 51.179688 25.878906 50.804688 C 25.871094 50.546875 25.796875 50.316406 25.648438 50.105469 C 25.546875 49.984375 25.417969 49.914062 25.257812 49.894531 C 25.101562 49.875 24.957031 49.910156 24.828125 50.003906 C 24.652344 50.152344 24.546875 50.34375 24.519531 50.574219 C 24.410156 51.195312 24.339844 51.820312 24.300781 52.449219 C 24.28125 52.785156 24.253906 53.230469 24.4375 53.445312 C 24.800781 53.890625 25.050781 54.390625 25.1875 54.945312 C 25.253906 55.203125 25.234375 55.453125 25.136719 55.695312 C 24.917969 56.171875 24.933594 56.636719 25.191406 57.089844 C 25.285156 57.261719 25.34375 57.445312 25.371094 57.636719 C 25.414062 58.015625 25.605469 58.289062 25.953125 58.449219 C 26.234375 58.589844 26.457031 58.796875 26.617188 59.070312 C 26.992188 59.800781 27.40625 60.105469 28.207031 60.089844 C 28.550781 60.054688 28.890625 60.054688 29.230469 60.089844 C 29.457031 60.125 29.785156 60.269531 29.855469 60.464844 C 30.257812 61.472656 30.476562 62.515625 30.027344 63.582031 C 29.914062 63.863281 29.765625 63.886719 29.539062 63.648438 C 29.449219 63.53125 29.332031 63.488281 29.1875 63.515625 C 29.042969 63.546875 28.953125 63.632812 28.914062 63.773438 C 28.652344 64.574219 28.679688 65.367188 28.996094 66.148438 C 29.078125 66.324219 29.132812 66.507812 29.160156 66.703125 C 29.21875 67.382812 29.410156 67.964844 30.078125 68.320312 C 30.761719 68.734375 31.300781 69.289062 31.703125 69.980469 C 32.003906 70.386719 32.339844 70.761719 32.710938 71.105469 C 32.972656 71.339844 33.121094 71.628906 33.15625 71.976562 C 33.214844 72.375 33.355469 72.742188 33.570312 73.078125 C 33.949219 73.65625 34.402344 74.175781 34.792969 74.742188 C 35.089844 75.222656 35.464844 75.636719 35.917969 75.980469 C 36.234375 76.261719 36.515625 76.574219 36.757812 76.921875 C 36.980469 77.230469 37.230469 77.515625 37.507812 77.777344 C 37.820312 77.96875 38.0625 78.226562 38.238281 78.546875 C 38.410156 78.867188 38.492188 79.210938 38.480469 79.578125 C 38.515625 80.0625 38.640625 80.523438 38.855469 80.957031 C 39.054688 81.421875 39.507812 81.511719 39.984375 81.519531 C 40.554688 81.519531 40.679688 81.695312 40.570312 82.25 C 40.539062 82.417969 40.492188 82.582031 40.457031 82.75 C 40.351562 83.226562 40.269531 83.695312 40.613281 84.136719 C 40.695312 84.285156 40.738281 84.449219 40.734375 84.621094 C 40.773438 85.035156 40.792969 85.457031 40.824219 85.871094 C 40.886719 86.289062 40.804688 86.671875 40.574219 87.023438 C 40.257812 87.480469 40.375 87.777344 40.832031 88.109375 C 41.207031 88.386719 41.566406 88.683594 41.90625 89 C 42.195312 89.292969 42.539062 89.398438 42.941406 89.316406 C 43.671875 89.144531 44.394531 89.167969 45.109375 89.394531 C 45.351562 89.480469 45.601562 89.519531 45.859375 89.515625 C 46.34375 89.488281 46.789062 89.605469 47.195312 89.867188 C 47.511719 90.085938 47.832031 90.09375 48.15625 89.890625 C 48.308594 89.8125 48.460938 89.8125 48.609375 89.890625 C 48.988281 90.21875 49.441406 90.191406 49.90625 90.191406 C 50.351562 90.160156 50.785156 90.230469 51.195312 90.402344 C 52.445312 91.09375 53.660156 91.847656 54.332031 93.207031 C 54.546875 93.699219 54.921875 93.984375 55.457031 94.058594 C 55.953125 94.125 56.414062 94.289062 56.839844 94.550781 C 57 94.640625 57.171875 94.695312 57.355469 94.707031 C 57.992188 94.742188 58.628906 94.734375 59.261719 94.683594 C 60.496094 94.539062 61.050781 94.8125 61.546875 95.949219 C 61.785156 96.363281 61.8125 96.789062 61.632812 97.230469 C 61.375 97.78125 61.496094 98.011719 62.175781 98.457031 C 62.574219 98.71875 62.714844 98.695312 63.136719 98.285156 C 63.730469 97.707031 64.234375 97.6875 64.84375 98.25 C 65.09375 98.484375 65.324219 98.734375 65.539062 99 C 65.761719 99.347656 66.078125 99.53125 66.492188 99.554688 C 66.746094 99.585938 66.96875 99.695312 67.152344 99.875 C 67.507812 100.214844 67.777344 100.644531 68.152344 100.953125 C 68.789062 101.472656 69.542969 101.859375 70.136719 102.421875 C 71.503906 103.714844 72.164062 105.421875 72.699219 107.1875 C 72.746094 107.382812 72.730469 107.570312 72.652344 107.757812 C 72.539062 108.035156 72.503906 108.320312 72.554688 108.617188 C 72.601562 108.914062 72.726562 109.175781 72.929688 109.402344 C 73.421875 110.089844 73.984375 110.746094 74.1875 111.59375 C 74.253906 111.851562 74.375 111.90625 74.597656 111.878906 L 75.957031 111.714844 L 80.835938 111.140625 C 82.691406 110.917969 84.542969 110.679688 86.398438 110.460938 C 88.046875 110.261719 89.691406 110.085938 91.339844 109.890625 C 92.988281 109.695312 94.679688 109.472656 96.351562 109.269531 C 97.179688 109.167969 98.023438 109.132812 98.691406 108.519531 C 98.824219 108.429688 98.972656 108.40625 99.128906 108.453125 C 99.269531 108.5 99.410156 108.496094 99.546875 108.4375 C 99.683594 108.382812 99.785156 108.289062 99.851562 108.15625 C 100.066406 107.863281 100.335938 107.605469 100.535156 107.308594 C 100.652344 107.125 100.707031 106.921875 100.703125 106.707031 C 100.703125 106.351562 100.582031 105.992188 100.5625 105.636719 C 100.574219 105.503906 100.5625 105.375 100.515625 105.25 C 100.472656 105.125 100.40625 105.011719 100.3125 104.917969 C 100.21875 104.820312 100.113281 104.75 99.988281 104.703125 C 99.863281 104.65625 99.734375 104.636719 99.601562 104.644531 C 99.390625 104.640625 99.183594 104.625 98.976562 104.59375 C 98.371094 104.484375 98.332031 104.429688 98.566406 103.84375 C 98.671875 103.625 98.703125 103.394531 98.652344 103.15625 C 98.601562 102.917969 98.480469 102.71875 98.296875 102.5625 C 98.203125 102.472656 98.128906 102.359375 98.042969 102.261719 C 97.933594 102.164062 97.886719 102.039062 97.894531 101.890625 C 97.90625 101.742188 97.972656 101.625 98.09375 101.542969 C 98.363281 101.28125 98.613281 101 98.84375 100.703125 C 99.179688 100.253906 99.496094 99.785156 99.785156 99.304688 C 99.925781 99.097656 100.003906 98.867188 100.019531 98.613281 C 100.019531 97.871094 99.976562 97.125 99.894531 96.386719 C 99.746094 95.597656 99.941406 94.910156 100.476562 94.3125 C 100.621094 94.113281 100.746094 93.902344 100.851562 93.675781 C 100.984375 93.441406 101.132812 93.214844 101.292969 92.996094 C 101.753906 92.429688 102.265625 91.898438 102.6875 91.304688 C 102.789062 91.183594 102.859375 91.042969 102.890625 90.886719 C 102.921875 90.730469 102.914062 90.578125 102.867188 90.425781 C 102.824219 90.273438 102.742188 90.140625 102.628906 90.03125 C 102.515625 89.917969 102.382812 89.839844 102.230469 89.796875 Z M 102.230469 89.796875 " fill-opacity="1" fill-rule="nonzero"/></g><path fill="#f5f5f4" d="M 50.351562 94.070312 C 49.886719 94.222656 49.453125 94.15625 49.054688 93.871094 C 48.90625 93.78125 48.75 93.730469 48.578125 93.71875 C 48.238281 93.679688 47.902344 93.652344 47.5625 93.640625 C 47.308594 93.640625 47.1875 93.78125 47.226562 94.042969 C 47.347656 94.863281 47.648438 95.148438 48.472656 95.199219 C 48.550781 95.214844 48.625 95.222656 48.703125 95.226562 C 49.054688 95.238281 49.402344 95.214844 49.746094 95.152344 C 50.191406 95.007812 50.625 94.839844 51.050781 94.640625 C 51.339844 94.523438 51.425781 94.347656 51.191406 94.054688 C 50.914062 94.027344 50.632812 94.03125 50.351562 94.070312 Z M 50.351562 94.070312 " fill-opacity="1" fill-rule="nonzero"/><path fill="#f5f5f4" d="M 61.53125 101.015625 C 61.125 100.699219 60.667969 100.535156 60.152344 100.53125 C 59.8125 100.554688 59.691406 100.738281 59.882812 101.011719 C 60.03125 101.207031 60.210938 101.367188 60.421875 101.492188 C 60.675781 101.664062 60.925781 101.804688 60.949219 102.167969 C 60.984375 102.3125 61.070312 102.414062 61.203125 102.476562 C 61.578125 102.625 61.964844 102.738281 62.363281 102.8125 C 62.949219 102.917969 63.167969 102.617188 62.960938 102.003906 C 62.476562 101.660156 62.011719 101.324219 61.53125 101.015625 Z M 61.53125 101.015625 " fill-opacity="1" fill-rule="nonzero"/><path fill="#f5f5f4" d="M 60.507812 105.6875 C 60.332031 105.488281 60.109375 105.292969 59.835938 105.488281 C 59.5625 105.683594 59.679688 105.957031 59.796875 106.191406 C 59.953125 106.429688 60.085938 106.679688 60.195312 106.941406 C 60.3125 107.378906 60.574219 107.695312 60.980469 107.890625 L 61.355469 108.097656 C 61.617188 108.25 61.882812 108.589844 62.175781 108.269531 C 62.46875 107.945312 62.152344 107.628906 61.953125 107.378906 C 61.484375 106.800781 60.992188 106.246094 60.507812 105.6875 Z M 60.507812 105.6875 " fill-opacity="1" fill-rule="nonzero"/><path fill="#f5f5f4" d="M 46.828125 94.78125 C 46.675781 94.71875 46.566406 94.613281 46.5 94.460938 C 46.335938 93.90625 46.125 93.804688 45.585938 94.054688 C 45.390625 94.160156 45.1875 94.222656 44.964844 94.242188 C 44.28125 94.242188 44.132812 94.480469 44.429688 95.109375 C 44.472656 95.191406 44.515625 95.269531 44.578125 95.375 C 44.828125 95.851562 45.226562 96.09375 45.515625 95.871094 C 45.871094 95.625 46.265625 95.539062 46.691406 95.613281 C 46.914062 95.613281 47.113281 95.570312 47.144531 95.292969 C 47.167969 95.179688 47.148438 95.074219 47.085938 94.976562 C 47.027344 94.878906 46.941406 94.8125 46.828125 94.78125 Z M 46.828125 94.78125 " fill-opacity="1" fill-rule="nonzero"/><path fill="#f5f5f4" d="M 42.847656 93.699219 C 42.667969 93.738281 42.507812 93.820312 42.367188 93.9375 C 42.0625 94.171875 42.09375 94.402344 42.445312 94.542969 C 42.640625 94.605469 42.839844 94.652344 43.042969 94.683594 C 43.261719 94.605469 43.578125 94.558594 43.617188 94.425781 C 43.679688 94.179688 43.636719 93.957031 43.484375 93.753906 C 43.367188 93.636719 43.054688 93.667969 42.847656 93.699219 Z M 42.847656 93.699219 " fill-opacity="1" fill-rule="nonzero"/></svg>