<svg xmlns="http://www.w3.org/2000/svg" xmlns:xlink="http://www.w3.org/1999/xlink" width="150" zoomAndPan="magnify" viewBox="0 0 112.5 112.499997" height="150" preserveAspectRatio="xMidYMid meet" version="1.0"><defs><clipPath id="e034cc8616"><path d="M 0 25.761719 L 111 25.761719 L 111 86.242188 L 0 86.242188 Z M 0 25.761719 " clip-rule="nonzero"/></clipPath></defs><g clip-path="url(#e034cc8616)"><path fill="#f5f5f4" d="M 110.175781 71.019531 C 109.894531 71.183594 109.789062 71.058594 109.726562 70.804688 C 109.628906 70.320312 109.367188 69.957031 108.941406 69.710938 C 108.867188 69.667969 108.808594 69.613281 108.761719 69.542969 C 108.609375 69.324219 108.679688 69.167969 108.949219 69.125 C 109.988281 68.972656 110.15625 68.800781 110.292969 67.785156 C 110.335938 67.480469 110.230469 67.417969 109.953125 67.417969 C 107.199219 67.417969 104.445312 67.417969 101.691406 67.417969 C 99.535156 67.417969 97.375 67.425781 95.214844 67.449219 C 95.003906 67.449219 94.832031 67.449219 94.8125 67.144531 C 94.699219 65.558594 94.574219 63.976562 94.457031 62.394531 C 94.328125 60.652344 94.210938 58.914062 94.078125 57.179688 C 93.855469 54.269531 93.628906 51.359375 93.390625 48.457031 C 93.253906 46.722656 93.136719 44.980469 93.007812 43.242188 C 92.847656 41.140625 92.679688 39.035156 92.523438 36.929688 C 92.421875 35.546875 92.324219 34.164062 92.21875 32.78125 C 92.109375 31.316406 92 29.847656 91.886719 28.386719 C 91.820312 27.558594 91.75 26.734375 91.683594 25.882812 C 91.539062 25.882812 91.421875 25.882812 91.308594 25.882812 C 88.558594 25.953125 85.808594 26.027344 83.058594 26.097656 C 79.769531 26.191406 76.484375 26.304688 73.207031 26.394531 C 69.238281 26.5 65.265625 26.601562 61.292969 26.699219 C 60.488281 26.699219 59.675781 26.699219 58.871094 26.730469 C 54.507812 26.828125 50.140625 26.953125 45.777344 27.027344 C 41.746094 27.101562 37.71875 27.113281 33.710938 27.15625 C 30.207031 27.175781 26.707031 27.21875 23.207031 27.21875 C 20.230469 27.21875 17.253906 27.21875 14.253906 27.21875 C 12.441406 27.21875 10.621094 27.21875 8.808594 27.21875 C 6.035156 27.199219 3.257812 27.171875 0.480469 27.136719 C 0.234375 27.136719 0.144531 27.210938 0.144531 27.457031 C 0.144531 28.191406 0.144531 28.933594 0.117188 29.664062 C 0.0820312 34.5 0.0429688 39.34375 0 44.195312 C 0.0117188 44.347656 0.0390625 44.496094 0.0820312 44.644531 C 0.242188 44.59375 0.402344 44.53125 0.554688 44.457031 C 0.789062 44.3125 1.003906 44.148438 1.222656 43.984375 C 1.730469 43.605469 2.269531 43.253906 2.734375 42.828125 C 3.039062 42.515625 3.402344 42.308594 3.824219 42.199219 C 4.527344 42.054688 5.050781 41.664062 5.394531 41.03125 C 5.605469 40.605469 5.882812 40.226562 6.226562 39.898438 C 6.863281 39.339844 7.578125 38.90625 8.371094 38.601562 C 8.667969 38.5 8.921875 38.335938 9.128906 38.097656 C 9.574219 37.582031 9.957031 37.015625 10.363281 36.464844 C 10.578125 36.171875 10.648438 36.195312 10.929688 36.464844 C 11.121094 36.660156 11.351562 36.769531 11.621094 36.800781 C 12.199219 36.800781 12.714844 36.617188 13.167969 36.257812 C 13.902344 35.65625 14.625 35.042969 15.351562 34.433594 C 16.003906 33.886719 16.632812 33.3125 17.589844 33.273438 C 18.378906 33.238281 18.484375 33.125 18.644531 32.328125 C 18.691406 32.199219 18.78125 32.113281 18.914062 32.074219 C 19.011719 32.074219 19.136719 32.207031 19.203125 32.316406 C 19.230469 32.421875 19.230469 32.523438 19.203125 32.628906 C 19.191406 32.777344 19.230469 32.90625 19.328125 33.019531 C 19.425781 33.132812 19.546875 33.195312 19.695312 33.203125 C 19.871094 33.226562 20.046875 33.226562 20.226562 33.203125 C 21.578125 33.003906 22.847656 33.246094 24.035156 33.933594 C 24.445312 34.164062 24.859375 34.175781 25.285156 33.96875 C 25.542969 33.796875 25.816406 33.644531 26.101562 33.519531 C 26.492188 33.398438 26.710938 33.132812 26.761719 32.726562 C 26.804688 32.417969 26.886719 32.121094 27.007812 31.832031 C 27.128906 31.472656 27.378906 31.277344 27.753906 31.246094 C 28.320312 31.183594 28.886719 31.167969 29.445312 31.09375 C 29.660156 31.042969 29.867188 31.058594 30.070312 31.132812 C 30.277344 31.207031 30.445312 31.332031 30.574219 31.503906 C 30.65625 31.644531 30.777344 31.730469 30.933594 31.761719 C 31.089844 31.792969 31.234375 31.761719 31.363281 31.667969 C 31.808594 31.300781 32.371094 31.042969 32.652344 30.476562 C 32.710938 30.351562 32.792969 30.25 32.898438 30.160156 C 33.003906 30.074219 33.121094 30.015625 33.253906 29.980469 C 33.386719 29.949219 33.519531 29.945312 33.65625 29.96875 C 33.789062 29.996094 33.910156 30.046875 34.019531 30.125 C 34.160156 30.25 34.324219 30.316406 34.507812 30.328125 C 34.691406 30.339844 34.859375 30.296875 35.015625 30.195312 C 35.164062 30.089844 35.324219 30.058594 35.503906 30.09375 C 35.679688 30.128906 35.816406 30.226562 35.910156 30.378906 C 36.09375 30.574219 36.304688 30.746094 36.53125 30.890625 C 36.855469 31.105469 37.195312 31.289062 37.527344 31.496094 C 37.859375 31.703125 38.105469 31.867188 38.421875 32.042969 C 38.636719 32.210938 38.875 32.28125 39.144531 32.265625 C 39.414062 32.246094 39.644531 32.140625 39.832031 31.945312 C 40.164062 31.632812 40.507812 31.757812 40.5625 32.21875 C 40.585938 32.59375 40.5625 32.964844 40.484375 33.332031 C 40.445312 33.519531 40.46875 33.699219 40.558594 33.867188 C 40.652344 34.039062 40.785156 34.15625 40.964844 34.226562 C 41.152344 34.296875 41.34375 34.347656 41.542969 34.386719 C 41.710938 34.40625 41.859375 34.476562 41.988281 34.59375 C 42.113281 34.707031 42.195312 34.851562 42.226562 35.019531 C 42.292969 35.390625 42.335938 35.765625 42.375 36.144531 C 42.429688 36.632812 42.46875 37.109375 42.980469 37.386719 C 43.21875 37.527344 43.328125 37.738281 43.296875 38.015625 C 43.296875 38.488281 43.296875 38.964844 43.367188 39.433594 C 43.402344 39.796875 43.546875 40.113281 43.796875 40.378906 C 44.046875 40.644531 44.351562 40.808594 44.710938 40.867188 C 44.964844 40.910156 45.234375 40.886719 45.484375 40.941406 C 45.871094 41.023438 46.246094 41.15625 46.632812 41.246094 C 46.882812 41.332031 47.140625 41.367188 47.40625 41.355469 C 47.894531 41.292969 48.039062 41.324219 48.335938 41.734375 C 48.550781 42.03125 48.757812 42.335938 48.996094 42.628906 C 49.351562 43.050781 49.527344 43.078125 50.046875 42.867188 C 50.164062 42.835938 50.269531 42.855469 50.363281 42.933594 C 50.507812 43.3125 50.46875 43.667969 50.238281 44 C 49.886719 44.429688 49.558594 44.875 49.257812 45.34375 C 49.082031 45.605469 48.988281 45.898438 48.976562 46.214844 C 48.964844 46.535156 49.042969 46.832031 49.203125 47.105469 C 49.621094 47.839844 50.230469 48.347656 51.03125 48.625 C 51.792969 48.886719 52.570312 49.066406 53.367188 49.152344 C 53.609375 49.144531 53.8125 49.222656 53.984375 49.390625 C 54.15625 49.558594 54.238281 49.761719 54.238281 50.003906 C 54.269531 50.414062 54.464844 50.71875 54.824219 50.925781 C 55.050781 51.054688 55.289062 51.148438 55.542969 51.199219 C 56.648438 51.386719 57.710938 51.613281 58.3125 52.722656 C 58.445312 52.96875 58.636719 52.867188 58.792969 52.679688 C 59.242188 52.171875 59.664062 51.675781 60.136719 51.140625 L 63.390625 53.628906 C 62.8125 54.308594 62.300781 54.972656 61.746094 55.566406 C 61.394531 55.898438 61.246094 56.300781 61.296875 56.78125 C 61.34375 57.058594 61.425781 57.328125 61.539062 57.585938 C 61.792969 58.082031 61.769531 58.566406 61.476562 59.039062 C 61.347656 59.269531 61.261719 59.515625 61.214844 59.773438 C 61.152344 60.097656 60.972656 60.332031 60.675781 60.472656 C 60.214844 60.695312 59.894531 61.039062 59.703125 61.511719 C 59.5 62.042969 59.34375 62.589844 59.121094 63.109375 C 59.023438 63.371094 58.855469 63.574219 58.617188 63.71875 C 57.855469 64.09375 57.179688 64.589844 56.59375 65.199219 C 56.246094 65.554688 55.960938 65.953125 55.738281 66.394531 C 55.40625 67.089844 55.234375 67.824219 55.222656 68.59375 C 55.109375 70.054688 55.53125 70.832031 56.691406 71.304688 C 57.5 71.453125 58.246094 71.292969 58.929688 70.832031 C 59.171875 70.722656 59.308594 70.535156 59.328125 70.269531 C 59.351562 70.003906 59.253906 69.792969 59.03125 69.644531 C 58.789062 69.414062 58.5 69.167969 58.617188 68.75 C 59.0625 68.6875 59.253906 68.972656 59.511719 69.199219 C 59.628906 69.335938 59.773438 69.4375 59.941406 69.5 C 60.113281 69.566406 60.285156 69.589844 60.464844 69.566406 C 60.644531 69.542969 60.808594 69.480469 60.957031 69.375 C 61.105469 69.269531 61.21875 69.136719 61.300781 68.972656 C 61.382812 68.808594 61.488281 68.660156 61.617188 68.527344 C 61.707031 68.445312 61.910156 68.371094 61.980469 68.414062 C 62.101562 68.519531 62.175781 68.652344 62.207031 68.808594 C 62.214844 68.929688 62.183594 69.042969 62.117188 69.144531 C 61.832031 69.738281 61.789062 70.347656 61.984375 70.976562 C 62.074219 71.304688 62.125 71.644531 62.128906 71.988281 C 62.101562 72.140625 62.140625 72.28125 62.242188 72.402344 C 62.34375 72.519531 62.472656 72.582031 62.628906 72.582031 C 62.84375 72.59375 63.050781 72.570312 63.253906 72.511719 C 63.546875 72.449219 63.75 72.621094 63.699219 72.917969 C 63.671875 73.007812 63.640625 73.097656 63.601562 73.183594 C 63.527344 73.355469 63.523438 73.527344 63.585938 73.707031 C 63.648438 73.882812 63.761719 74.015625 63.925781 74.105469 L 64.761719 74.644531 C 64.914062 74.78125 65.089844 74.851562 65.292969 74.859375 C 65.496094 74.867188 65.675781 74.804688 65.835938 74.675781 C 65.976562 74.53125 66.054688 74.355469 66.070312 74.152344 C 66.089844 73.949219 66.039062 73.761719 65.925781 73.59375 C 65.730469 73.230469 65.5 72.886719 65.296875 72.523438 C 65.097656 72.160156 64.886719 71.75 64.683594 71.359375 L 64.773438 71.28125 C 64.878906 71.277344 64.976562 71.296875 65.070312 71.335938 C 65.625 71.71875 66.289062 72.039062 66.347656 72.824219 C 66.464844 73.8125 66.886719 74.648438 67.613281 75.332031 C 67.832031 75.589844 68.113281 75.714844 68.453125 75.699219 C 68.929688 75.699219 69.011719 75.605469 68.945312 75.121094 C 68.914062 74.882812 68.867188 74.671875 68.859375 74.414062 C 68.878906 74.308594 68.917969 74.214844 68.976562 74.125 C 69.109375 74.167969 69.234375 74.226562 69.351562 74.304688 C 69.40625 74.398438 69.433594 74.5 69.429688 74.609375 C 69.433594 74.691406 69.457031 74.765625 69.496094 74.835938 C 69.539062 74.90625 69.59375 74.964844 69.664062 75.003906 C 69.734375 75.046875 69.8125 75.070312 69.890625 75.074219 C 69.972656 75.078125 70.050781 75.0625 70.125 75.027344 C 70.199219 75 70.269531 74.921875 70.34375 74.914062 C 70.445312 74.917969 70.542969 74.933594 70.640625 74.964844 C 70.628906 75.070312 70.601562 75.167969 70.550781 75.261719 C 70.476562 75.34375 70.324219 75.347656 70.246094 75.425781 C 70.089844 75.582031 69.859375 75.746094 69.832031 75.941406 C 69.789062 76.21875 70.027344 76.386719 70.28125 76.480469 C 70.945312 76.691406 71.601562 76.929688 72.269531 77.113281 C 72.460938 77.148438 72.621094 77.234375 72.757812 77.375 C 72.890625 77.515625 72.972656 77.679688 73 77.875 C 73.132812 78.550781 73.472656 78.65625 74.023438 78.234375 C 74.109375 78.15625 74.210938 78.117188 74.328125 78.117188 C 74.445312 78.117188 74.546875 78.15625 74.632812 78.234375 C 74.726562 78.308594 74.828125 78.371094 74.933594 78.425781 C 75 78.472656 75.074219 78.5 75.15625 78.511719 C 75.238281 78.519531 75.320312 78.507812 75.394531 78.480469 C 75.472656 78.449219 75.539062 78.402344 75.589844 78.335938 C 75.644531 78.273438 75.675781 78.199219 75.691406 78.121094 C 75.730469 77.945312 75.75 77.773438 75.757812 77.597656 C 75.757812 77.464844 75.796875 77.335938 75.824219 77.175781 C 76.046875 77.386719 76.191406 77.644531 76.253906 77.949219 C 76.316406 78.253906 76.285156 78.546875 76.164062 78.832031 C 75.691406 79.695312 75.835938 80.066406 76.777344 80.402344 L 76.976562 80.472656 C 77.25 80.554688 77.484375 80.703125 77.671875 80.914062 C 77.863281 81.128906 77.980469 81.375 78.03125 81.65625 C 78.046875 81.847656 78.105469 82.027344 78.210938 82.1875 C 78.347656 82.359375 78.523438 82.472656 78.734375 82.539062 C 78.988281 82.601562 79.148438 82.40625 79.234375 82.175781 C 79.367188 81.84375 79.480469 81.511719 79.574219 81.167969 C 79.699219 80.742188 79.613281 80.367188 79.308594 80.039062 C 79.214844 79.933594 79.128906 79.820312 79.050781 79.699219 C 78.976562 79.609375 78.941406 79.503906 78.941406 79.386719 C 78.941406 79.273438 78.976562 79.167969 79.050781 79.078125 C 79.148438 78.9375 79.1875 78.785156 79.171875 78.613281 C 79.15625 78.445312 79.085938 78.300781 78.964844 78.183594 C 78.671875 77.816406 78.378906 77.4375 78.105469 77.054688 C 77.847656 76.730469 77.691406 76.367188 77.636719 75.957031 C 77.582031 75.546875 77.636719 75.15625 77.796875 74.777344 C 77.839844 74.652344 77.875 74.523438 77.894531 74.394531 C 77.941406 74.234375 77.9375 74.070312 77.882812 73.914062 C 77.828125 73.753906 77.734375 73.625 77.597656 73.523438 C 77.460938 73.421875 77.3125 73.371094 77.140625 73.367188 C 76.972656 73.363281 76.820312 73.40625 76.679688 73.5 C 76.4375 73.621094 76.230469 73.804688 75.972656 73.902344 C 75.820312 73.964844 75.523438 73.996094 75.460938 73.902344 C 75.148438 73.613281 74.898438 73.28125 74.703125 72.90625 C 74.46875 72.191406 74.007812 71.679688 73.324219 71.367188 C 73.222656 71.332031 73.132812 71.277344 73.054688 71.199219 C 72.703125 70.878906 72.289062 70.699219 71.8125 70.65625 C 71.328125 70.523438 70.910156 70.277344 70.558594 69.921875 C 70.207031 69.566406 69.964844 69.144531 69.832031 68.660156 C 69.757812 67.945312 69.648438 67.234375 69.503906 66.53125 C 69.308594 65.65625 69.234375 64.777344 69.273438 63.882812 C 69.273438 63.683594 69.273438 63.4375 69.628906 63.4375 C 69.574219 63.960938 69.746094 64.398438 70.140625 64.75 C 70.589844 65.277344 70.589844 65.515625 70.210938 66.089844 C 69.957031 66.363281 69.894531 66.675781 70.03125 67.023438 C 70.367188 67.667969 70.601562 68.363281 71.167969 68.882812 C 71.445312 69.128906 71.683594 69.40625 71.882812 69.71875 C 71.96875 69.914062 72.105469 70.0625 72.292969 70.167969 C 72.480469 70.269531 72.679688 70.304688 72.890625 70.273438 L 74.789062 69.976562 C 74.753906 70.496094 74.699219 71.039062 74.6875 71.574219 C 74.679688 71.835938 74.738281 72.078125 74.867188 72.304688 C 74.996094 72.53125 75.175781 72.707031 75.402344 72.832031 C 75.621094 72.953125 75.855469 73.003906 76.105469 72.984375 C 76.355469 72.964844 76.578125 72.875 76.777344 72.722656 C 77.15625 72.476562 77.519531 72.210938 77.863281 71.925781 C 77.953125 71.859375 78.019531 71.777344 78.066406 71.675781 C 78.113281 71.578125 78.132812 71.476562 78.128906 71.367188 C 78.128906 71.257812 78.097656 71.15625 78.046875 71.058594 C 77.992188 70.964844 77.917969 70.886719 77.828125 70.828125 C 77.382812 70.464844 76.933594 70.074219 76.484375 69.707031 C 75.988281 69.289062 75.671875 68.761719 75.535156 68.125 C 75.476562 67.894531 75.445312 67.675781 75.402344 67.425781 C 75.238281 66.53125 74.859375 65.632812 74.953125 64.671875 C 75.007812 64.074219 75.007812 63.476562 74.953125 62.882812 C 74.894531 62.152344 74.789062 61.429688 74.640625 60.714844 C 74.519531 60.136719 74.292969 59.585938 74.144531 59.015625 C 74.046875 58.726562 74.03125 58.433594 74.089844 58.136719 C 74.148438 57.84375 74.28125 57.578125 74.480469 57.351562 C 74.648438 57.109375 74.734375 56.839844 74.734375 56.542969 C 74.761719 56.226562 74.546875 56.035156 74.238281 55.941406 C 74.109375 55.890625 73.984375 55.894531 73.855469 55.945312 C 73.730469 56 73.636719 56.089844 73.585938 56.214844 C 73.539062 56.3125 73.503906 56.414062 73.476562 56.519531 C 72.980469 55.714844 73.214844 55.230469 73.925781 55.175781 C 74.636719 55.125 74.820312 54.730469 74.457031 54.15625 C 74.230469 53.871094 73.980469 53.609375 73.707031 53.367188 L 75.25 51.515625 C 75.375 51.429688 75.496094 51.296875 75.636719 51.273438 C 75.796875 51.273438 75.945312 51.316406 76.082031 51.402344 C 76.472656 51.589844 76.722656 51.472656 76.792969 51.042969 C 76.832031 50.859375 76.808594 50.683594 76.726562 50.515625 C 76.640625 50.347656 76.515625 50.226562 76.347656 50.144531 C 76.132812 50.03125 75.898438 49.964844 75.667969 49.847656 C 75.433594 49.714844 75.21875 49.566406 75.011719 49.398438 C 74.84375 49.269531 74.691406 49.121094 74.566406 48.949219 C 74.417969 48.722656 74.167969 48.4375 74.214844 48.234375 C 74.289062 47.917969 74.664062 47.976562 74.976562 47.9375 C 75.246094 47.914062 75.507812 47.855469 75.761719 47.765625 C 75.902344 47.714844 76.007812 47.621094 76.070312 47.480469 C 76.136719 47.34375 76.140625 47.203125 76.085938 47.0625 C 76.035156 46.914062 75.945312 46.804688 75.8125 46.726562 C 75.679688 46.648438 75.535156 46.621094 75.382812 46.648438 C 74.972656 46.703125 74.894531 46.617188 75 46.203125 C 75.101562 45.785156 74.921875 45.558594 74.484375 45.621094 C 74.117188 45.679688 73.851562 45.875 73.683594 46.207031 C 73.628906 46.292969 73.496094 46.40625 73.429688 46.394531 C 73.300781 46.359375 73.214844 46.28125 73.164062 46.15625 C 73.125 45.902344 73.117188 45.644531 73.132812 45.386719 C 73.179688 45.089844 73.210938 44.792969 73.226562 44.492188 C 73.210938 44.292969 73.117188 44.140625 72.941406 44.042969 C 72.832031 44.011719 72.640625 44.191406 72.492188 44.308594 C 72.40625 44.40625 72.335938 44.511719 72.277344 44.625 C 72.21875 44.589844 72.207031 44.585938 72.203125 44.578125 C 72.183594 44.546875 72.171875 44.515625 72.160156 44.484375 C 72.121094 43.921875 71.859375 43.496094 71.375 43.207031 C 71.257812 43.125 71.164062 43.023438 71.082031 42.90625 C 71.027344 42.828125 71.015625 42.742188 71.046875 42.648438 C 71.078125 42.59375 71.207031 42.59375 71.292969 42.574219 C 71.5 42.53125 71.835938 42.550781 71.882812 42.4375 C 71.9375 42.191406 71.9375 41.945312 71.882812 41.699219 C 71.863281 41.574219 71.835938 41.453125 71.792969 41.332031 L 71.910156 41.265625 C 72.019531 41.351562 72.113281 41.453125 72.195312 41.5625 C 72.527344 42.082031 72.996094 42.382812 73.605469 42.460938 C 73.769531 42.488281 74.015625 42.601562 74.054688 42.726562 C 74.257812 43.4375 74.949219 43.722656 75.347656 44.242188 C 75.507812 44.351562 75.679688 44.371094 75.859375 44.296875 C 76.03125 44.164062 76.125 43.996094 76.144531 43.78125 C 76.207031 43.367188 75.917969 43.113281 75.644531 42.859375 C 75.464844 42.6875 75.304688 42.503906 75.160156 42.304688 C 75.117188 42.242188 75.160156 42.109375 75.160156 42.015625 C 75.253906 42.015625 75.371094 42.015625 75.4375 42.089844 C 75.546875 42.195312 75.648438 42.3125 75.734375 42.4375 C 75.867188 42.625 76.046875 42.738281 76.273438 42.777344 C 76.5 42.816406 76.707031 42.769531 76.894531 42.632812 C 77.027344 42.566406 77.121094 42.460938 77.167969 42.316406 C 77.214844 42.175781 77.203125 42.035156 77.132812 41.898438 C 77.019531 41.742188 76.894531 41.589844 76.753906 41.453125 C 76.664062 41.308594 76.585938 41.160156 76.511719 41.003906 C 76.660156 40.957031 76.808594 40.921875 76.960938 40.902344 C 77.210938 40.902344 77.511719 40.960938 77.617188 40.683594 C 77.796875 40.199219 77.949219 39.703125 78.066406 39.199219 C 78.09375 39.089844 78.074219 38.988281 78.003906 38.894531 C 77.933594 38.800781 77.839844 38.753906 77.726562 38.753906 L 77.066406 38.65625 C 77.128906 38.566406 77.15625 38.484375 77.207031 38.464844 C 77.550781 38.347656 77.894531 38.21875 78.25 38.125 C 78.601562 38.03125 78.734375 38.230469 78.757812 38.515625 C 78.785156 38.800781 78.738281 39.058594 78.738281 39.332031 C 78.726562 39.566406 78.738281 39.796875 78.777344 40.027344 C 78.808594 40.183594 78.890625 40.308594 79.023438 40.394531 C 79.152344 40.480469 79.296875 40.507812 79.453125 40.476562 C 79.605469 40.46875 79.730469 40.410156 79.832031 40.296875 C 79.933594 40.183594 79.976562 40.050781 79.96875 39.898438 C 79.960938 39.652344 79.921875 39.410156 79.859375 39.167969 C 79.753906 38.898438 79.722656 38.621094 79.765625 38.332031 C 79.808594 38.046875 79.921875 37.789062 80.101562 37.5625 C 80.265625 37.324219 80.34375 37.058594 80.339844 36.769531 C 80.339844 36.242188 80.734375 35.925781 81.023438 35.53125 C 81.066406 36.042969 81.039062 36.554688 80.933594 37.0625 C 80.78125 37.722656 80.523438 38.363281 80.332031 39.015625 C 80.210938 39.421875 80.332031 39.808594 80.589844 39.886719 C 80.957031 39.996094 81.160156 39.753906 81.332031 39.488281 C 81.851562 38.644531 82.539062 37.96875 83.386719 37.464844 C 83.644531 37.320312 83.824219 37.109375 83.925781 36.835938 C 84.027344 36.5625 84.027344 36.285156 83.929688 36.007812 C 83.707031 35.285156 83.796875 34.601562 84.199219 33.957031 C 84.335938 33.746094 84.410156 33.515625 84.421875 33.265625 C 84.433594 33.011719 84.378906 32.777344 84.261719 32.554688 C 84.207031 32.339844 84.1875 32.125 84.207031 31.910156 C 84.40625 32.011719 84.582031 32.144531 84.734375 32.308594 C 84.875 32.558594 85.070312 32.75 85.324219 32.882812 C 85.578125 33.015625 85.847656 33.066406 86.132812 33.035156 C 86.214844 33.03125 86.296875 33.03125 86.378906 33.035156 C 86.972656 33.074219 87.175781 33.382812 86.984375 33.933594 C 86.902344 34.140625 86.851562 34.355469 86.835938 34.582031 C 86.828125 34.804688 86.921875 34.96875 87.117188 35.082031 C 87.308594 35.195312 87.5 35.191406 87.691406 35.078125 C 87.828125 34.988281 87.949219 34.878906 88.054688 34.75 C 88.550781 34.214844 89.042969 33.664062 89.542969 33.128906 C 89.648438 33.0625 89.757812 33.011719 89.878906 32.984375 C 89.941406 33.101562 89.976562 33.226562 89.992188 33.359375 C 89.96875 33.511719 89.914062 33.652344 89.820312 33.773438 C 89.699219 33.933594 89.570312 34.082031 89.433594 34.222656 C 89.058594 34.671875 89.066406 34.765625 89.359375 35.253906 C 89.433594 35.402344 89.433594 35.550781 89.359375 35.699219 C 89.171875 35.917969 88.941406 36.078125 88.667969 36.175781 C 88.398438 36.273438 88.117188 36.300781 87.832031 36.25 C 86.78125 36.050781 85.621094 37.144531 85.855469 38.21875 C 85.957031 38.453125 86.105469 38.65625 86.300781 38.820312 C 86.371094 38.890625 86.523438 38.894531 86.574219 38.972656 C 86.628906 39.046875 86.648438 39.25 86.617188 39.261719 C 86.25 39.523438 85.84375 39.628906 85.398438 39.582031 C 84.824219 39.480469 84.25 39.453125 83.671875 39.5 C 83.453125 39.550781 83.304688 39.679688 83.222656 39.886719 C 83.179688 40.023438 83.339844 40.234375 83.414062 40.40625 C 83.492188 40.574219 83.523438 40.605469 83.578125 40.703125 C 83.453125 40.742188 83.328125 40.757812 83.199219 40.75 C 82.753906 40.636719 82.609375 40.671875 82.382812 41.121094 C 82.097656 41.679688 81.84375 42.253906 81.554688 42.808594 C 80.984375 43.890625 80.101562 44.792969 79.761719 46.027344 C 79.539062 46.570312 79.59375 47.085938 79.929688 47.570312 C 80.464844 48.148438 80.796875 48.828125 80.921875 49.609375 C 80.921875 49.75 81.191406 49.957031 81.371094 49.976562 C 81.546875 49.992188 81.726562 49.796875 81.785156 49.644531 C 82.09375 48.839844 82.367188 48.019531 82.636719 47.199219 C 82.8125 46.675781 82.957031 46.558594 83.496094 46.667969 C 83.808594 46.742188 84.082031 46.671875 84.316406 46.453125 C 84.671875 46.144531 85.019531 45.816406 85.375 45.503906 C 85.476562 45.425781 85.582031 45.351562 85.6875 45.285156 L 85.816406 45.378906 C 85.761719 45.550781 85.683594 45.710938 85.585938 45.863281 C 85.359375 46.136719 85.089844 46.371094 84.84375 46.632812 C 84.441406 46.988281 84.238281 47.4375 84.238281 47.976562 C 84.238281 48.050781 84.109375 48.179688 84.019531 48.203125 C 83.855469 48.214844 83.6875 48.214844 83.523438 48.203125 C 83.363281 48.203125 83.21875 48.246094 83.089844 48.339844 C 82.957031 48.433594 82.867188 48.554688 82.816406 48.703125 C 82.679688 49.066406 82.566406 49.441406 82.433594 49.808594 C 82.269531 50.257812 82.121094 50.746094 81.921875 51.191406 C 81.816406 51.40625 81.664062 51.582031 81.472656 51.722656 C 81.367188 51.808594 81.242188 51.863281 81.109375 51.886719 C 80.972656 51.910156 80.839844 51.902344 80.710938 51.855469 C 80.578125 51.808594 80.46875 51.734375 80.375 51.632812 C 80.285156 51.527344 80.226562 51.410156 80.195312 51.273438 C 80.128906 51.070312 80.050781 50.875 79.960938 50.683594 C 79.914062 50.523438 79.824219 50.402344 79.683594 50.316406 C 79.546875 50.230469 79.394531 50.203125 79.234375 50.234375 C 78.875 50.308594 78.816406 50.621094 78.785156 50.914062 C 78.640625 52.390625 78.234375 53.792969 77.570312 55.121094 C 77.492188 55.265625 77.445312 55.425781 77.425781 55.589844 C 77.382812 55.863281 77.425781 56.136719 77.710938 56.246094 C 77.851562 56.316406 77.996094 56.332031 78.148438 56.292969 C 78.296875 56.253906 78.414062 56.167969 78.5 56.035156 C 78.648438 55.808594 78.75 55.5625 78.804688 55.296875 C 78.859375 54.988281 78.96875 54.851562 79.289062 54.9375 C 79.402344 54.976562 79.511719 54.972656 79.621094 54.925781 C 79.734375 54.875 79.8125 54.796875 79.855469 54.683594 C 80.070312 54.148438 80.28125 53.609375 80.453125 53.054688 C 80.519531 52.839844 80.566406 52.679688 80.8125 52.65625 C 81.0625 52.636719 81.261719 52.65625 81.351562 52.945312 C 81.445312 53.304688 81.539062 53.667969 81.628906 54.03125 C 81.71875 54.394531 81.722656 54.710938 82.113281 54.828125 C 82.503906 54.945312 82.671875 54.679688 82.855469 54.425781 C 82.902344 54.355469 82.957031 54.289062 83.015625 54.234375 C 83.066406 54.191406 83.167969 54.144531 83.199219 54.160156 C 83.417969 54.316406 83.621094 54.488281 83.832031 54.652344 C 83.695312 54.800781 83.59375 55.003906 83.433594 55.101562 C 83.101562 55.257812 82.847656 55.5 82.667969 55.820312 C 82.492188 56.144531 82.425781 56.488281 82.46875 56.851562 C 82.507812 57.445312 82.523438 57.496094 83.109375 57.644531 C 83.203125 57.671875 83.34375 57.757812 83.355469 57.832031 C 83.382812 57.964844 83.347656 58.082031 83.257812 58.179688 C 82.910156 58.445312 82.527344 58.511719 82.113281 58.378906 C 81.949219 58.335938 81.8125 58.246094 81.707031 58.113281 C 81.601562 57.980469 81.542969 57.828125 81.539062 57.65625 C 81.515625 57.449219 81.433594 57.261719 81.300781 57.101562 C 81.167969 56.9375 81 56.828125 80.800781 56.761719 C 80.648438 56.699219 80.480469 56.675781 80.328125 56.613281 C 79.429688 56.242188 79.230469 56.585938 78.898438 57.292969 C 78.59375 58.078125 78.410156 58.886719 78.339844 59.722656 C 78.277344 60.15625 78.261719 60.589844 78.285156 61.027344 C 78.273438 61.171875 78.316406 61.296875 78.417969 61.398438 C 78.519531 61.503906 78.640625 61.546875 78.785156 61.539062 C 79.101562 61.539062 79.175781 61.300781 79.234375 61.0625 C 79.316406 60.617188 79.371094 60.167969 79.445312 59.722656 C 79.484375 59.453125 79.480469 59.148438 79.890625 59.09375 C 79.890625 59.292969 79.914062 59.464844 79.917969 59.636719 C 79.917969 59.890625 80.050781 60.109375 80.285156 60.128906 C 80.449219 60.128906 80.636719 59.996094 80.789062 59.882812 C 80.898438 59.761719 80.992188 59.628906 81.070312 59.484375 C 81.09375 59.746094 81.152344 60 81.238281 60.25 C 81.367188 60.464844 81.542969 60.625 81.769531 60.734375 C 81.996094 60.839844 82.234375 60.871094 82.480469 60.832031 C 82.90625 60.832031 83.011719 60.519531 83.15625 60.214844 C 83.269531 59.867188 83.5 59.644531 83.847656 59.542969 C 84.007812 59.882812 83.972656 60.203125 83.742188 60.5 C 83.558594 60.703125 83.355469 60.886719 83.171875 61.082031 C 83.066406 61.167969 82.980469 61.269531 82.921875 61.394531 C 82.859375 61.515625 82.828125 61.644531 82.824219 61.78125 C 82.820312 61.917969 82.847656 62.050781 82.902344 62.175781 C 82.960938 62.300781 83.039062 62.40625 83.140625 62.496094 C 83.675781 63.085938 84.285156 63.585938 84.96875 63.996094 C 85.101562 64.101562 85.246094 64.179688 85.410156 64.230469 C 85.570312 64.28125 85.734375 64.300781 85.902344 64.289062 C 86.074219 64.277344 86.234375 64.238281 86.386719 64.164062 C 86.539062 64.09375 86.675781 63.996094 86.789062 63.871094 C 87.1875 63.503906 87.445312 63.058594 87.554688 62.527344 C 87.609375 62.382812 87.6875 62.25 87.789062 62.132812 L 87.953125 62.195312 C 87.945312 62.5 87.902344 62.796875 87.828125 63.09375 C 87.671875 63.535156 87.421875 63.921875 87.082031 64.246094 C 86.742188 64.574219 86.347656 64.804688 85.898438 64.945312 C 85.738281 65.003906 85.582031 65.003906 85.421875 64.945312 C 85.023438 64.738281 84.652344 64.496094 84.269531 64.253906 C 84.046875 64.117188 83.828125 63.96875 83.621094 63.808594 C 83.351562 63.605469 83.109375 63.359375 82.84375 63.179688 C 82.640625 62.988281 82.40625 62.851562 82.140625 62.769531 C 81.761719 62.75 81.386719 62.777344 81.015625 62.859375 C 80.761719 62.902344 80.519531 63.039062 80.269531 63.070312 C 79.785156 63.132812 79.636719 63.28125 79.738281 63.75 C 79.777344 63.835938 79.773438 63.921875 79.730469 64.003906 C 79.691406 64.085938 79.625 64.140625 79.535156 64.160156 C 79.4375 64.207031 79.304688 64.242188 79.261719 64.324219 C 79.109375 64.539062 79.015625 64.78125 78.972656 65.042969 C 78.972656 65.320312 79.242188 65.410156 79.511719 65.457031 C 79.746094 65.5 79.972656 65.5625 80.191406 65.648438 C 80.535156 65.820312 80.871094 65.8125 81.203125 65.621094 C 81.394531 65.519531 81.597656 65.464844 81.8125 65.449219 C 81.90625 65.449219 82.089844 65.507812 82.097656 65.5625 C 82.152344 65.800781 82.152344 66.039062 82.097656 66.277344 C 82.078125 66.347656 81.746094 66.308594 81.558594 66.332031 C 81.371094 66.355469 80.988281 66.332031 80.867188 66.449219 C 80.59375 66.765625 80.378906 67.117188 80.222656 67.503906 C 80.082031 67.882812 79.90625 68 79.546875 67.789062 C 79.1875 67.578125 78.972656 67.695312 78.960938 68.042969 C 78.941406 68.355469 79 68.652344 79.132812 68.9375 C 79.332031 69.335938 79.640625 69.675781 79.875 70.0625 C 80.519531 71.136719 81.175781 72.195312 81.425781 73.464844 C 81.554688 73.882812 81.75 74.269531 82.007812 74.617188 C 82.089844 74.738281 82.199219 74.816406 82.335938 74.859375 C 82.472656 74.898438 82.609375 74.886719 82.738281 74.828125 C 82.867188 74.792969 82.964844 74.714844 83.027344 74.597656 C 83.089844 74.480469 83.101562 74.355469 83.0625 74.230469 C 83 73.824219 82.898438 73.433594 82.761719 73.046875 C 82.601562 72.785156 82.417969 72.535156 82.214844 72.304688 C 82.144531 72.191406 82.082031 71.976562 82.136719 71.90625 C 82.253906 71.808594 82.394531 71.769531 82.546875 71.792969 C 82.675781 71.824219 82.785156 71.886719 82.875 71.980469 C 83.097656 72.191406 83.261719 72.445312 83.355469 72.738281 C 83.453125 73.03125 83.46875 73.332031 83.410156 73.632812 C 83.398438 73.839844 83.4375 74.035156 83.539062 74.214844 C 83.640625 74.394531 83.78125 74.535156 83.960938 74.632812 C 84.273438 74.839844 84.570312 74.660156 84.855469 74.457031 C 84.929688 74.402344 85.097656 74.363281 85.128906 74.398438 C 85.210938 74.488281 85.246094 74.59375 85.234375 74.714844 C 85.1875 74.882812 85.121094 75.046875 85.03125 75.199219 C 84.960938 75.308594 84.917969 75.421875 84.898438 75.546875 C 84.875 75.671875 84.882812 75.796875 84.914062 75.917969 C 84.945312 76.039062 85 76.152344 85.082031 76.25 C 85.160156 76.347656 85.253906 76.425781 85.367188 76.484375 C 85.574219 76.625 85.621094 76.746094 85.4375 76.933594 C 85.316406 77.050781 85.253906 77.195312 85.253906 77.363281 C 85.253906 77.535156 85.316406 77.679688 85.4375 77.796875 C 85.5625 77.941406 85.699219 78.070312 85.851562 78.183594 C 86.152344 78.398438 86.464844 78.417969 86.789062 78.246094 C 86.957031 78.195312 87.089844 78.09375 87.1875 77.949219 C 87.28125 77.804688 87.324219 77.644531 87.304688 77.46875 C 87.28125 77.046875 87.199219 76.632812 87.058594 76.230469 C 86.542969 75.0625 86.84375 73.957031 87.230469 72.851562 C 87.265625 72.703125 87.347656 72.589844 87.476562 72.511719 C 87.605469 72.433594 87.746094 72.410156 87.890625 72.449219 C 87.863281 72.707031 87.796875 72.957031 87.695312 73.195312 C 87.410156 73.683594 87.296875 74.207031 87.355469 74.765625 C 87.355469 75.179688 87.554688 75.402344 87.902344 75.414062 C 88.40625 75.414062 88.558594 75.289062 88.644531 74.816406 C 88.679688 74.523438 88.769531 74.246094 88.90625 73.984375 C 89.355469 73.253906 89.824219 72.550781 90.296875 71.839844 C 90.402344 71.703125 90.515625 71.578125 90.640625 71.457031 C 90.640625 71.691406 90.703125 71.835938 90.640625 71.933594 C 90.46875 72.273438 90.269531 72.605469 90.070312 72.9375 C 89.785156 73.421875 89.449219 73.882812 89.210938 74.398438 C 88.992188 74.78125 88.984375 75.167969 89.191406 75.558594 C 89.394531 75.886719 89.722656 75.855469 90.050781 75.769531 C 90.089844 75.769531 90.183594 75.800781 90.191406 75.835938 C 90.210938 75.90625 90.199219 75.96875 90.15625 76.023438 C 90.058594 76.089844 89.957031 76.148438 89.851562 76.199219 C 89.550781 76.328125 89.261719 76.476562 88.984375 76.648438 C 88.753906 76.800781 88.585938 77.003906 88.480469 77.257812 C 88.375 77.515625 88.351562 77.777344 88.410156 78.046875 C 88.433594 78.277344 88.523438 78.476562 88.679688 78.644531 C 88.832031 78.8125 89.023438 78.921875 89.25 78.964844 C 89.882812 79.074219 90.546875 79.144531 91.125 78.691406 C 91.300781 78.558594 91.5 78.453125 91.710938 78.378906 C 91.804688 78.347656 91.933594 78.433594 92.050781 78.464844 C 92 78.585938 91.988281 78.738281 91.902344 78.816406 C 91.753906 78.96875 91.558594 79.070312 91.398438 79.207031 C 90.875 79.574219 90.566406 80.074219 90.476562 80.707031 C 90.421875 81.332031 90.839844 81.601562 91.390625 81.324219 C 91.644531 81.152344 91.882812 80.957031 92.105469 80.746094 C 92.191406 80.710938 92.285156 80.6875 92.382812 80.679688 C 92.382812 80.78125 92.417969 80.941406 92.382812 80.976562 C 91.933594 81.300781 91.722656 81.914062 91.074219 82.003906 C 90.910156 82.03125 90.769531 82.109375 90.660156 82.234375 C 90.546875 82.359375 90.488281 82.503906 90.480469 82.671875 C 90.335938 83.214844 90.433594 83.707031 90.765625 84.160156 C 90.957031 84.410156 91.054688 84.660156 90.714844 84.902344 C 90.613281 85 90.535156 85.117188 90.492188 85.253906 C 90.402344 85.492188 90.34375 85.757812 90.570312 85.949219 C 90.675781 86.042969 90.804688 86.09375 90.949219 86.09375 C 91.09375 86.09375 91.222656 86.042969 91.328125 85.949219 C 91.777344 85.582031 92.183594 85.175781 92.546875 84.726562 C 92.761719 84.375 93.074219 84.203125 93.488281 84.207031 C 93.933594 84.207031 94.433594 84.269531 94.902344 84.273438 C 95.050781 84.300781 95.203125 84.300781 95.351562 84.265625 C 95.5 84.234375 95.636719 84.175781 95.761719 84.089844 C 95.886719 84.003906 95.992188 83.894531 96.078125 83.769531 C 96.160156 83.640625 96.214844 83.503906 96.246094 83.351562 C 96.3125 83.089844 96.480469 82.957031 96.75 82.949219 C 98.585938 82.757812 100.421875 82.535156 102.257812 82.339844 C 102.929688 82.273438 103.46875 82.089844 103.753906 81.40625 C 103.882812 81.191406 104.042969 81.003906 104.234375 80.847656 C 104.488281 80.628906 104.710938 80.386719 104.90625 80.117188 C 105.382812 79.195312 105.800781 78.25 106.25 77.300781 C 106.464844 76.792969 106.609375 76.238281 107.144531 75.988281 C 107.875 75.621094 108.347656 75.042969 108.570312 74.257812 C 108.6875 73.957031 108.824219 73.667969 108.976562 73.386719 L 109.132812 73.4375 C 109.128906 73.601562 109.105469 73.757812 109.0625 73.917969 C 108.246094 75.789062 107.808594 77.785156 107.140625 79.703125 C 107.054688 79.910156 106.957031 80.105469 106.84375 80.300781 C 106.675781 80.605469 106.527344 80.917969 106.398438 81.238281 C 106.316406 81.472656 106.46875 81.632812 106.71875 81.6875 C 106.972656 81.738281 107.207031 81.695312 107.421875 81.554688 C 107.640625 81.414062 107.773438 81.21875 107.832031 80.964844 C 108.082031 80.226562 108.308594 79.484375 108.546875 78.726562 C 108.785156 77.972656 109.058594 77.15625 109.304688 76.363281 C 109.523438 75.65625 109.75 74.949219 109.941406 74.230469 C 110.183594 73.253906 110.390625 72.273438 110.59375 71.289062 C 110.613281 71.183594 110.617188 71.019531 110.554688 70.960938 C 110.417969 70.902344 110.289062 70.921875 110.175781 71.019531 Z M 110.175781 71.019531 " fill-opacity="1" fill-rule="nonzero"/></g><path fill="#f5f5f4" d="M 110.953125 67.433594 C 110.953125 67.433594 110.933594 67.433594 110.90625 67.433594 C 110.878906 67.433594 110.863281 67.558594 110.855469 67.625 C 110.785156 68.171875 110.707031 68.71875 110.648438 69.265625 C 110.621094 69.464844 110.628906 69.660156 110.679688 69.855469 C 110.71875 70.042969 110.832031 70.152344 111.023438 70.175781 C 111.214844 70.199219 111.351562 70.128906 111.4375 69.953125 C 111.570312 69.683594 111.679688 69.398438 111.765625 69.109375 C 111.84375 68.839844 111.894531 68.566406 111.914062 68.285156 C 111.875 67.246094 112.007812 67.410156 110.953125 67.433594 Z M 110.953125 67.433594 " fill-opacity="1" fill-rule="nonzero"/><path fill="#f5f5f4" d="M 87.949219 82.179688 C 87.847656 82.164062 87.75 82.125 87.664062 82.066406 C 87.550781 82.003906 87.433594 81.964844 87.304688 81.953125 C 87.175781 81.9375 87.050781 81.949219 86.929688 81.988281 C 86.804688 82.027344 86.695312 82.089844 86.601562 82.175781 C 86.503906 82.261719 86.429688 82.363281 86.375 82.480469 C 86.339844 82.660156 86.394531 82.808594 86.535156 82.925781 C 87.089844 83.105469 87.65625 83.320312 88.277344 83.070312 C 88.636719 82.617188 88.464844 82.277344 87.949219 82.179688 Z M 87.949219 82.179688 " fill-opacity="1" fill-rule="nonzero"/><path fill="#f5f5f4" d="M 86.328125 80.367188 C 86.496094 80.449219 86.804688 80.277344 87.027344 80.175781 C 87.128906 80.085938 87.167969 79.976562 87.148438 79.84375 C 86.96875 79.0625 86.316406 78.816406 85.609375 79.285156 C 85.578125 79.425781 85.503906 79.601562 85.5625 79.664062 C 85.773438 79.949219 86.027344 80.183594 86.328125 80.367188 Z M 86.328125 80.367188 " fill-opacity="1" fill-rule="nonzero"/><path fill="#f5f5f4" d="M 88.273438 84.320312 C 88.0625 84.613281 87.898438 84.929688 87.78125 85.273438 C 87.753906 85.445312 87.808594 85.582031 87.945312 85.6875 C 88.042969 85.746094 88.238281 85.648438 88.394531 85.601562 C 88.585938 85.484375 88.710938 85.320312 88.773438 85.105469 C 88.839844 84.890625 88.820312 84.679688 88.71875 84.480469 C 88.636719 84.234375 88.425781 84.113281 88.273438 84.320312 Z M 88.273438 84.320312 " fill-opacity="1" fill-rule="nonzero"/><path fill="#f5f5f4" d="M 86.84375 84.007812 C 86.683594 83.917969 86.507812 83.886719 86.324219 83.914062 C 86.140625 83.9375 85.984375 84.019531 85.855469 84.148438 C 85.789062 84.292969 85.777344 84.441406 85.816406 84.59375 C 85.859375 84.75 85.945312 84.871094 86.078125 84.960938 C 86.214844 85.019531 86.355469 85.054688 86.503906 85.058594 C 86.605469 85.007812 86.703125 84.949219 86.800781 84.882812 C 87.25 84.574219 87.265625 84.359375 86.84375 84.007812 Z M 86.84375 84.007812 " fill-opacity="1" fill-rule="nonzero"/><path fill="#f5f5f4" d="M 78.21875 42.6875 C 78.351562 42.652344 78.449219 42.492188 78.574219 42.40625 C 78.683594 42.359375 78.75 42.285156 78.785156 42.171875 C 78.816406 42.0625 78.800781 41.957031 78.734375 41.863281 C 78.675781 41.757812 78.589844 41.6875 78.476562 41.652344 C 78.363281 41.613281 78.253906 41.621094 78.144531 41.671875 L 77.824219 41.792969 C 77.714844 41.886719 77.574219 41.96875 77.570312 42.058594 C 77.523438 42.28125 77.550781 42.496094 77.644531 42.707031 C 77.703125 42.789062 78.03125 42.742188 78.21875 42.6875 Z M 78.21875 42.6875 " fill-opacity="1" fill-rule="nonzero"/></svg>