<svg xmlns="http://www.w3.org/2000/svg" xmlns:xlink="http://www.w3.org/1999/xlink" width="150" zoomAndPan="magnify" viewBox="0 0 112.5 112.499997" height="150" preserveAspectRatio="xMidYMid meet" version="1.0"><defs><clipPath id="9adb3cf210"><path d="M 0 16.449219 L 112 16.449219 L 112 95.597656 L 0 95.597656 Z M 0 16.449219 " clip-rule="nonzero"/></clipPath></defs><g clip-path="url(#9adb3cf210)"><path fill="#d6d3d1" d="M 110.636719 60.71875 C 109.921875 60.703125 109.203125 61.007812 108.757812 61.511719 C 106.773438 61.390625 104.332031 61.410156 102.992188 63.09375 C 97.0625 64.507812 97.464844 64.882812 97.800781 70.394531 C 97.015625 70.738281 97.09375 72.640625 97.054688 73.316406 C 96.339844 74.304688 93.425781 75.582031 95.714844 76.519531 C 94.773438 77.378906 93.382812 77.839844 92.464844 76.410156 C 92.464844 76.410156 89.566406 77.355469 89.5 77.421875 C 89.3125 77.957031 88.6875 78.164062 88.160156 78.277344 C 86.789062 78.25 84.117188 79.5 82.976562 80.210938 C 82.074219 80.371094 81.332031 79.527344 80.890625 78.871094 C 80.109375 78.976562 79.664062 78.902344 79.375 78.125 C 79.375 78.125 76.5 78.277344 76.5 78.277344 C 75.433594 79.828125 75.566406 79.863281 75.730469 77.882812 C 75.523438 76.367188 74.183594 76.578125 73.777344 74.226562 C 73.394531 73.25 71.207031 71.144531 70.449219 70.40625 C 69.847656 69.277344 68.585938 66.90625 67.484375 66.222656 C 67.601562 65.238281 67.339844 63.503906 66.855469 62.632812 C 67.871094 60.113281 66.507812 56.4375 66.332031 53.769531 C 66.953125 53.933594 66.988281 53.488281 66.957031 52.980469 C 66.945312 52.617188 67.085938 51.949219 66.625 51.761719 C 66.324219 49.800781 66.800781 50.042969 68.472656 50.179688 C 68.289062 48.824219 68.40625 47.648438 66.660156 47.511719 C 65.609375 47.679688 63.949219 47.515625 63.191406 46.699219 C 62.507812 46.625 61.128906 46.757812 61.191406 45.753906 C 59.21875 43.6875 60.363281 41.007812 59.0625 41.339844 C 58.386719 40.703125 56.132812 38.625 56.359375 37.542969 C 55.929688 37.050781 55.191406 35.777344 55.195312 35.105469 C 55.195312 35.105469 52.460938 32.621094 52.460938 32.621094 L 50.15625 32.65625 C 49.605469 32.511719 49.199219 31.859375 49.101562 32.886719 C 47.070312 32.707031 48.425781 34.195312 46.46875 35.949219 C 45.886719 36.378906 42.117188 33.605469 41.625 33.347656 C 41.332031 32.21875 40.570312 29.9375 40.109375 28.867188 C 34.355469 24.804688 37.828125 23.867188 29.105469 23.597656 C 29.109375 23.597656 29.042969 25.539062 29.042969 25.539062 L 23.210938 25.046875 C 20.613281 25.277344 15.71875 22.652344 13.582031 21.355469 C 13.542969 21.222656 6.289062 17.585938 7.429688 17.007812 C 7.21875 16.949219 0.00390625 16.488281 0.0703125 16.5 C 0.53125 18.015625 0.234375 20.070312 1.109375 21.292969 C 1.523438 23.0625 0.25 22.511719 1.699219 23.53125 C 1.820312 24.085938 1.644531 24.925781 1.472656 25.34375 C 2.917969 25.226562 2.046875 27.761719 2.195312 28.375 C 4.304688 30.039062 7.257812 32.460938 6.871094 35.324219 C 6.007812 37.199219 4.324219 37.039062 2.886719 36.050781 C 2.429688 36.683594 4.367188 37.644531 4.566406 37.925781 C 4.5 39.066406 4.375 39.507812 5.609375 39.574219 C 5.984375 40.238281 6.292969 40.78125 7.039062 40.59375 C 7.105469 42.3125 8.769531 41.355469 9.640625 41.351562 C 8.5 44.734375 14.839844 43.601562 11.75 50.113281 C 13.839844 53.378906 18.625 55.523438 18.898438 59.730469 C 21.640625 59 22.375 58.097656 20.582031 55.847656 C 19.996094 54.617188 19.089844 53.601562 17.773438 53.8125 C 16.695312 53.578125 16.976562 52.019531 17.074219 51.375 C 17.09375 50.96875 16.769531 50.058594 16.457031 49.945312 C 16.550781 49 15.871094 47.59375 15.359375 47.003906 C 15.359375 46.917969 15.226562 43.710938 15.226562 43.777344 C 15.195312 43.714844 14.128906 41.59375 14.152344 41.648438 C 14.136719 41.707031 13.773438 43.230469 13.789062 43.160156 C 13.785156 43.089844 13.554688 40.816406 13.558594 40.855469 C 13.019531 40.613281 12.589844 39.824219 12.570312 39.339844 C 11.144531 38.667969 11.234375 36.21875 11.253906 35.027344 C 10.304688 35.527344 10.570312 34.4375 10.542969 33.972656 C 9.8125 33.367188 9.105469 31.6875 9.078125 30.890625 C 6.742188 29.371094 5.800781 26.632812 6.3125 24.054688 C 6.792969 19.960938 5.308594 19.359375 9.21875 22.296875 C 9.574219 21.019531 10.765625 22.414062 10.664062 23.136719 C 10.71875 23.160156 12.304688 23.761719 12.265625 23.75 C 12.203125 24.964844 11.304688 26.089844 12.488281 27.050781 C 12.605469 29.121094 13.804688 31.410156 14.152344 33.261719 C 14.664062 35.128906 16.507812 35.847656 16.832031 37.695312 C 17.308594 38.273438 18.5625 38.441406 19.160156 38.453125 C 18.351562 39.730469 19.140625 41.078125 20.148438 41.8125 C 21.703125 41.699219 21.199219 42.792969 21.269531 43.722656 C 21.328125 43.722656 22.914062 43.71875 22.847656 43.726562 C 23.386719 45.191406 23.9375 46.046875 22.386719 46.855469 C 22.054688 48.644531 26.355469 49.945312 27.371094 51.113281 C 26.320312 52.898438 30.414062 55.738281 31.195312 56.734375 C 31.96875 57.367188 32.875 58.851562 33.105469 59.65625 C 33.171875 59.722656 35.792969 62.367188 35.738281 62.3125 C 35.894531 63.148438 36.050781 65.742188 36.488281 66.332031 C 36.828125 66.511719 38.214844 67.355469 37.386719 67.652344 C 36.996094 68.722656 37.011719 70.457031 37.40625 71.40625 C 37.34375 71.476562 35.40625 71.578125 35.453125 71.582031 C 35.648438 73.566406 37.304688 75.382812 38.507812 76.695312 C 40.972656 77.507812 43.382812 79.929688 45.007812 81.550781 C 45.105469 81.582031 50.003906 83.1875 49.96875 83.171875 C 50.03125 82.378906 50.492188 82.785156 50.894531 82.867188 C 52.382812 84.839844 56.175781 86.753906 58.46875 87.105469 C 59.613281 87.941406 62.105469 88.570312 63.367188 88.753906 C 64.34375 88.417969 65.203125 89.289062 65.605469 89.9375 C 68.371094 90.300781 68.410156 91.769531 71.667969 91.234375 C 72.789062 91.652344 74.542969 92.597656 75.792969 92.117188 C 76.480469 91.328125 79.027344 90.726562 79.773438 89.9375 C 83.300781 85.730469 90.992188 93.15625 93.914062 95.515625 C 93.964844 93.671875 94.472656 89.804688 94.300781 88.191406 C 95.898438 87.695312 99.214844 87.445312 100.753906 87.46875 C 100.75 87.402344 100.652344 85.65625 100.6875 85.546875 C 98.902344 85.492188 99.523438 83.972656 97.589844 83.941406 C 92.785156 80.496094 99.417969 84.917969 97.199219 79.660156 C 98.320312 79.71875 104.410156 78.8125 104.96875 78.671875 C 104.898438 77.558594 105.40625 77.652344 106.15625 77.914062 C 106.171875 77.859375 106.523438 76.433594 106.519531 76.464844 C 107.09375 76.382812 107.117188 75.527344 107.144531 75.148438 C 107.453125 74.953125 107.996094 74.976562 108.246094 75.285156 C 108.761719 75.117188 109.410156 75.277344 109.492188 75.914062 C 110.570312 76.683594 110.121094 71.578125 110.402344 71.460938 C 109.523438 71.621094 109.734375 71.125 109.683594 70.601562 C 109.730469 70.589844 110.710938 70.332031 110.667969 70.335938 C 110.679688 70.292969 110.949219 69.363281 110.929688 69.417969 C 110.871094 69.433594 109.574219 69.890625 109.402344 69.875 C 109.101562 69.558594 110.074219 68.644531 110.207031 68.425781 C 110.242188 67.546875 110.183594 67.507812 109.382812 67.570312 C 109.539062 66.664062 111.117188 64.410156 111.691406 63.78125 C 111.667969 62.558594 112 61.222656 110.636719 60.71875 " fill-opacity="1" fill-rule="nonzero"/></g></svg>