<svg xmlns="http://www.w3.org/2000/svg" xmlns:xlink="http://www.w3.org/1999/xlink" width="150" zoomAndPan="magnify" viewBox="0 0 112.5 112.499997" height="150" preserveAspectRatio="xMidYMid meet" version="1.0"><path fill="#d6d3d1" d="M 7.328125 86.140625 C 8.1875 88.792969 6.890625 91.707031 11.226562 91.296875 C 11.207031 89.882812 11.019531 89.898438 12.214844 89.125 C 13.480469 88.695312 16.128906 90.207031 18.046875 90.753906 C 17.492188 94.621094 20.84375 90.808594 20.351562 93.058594 C 21.253906 93.410156 21.222656 91.484375 21.710938 92.789062 C 24.175781 90.796875 27.339844 90.191406 29.035156 86.957031 C 29.808594 86.515625 34.285156 86.890625 34.191406 85.871094 C 31.519531 83.714844 33.339844 81.984375 36.632812 81.664062 C 37.433594 82.230469 35.382812 85 37.71875 83.566406 C 40.347656 84.972656 40.015625 82.113281 42.328125 80.851562 C 42.980469 80.605469 43.921875 81.425781 44.363281 81.800781 C 44.933594 83.699219 43.054688 82.0625 44.09375 84.109375 C 43.09375 83.953125 42.179688 83.105469 43.007812 84.785156 C 45.910156 83.796875 46.285156 86.238281 48.433594 83.292969 C 48.550781 82.640625 48.597656 81.566406 49.382812 81.394531 C 49.222656 83.308594 50.820312 80.753906 50.875 83.835938 C 48.988281 85.867188 52.0625 85.949219 51.460938 88.496094 C 52.054688 88.617188 52.882812 88.527344 53.316406 88.042969 C 56.4375 89.25 51.550781 90.613281 56.84375 90.484375 C 56.382812 89.25 58.386719 90.589844 58.742188 90.484375 C 59.261719 90.015625 60.71875 88.660156 61.457031 89.125 C 62.019531 89.808594 62.457031 91.320312 62.269531 92.203125 C 62.945312 92.53125 64.976562 92.601562 64.847656 93.601562 C 66.125 93.710938 67.882812 92.972656 67.832031 94.960938 C 68.816406 94.351562 69.246094 94.390625 69.867188 95.367188 C 69.867188 95.367188 68.644531 96.316406 68.644531 96.316406 C 69.9375 98.285156 67.875 96.257812 68.511719 98.621094 C 67.746094 98.121094 67.566406 99.125 67.289062 99.570312 C 68.726562 100.210938 66.949219 101.925781 66.339844 102.554688 C 68.730469 102.199219 65.625 106.632812 64.441406 106.082031 C 64.527344 109.914062 66.265625 106.847656 65.660156 110.96875 C 66.792969 109.792969 66.605469 111.542969 67.5625 109.609375 C 68.777344 111.640625 69.5 109.664062 69.507812 110.96875 C 70.328125 110.039062 70.515625 110.128906 71.273438 110.96875 C 72.070312 109.984375 74.328125 112.003906 73.992188 110.164062 C 73.9375 110.152344 72.714844 109.203125 72.714844 109.203125 C 73.332031 107.695312 74.152344 110.394531 74.070312 106.355469 C 74.894531 106.777344 75.34375 107.726562 75.835938 106.082031 C 74.925781 105.394531 75.699219 104.757812 75.972656 104.050781 C 74.371094 104.21875 72.964844 103.300781 73.9375 101.605469 C 71.605469 102.140625 72.996094 101.144531 70.953125 102.148438 C 71.585938 100.667969 68.695312 99.066406 71.222656 98.351562 C 71.222656 98.351562 71.902344 99.707031 72.039062 99.707031 C 72.355469 97.238281 79.175781 95.21875 76.921875 94.011719 C 77.246094 93.617188 78.460938 94.085938 77.464844 93.195312 C 74.601562 95.421875 75.4375 93.050781 75.292969 91.160156 C 76.636719 88.84375 79.386719 87.667969 79.09375 84.949219 C 78.828125 82.945312 78.90625 78.425781 75.699219 76.648438 C 76.613281 74.523438 76.414062 74.695312 74.34375 74.070312 C 73.828125 71.183594 75.246094 72.519531 72.039062 70.949219 C 75.109375 70.25 70.40625 67.902344 72.847656 67.285156 C 73.1875 68.324219 74.65625 66.414062 75.023438 66.199219 C 75.605469 66.71875 78.015625 67.917969 77.597656 66.335938 C 77.183594 65.742188 76.695312 64.996094 75.863281 65.25 C 75.863281 65.25 77.464844 64.574219 77.464844 64.574219 C 78.988281 65.902344 77.867188 66.339844 80.449219 65.792969 C 80.683594 66.730469 81.511719 66.859375 82.347656 66.742188 C 81.984375 67.515625 83.3125 67.511719 83.703125 67.691406 C 83.808594 67.066406 83.84375 66.339844 83.027344 66.199219 C 83.078125 64.894531 84.089844 66.691406 84.652344 66.199219 C 86.511719 67.460938 89.664062 62.332031 91.4375 64.980469 C 99.695312 58.800781 86.273438 60.003906 92.25 57.246094 C 91.988281 55.132812 93.5 55.863281 94.878906 55.753906 C 94.878906 55.753906 96.183594 53.585938 96.183594 53.585938 C 97.328125 53.929688 97.875 52.167969 98.21875 51.414062 C 98.777344 51.535156 99.96875 51.378906 100.253906 50.734375 C 97.914062 49.089844 100.933594 46.351562 99.984375 44.222656 C 99.230469 44.734375 98.277344 41.738281 98.082031 41.511719 C 97.082031 43.191406 96.558594 42.796875 94.964844 42.324219 C 95.070312 41.167969 92.886719 42.496094 91.03125 40.695312 C 91.234375 39.699219 89.742188 37.652344 91.488281 38.121094 C 91.097656 37.304688 92.601562 37.636719 92.851562 37.578125 C 90.347656 36.492188 92.414062 35.804688 91.164062 34.730469 C 93.871094 33.324219 96.964844 34.058594 99.574219 34.726562 C 100.652344 29.027344 99.625 26.378906 103.375 20.890625 C 105.117188 18.535156 101.589844 13.105469 104.1875 12.074219 C 103.578125 11.867188 103.8125 9.695312 103.78125 9.226562 C 102.050781 9.59375 99.542969 8.609375 100.796875 6.648438 C 100.796875 6.648438 101.609375 6.511719 101.609375 6.511719 C 98.257812 6.160156 96.984375 4.214844 96.589844 0.8125 C 95.960938 1.539062 94.226562 0.230469 93.742188 0 C 89.960938 0.277344 84.949219 1.214844 81.261719 2.847656 C 78.585938 1.238281 74.792969 2.847656 71.765625 2.847656 C 65.675781 4.574219 57.839844 9.273438 57.929688 16.414062 C 56.832031 15.949219 58.71875 18.425781 58.609375 18.585938 C 57.921875 19.941406 58.828125 21.628906 58.472656 23.0625 C 54.878906 25.085938 60.34375 25.640625 61.726562 26.316406 C 63.578125 26.1875 64.390625 24.539062 66.203125 26.320312 C 63.453125 26.417969 62.527344 31.835938 63.625 33.644531 C 65.175781 36.5 59.003906 37.035156 59.285156 39.746094 C 57.277344 41.730469 50.636719 43.535156 51.824219 46.800781 C 50.902344 47.089844 49.125 47.152344 48.703125 45.988281 C 48.273438 47.164062 47.15625 46.160156 47.753906 45.308594 C 49.027344 45.410156 50.015625 43.730469 49.789062 42.460938 C 50.941406 40.191406 50.320312 39.609375 49.382812 36.898438 C 49.0625 36.109375 48.796875 34.828125 49.789062 34.320312 C 52.789062 34.433594 50.664062 36.511719 54.402344 33.777344 C 54.546875 33.410156 54.707031 32.457031 55.351562 32.695312 C 56.777344 31.480469 55.351562 29.121094 53.589844 29.574219 C 51.296875 31.519531 50.9375 27.308594 51.417969 25.910156 C 49.691406 21.828125 49.03125 21.265625 45.3125 24.148438 C 43.03125 24.5625 42.980469 18.878906 41.242188 21.570312 C 38.925781 35.980469 36.949219 51.9375 24.964844 61.859375 C 23.238281 60.261719 21.1875 61.964844 22.792969 63.894531 C 26.605469 64.597656 22.808594 64.039062 24.828125 66.742188 C 23.195312 68.789062 25.210938 65.539062 21.4375 67.285156 C 20.378906 67.761719 19.472656 68.03125 19.808594 69.59375 C 18.617188 72.539062 15.195312 69.941406 15.332031 73.527344 C 16.65625 75.394531 19.863281 70.941406 20.351562 75.832031 C 22.785156 75.324219 21.332031 76.632812 23.472656 76.375 C 24.308594 77.457031 21.378906 77.78125 23.878906 78.273438 C 25.621094 81.046875 27.097656 79.046875 27.949219 81.121094 C 28.90625 81.320312 28.707031 82.707031 28.761719 83.429688 C 27.355469 82.382812 27.183594 84.746094 25.644531 83.023438 C 24.335938 79.710938 21.335938 80.429688 19.808594 77.054688 C 16.222656 76.953125 11.085938 76.496094 8.957031 79.902344 C 10.957031 81.355469 12.347656 85.003906 15.0625 82.480469 C 15.980469 83.808594 17.210938 84.765625 18.589844 85.597656 C 22.257812 85.585938 20.066406 83.472656 22.523438 82.480469 C 26.242188 86.320312 26.5 84.113281 29.441406 85.734375 C 27.265625 85.925781 24.816406 87.773438 23.609375 84.921875 C 21.21875 84.703125 23.304688 86.058594 19.675781 87.632812 C 15.460938 87.097656 11.371094 83.070312 7.328125 86.140625 " fill-opacity="1" fill-rule="nonzero"/></svg>