<svg xmlns="http://www.w3.org/2000/svg" xmlns:xlink="http://www.w3.org/1999/xlink" width="150" zoomAndPan="magnify" viewBox="0 0 112.5 112.499997" height="150" preserveAspectRatio="xMidYMid meet" version="1.0"><defs><clipPath id="7f82c6046f"><path d="M 4.410156 0 L 107.453125 0 L 107.453125 112.003906 L 4.410156 112.003906 Z M 4.410156 0 " clip-rule="nonzero"/></clipPath></defs><g clip-path="url(#7f82c6046f)"><path fill="#d6d3d1" d="M 4.90625 9.039062 L 4.460938 90.140625 L 6.074219 89.105469 L 7.027344 89.320312 L 7.914062 90.503906 L 9.378906 91.390625 L 10.839844 90.652344 L 12.15625 90.796875 L 12.894531 89.910156 L 13.632812 90.207031 L 14.078125 92.113281 C 14.078125 92.113281 16.132812 92.261719 16.429688 92.703125 C 16.726562 93.148438 17.742188 95.796875 18.632812 96.8125 L 18.78125 99.164062 L 19.074219 99.757812 L 23.035156 100.644531 L 24.796875 100.199219 L 27.589844 101.089844 L 28.035156 102.269531 L 29.496094 103.160156 L 29.644531 104.34375 L 31.105469 104.785156 L 32.570312 104.933594 C 32.570312 104.933594 33.457031 103.621094 33.457031 103.472656 C 33.457031 103.324219 35.660156 102.878906 35.808594 102.878906 C 35.957031 102.878906 36.992188 103.765625 36.992188 103.765625 C 36.992188 103.765625 39.636719 104.210938 40.082031 104.65625 C 40.527344 105.097656 40.96875 106.117188 40.96875 106.117188 L 41.710938 105.378906 L 44.652344 105.230469 C 44.652344 105.230469 45.390625 103.621094 45.6875 103.621094 C 45.984375 103.621094 47.445312 102.582031 47.445312 102.15625 C 47.445312 101.710938 48.761719 102.15625 48.761719 102.15625 L 50.667969 101.121094 L 51.109375 101.566406 C 51.109375 101.566406 51.109375 103.621094 51.40625 104.359375 C 51.703125 105.097656 52.148438 106.265625 52.589844 106.710938 C 53.035156 107.152344 54.644531 107.300781 54.644531 107.300781 L 57.4375 109.800781 L 57.882812 111.558594 L 58.476562 112.003906 L 60.085938 111.855469 C 60.085938 111.855469 62.289062 110.820312 62.730469 110.820312 C 63.175781 110.820312 64.34375 110.523438 64.34375 110.523438 C 64.34375 110.523438 65.230469 106.988281 65.230469 106.710938 C 65.230469 106.429688 67.875 105.820312 67.875 105.820312 L 67.582031 103.324219 L 67.582031 102.582031 L 66.839844 100.234375 L 68.601562 98.621094 L 68.601562 96.714844 C 68.601562 96.714844 69.488281 94.957031 69.785156 94.957031 C 70.078125 94.957031 70.820312 93.773438 70.820312 93.773438 L 71.261719 92.886719 L 71.855469 92.738281 L 72.296875 93.183594 L 72.445312 93.921875 L 73.628906 94.070312 L 74.515625 95.679688 L 73.925781 96.714844 L 74.222656 97.457031 L 75.535156 97.160156 C 75.535156 97.160156 75.535156 96.125 75.683594 95.976562 C 75.832031 95.828125 76.570312 95.382812 76.570312 95.382812 L 77.460938 96.125 L 77.902344 95.828125 L 77.3125 94.644531 L 77.753906 93.183594 L 76.71875 92.144531 L 76.570312 91.257812 L 78.035156 90.816406 L 78.035156 87.871094 L 78.773438 87.132812 L 79.515625 86.542969 L 79.808594 85.226562 L 82.457031 85.375 L 82.605469 83.171875 L 84.953125 81.414062 L 85.992188 81.414062 L 87.027344 83.171875 L 89.375 81.988281 L 89.671875 81.839844 L 90.855469 81.839844 L 91.59375 80.378906 L 93.355469 79.488281 L 93.648438 78.601562 C 93.648438 78.601562 96.296875 75.214844 97.316406 74.9375 C 98.351562 74.640625 99.074219 74.640625 99.074219 74.640625 C 99.074219 74.640625 98.925781 72.734375 99.222656 72.289062 C 99.519531 71.847656 100.109375 71.402344 100.109375 71.402344 L 99.074219 69.941406 L 100.257812 68.902344 L 100.257812 67.144531 L 100.996094 66.703125 L 100.703125 65.238281 L 101.738281 65.535156 L 101.738281 64.21875 L 102.179688 63.628906 L 102.328125 60.242188 L 102.921875 59.503906 L 102.921875 57.59375 L 103.511719 57.152344 L 104.105469 55.539062 C 104.105469 55.539062 105.289062 53.929688 105.289062 53.78125 C 105.289062 53.632812 105.582031 52.894531 105.4375 51.875 C 105.289062 50.839844 104.695312 50.265625 104.695312 50.265625 L 105.140625 50.117188 C 105.140625 50.117188 105.730469 48.503906 105.730469 48.210938 C 105.730469 47.914062 105.289062 46.597656 105.289062 46.597656 L 104.105469 44.691406 L 103.957031 44.25 L 104.84375 43.359375 L 106.160156 43.359375 L 107.472656 42.769531 L 107.539062 0 L 103.875 1.464844 L 98.730469 3.515625 L 97.988281 3.8125 L 95.640625 4.109375 L 90.789062 6.609375 L 90.050781 6.902344 L 89.164062 6.902344 L 78.296875 15.863281 L 75.355469 16.007812 L 71.691406 14.84375 L 65.953125 17.636719 L 63.601562 17.636719 L 60.21875 19.246094 L 55.21875 16.453125 L 52.722656 16.15625 L 50.667969 17.472656 L 47.429688 16.734375 L 49.484375 15.550781 L 52.128906 15.105469 L 54.628906 14.957031 L 52.425781 14.367188 L 52.292969 12.640625 L 50.816406 14.695312 L 48.464844 14.25 L 46.410156 12.195312 L 44.207031 11.457031 L 40.246094 8.808594 L 36.710938 8.957031 L 37.15625 7.921875 Z M 4.90625 9.039062 " fill-opacity="1" fill-rule="nonzero"/></g></svg>